<?xml version="1.0" encoding="utf-8"?>
<!-- Generator: Adobe Illustrator 26.3.1, SVG Export Plug-In . SVG Version: 6.00 Build 0)  -->
<svg version="1.1" id="Layer_2_00000092450137695428183450000002400346071365161867_"
	 xmlns="http://www.w3.org/2000/svg" xmlns:xlink="http://www.w3.org/1999/xlink" x="0px" y="0px" viewBox="0 0 3681 59.2"
	 style="enable-background:new 0 0 3681 59.2;" xml:space="preserve">
<style type="text/css">
	.st0{fill:#FACB32;}
</style>
<g>
	<g>
		<path class="st0" d="M19.4,58.4H0L10,1.2h25c6.1,0,10.9,1.4,14.1,4.2c3.3,2.8,4.9,6.8,4.9,11.7c0,1.2-0.1,2.6-0.4,4.2
			c-0.7,3.6-2.1,7-4.3,9.9c-2.2,3-5.1,5.3-8.7,7.1c-3.6,1.7-7.7,2.6-12.3,2.6h-6L19.4,58.4z M2.4,56.4h15.3l3-17.5h7.7
			c4.3,0,8.2-0.8,11.5-2.4c3.3-1.6,6-3.8,8-6.4c2-2.7,3.3-5.7,3.9-9.1c0.2-1.5,0.4-2.8,0.4-3.9c0-4.4-1.4-7.7-4.3-10.2
			C45,4.5,40.7,3.2,35,3.2H11.7L2.4,56.4z M28.9,27.2h-6.1l2.1-12.1h5.8c4.9,0,5.6,3,5.6,4.8c0,0.6,0,1-0.1,1.4l0,0
			C35.5,25.2,32.9,27.2,28.9,27.2z M25.2,25.2h3.7c3.1,0,4.8-1.3,5.3-4.2c0-0.3,0.1-0.6,0.1-1.1c0-1.4-0.4-2.8-3.6-2.8h-4.1
			L25.2,25.2z"/>
		<path class="st0" d="M80.3,59c-5.5,0-10.4-1.1-14.3-3.2c-4-2.1-7.1-5.1-9.2-9c-2.1-3.8-3.1-8.3-3.1-13.3c0-2.6,0.2-5,0.6-7.2
			c0.9-5,2.8-9.6,5.6-13.5c2.8-3.9,6.5-7,10.9-9.2c4.4-2.2,9.4-3.3,14.9-3.3c5.4,0,10.1,1.1,14.1,3.2l0,0c4,2.1,7.1,5.2,9.2,9.1
			c2.1,3.8,3.2,8.4,3.2,13.4c0,2.1-0.2,4.4-0.6,6.9c-0.9,5.1-2.8,9.6-5.6,13.6c-2.8,3.9-6.4,7.1-10.8,9.2C90.7,57.8,85.8,59,80.3,59
			z M85.6,2.3c-5.2,0-9.9,1-14,3.1c-4.1,2-7.5,4.9-10.1,8.6c-2.6,3.7-4.4,7.9-5.2,12.7c-0.4,2.1-0.6,4.4-0.6,6.8
			c0,4.7,1,8.9,2.9,12.4c1.9,3.5,4.7,6.2,8.4,8.2c3.7,1.9,8.2,2.9,13.4,2.9c5.2,0,9.9-1,13.9-3.1c4.1-2,7.4-4.9,10-8.6
			c2.6-3.7,4.4-8,5.2-12.7c0.4-2.4,0.6-4.6,0.6-6.6c0-4.7-1-8.9-2.9-12.4c-1.9-3.5-4.7-6.3-8.4-8.3l0,0C95.1,3.3,90.6,2.3,85.6,2.3z
			 M81.5,42.8c-3.5,0-6.2-1-8-2.9c-1.8-1.9-2.7-4.5-2.7-7.8c0-1.3,0.1-2.5,0.3-3.5c0.7-3.8,2.1-6.8,4.4-9l0,0
			c2.3-2.2,5.3-3.4,8.8-3.4c3.4,0,6.1,1,7.9,2.8c1.8,1.9,2.7,4.5,2.7,7.8c0,1.2-0.1,2.5-0.3,3.6c-0.6,3.7-2.1,6.7-4.4,8.9
			C87.9,41.7,85,42.8,81.5,42.8z M76.9,21c-2,1.9-3.3,4.6-3.8,7.9c-0.2,1-0.3,2.1-0.3,3.2c0,2.7,0.7,4.9,2.2,6.4
			c1.4,1.5,3.6,2.3,6.6,2.3c3,0,5.4-0.9,7.4-2.8c2-1.9,3.3-4.5,3.8-7.8c0.2-1.1,0.3-2.1,0.3-3.3c0-2.8-0.7-4.9-2.2-6.4
			c-1.4-1.5-3.6-2.2-6.5-2.2C81.3,18.2,78.9,19.2,76.9,21L76.9,21z"/>
		<path class="st0" d="M160.3,58.4h-21.2l-6-16.9l-2.9,16.9h-19.4l10-57.2h26.6c6.1,0,10.9,1.4,14.2,4.3l0,0c3.3,2.9,5,6.7,5,11.4
			c0,1.3-0.1,2.5-0.3,3.6c-0.7,3.9-2.4,7.4-5.1,10.3c-2.5,2.7-5.6,4.7-9.4,6.1L160.3,58.4z M140.5,56.4h16.8l-8.2-20.8l1-0.3
			c3.9-1.2,7.1-3.2,9.5-5.8c2.4-2.7,4-5.8,4.6-9.4c0.2-1,0.3-2.1,0.3-3.3c0-4.1-1.4-7.4-4.3-9.9l0,0c-2.9-2.5-7.2-3.8-12.9-3.8
			h-24.9l-9.3,53.2h15.3l3.9-22.8L140.5,56.4z M141.6,27.1h-8.1l2.1-11.4h7.7c1.7,0,3,0.4,3.8,1.2c0.9,0.8,1.4,2,1.4,3.4
			c0,0.5,0,0.9-0.1,1.2C147.9,25.1,145.5,27.1,141.6,27.1z M136,25h5.7c2.9,0,4.4-1.2,4.9-3.8c0-0.2,0.1-0.4,0.1-0.8
			c0-0.9-0.2-1.5-0.7-2c-0.5-0.5-1.3-0.7-2.5-0.7h-6L136,25z"/>
		<path class="st0" d="M193.8,58.4h-19.4l7.3-41.5h-14.5L170,1.2h48.5l-2.8,15.7H201L193.8,58.4z M176.8,56.4h15.3l7.3-41.5H214
			l2.1-11.7h-44.4l-2.1,11.7h14.5L176.8,56.4z"/>
		<path class="st0" d="M230.4,58.4h-19.4l10-57.2h41l-2.8,15.7h-21.7l-1,5.6h15.6l-2.6,15h-15.6L230.4,58.4z M213.5,56.4h15.3
			l3.7-20.8H248l1.9-11h-15.6l1.7-9.7h21.7l2.1-11.7h-36.9L213.5,56.4z"/>
		<path class="st0" d="M285.6,59c-5.5,0-10.4-1.1-14.3-3.2c-4-2.1-7.1-5.1-9.2-9c-2.1-3.8-3.1-8.3-3.1-13.3c0-2.6,0.2-5,0.6-7.2
			c0.9-5,2.8-9.6,5.6-13.5c2.8-3.9,6.5-7,10.9-9.2c4.4-2.2,9.4-3.3,14.9-3.3c5.4,0,10.1,1.1,14.1,3.2l0,0c4,2.1,7.1,5.2,9.2,9.1
			c2.1,3.8,3.2,8.4,3.2,13.4c0,2.1-0.2,4.4-0.6,6.9c-0.9,5.1-2.8,9.6-5.6,13.6c-2.8,3.9-6.4,7.1-10.8,9.2
			C296.1,57.8,291.1,59,285.6,59z M290.9,2.3c-5.2,0-9.9,1-14,3.1c-4.1,2-7.5,4.9-10.1,8.6c-2.6,3.7-4.4,7.9-5.2,12.7
			c-0.4,2.1-0.6,4.4-0.6,6.8c0,4.7,1,8.9,2.9,12.4c1.9,3.5,4.7,6.2,8.4,8.2c3.7,1.9,8.2,2.9,13.4,2.9c5.2,0,9.9-1,13.9-3.1
			c4.1-2,7.4-4.9,10-8.6c2.6-3.7,4.4-8,5.2-12.7c0.4-2.4,0.6-4.6,0.6-6.6c0-4.7-1-8.9-2.9-12.4c-1.9-3.5-4.7-6.3-8.4-8.3l0,0
			C300.4,3.3,295.9,2.3,290.9,2.3z M286.8,42.8c-3.5,0-6.2-1-8-2.9c-1.8-1.9-2.7-4.5-2.7-7.8c0-1.3,0.1-2.5,0.3-3.5
			c0.7-3.8,2.1-6.8,4.4-9l0,0c2.3-2.2,5.3-3.4,8.8-3.4c3.4,0,6.1,1,7.9,2.8c1.8,1.9,2.7,4.5,2.7,7.8c0,1.2-0.1,2.5-0.3,3.6
			c-0.6,3.7-2.1,6.7-4.4,8.9C293.3,41.7,290.3,42.8,286.8,42.8z M289.6,18.2c-3,0-5.5,0.9-7.4,2.8l0,0c-2,1.9-3.3,4.6-3.8,7.9
			c-0.2,1-0.3,2.1-0.3,3.2c0,2.7,0.7,4.9,2.2,6.4c1.4,1.5,3.6,2.3,6.6,2.3c3,0,5.4-0.9,7.4-2.8c2-1.9,3.3-4.5,3.8-7.8
			c0.2-1.1,0.3-2.1,0.3-3.3c0-2.8-0.7-4.9-2.2-6.4C294.7,19,292.5,18.2,289.6,18.2z"/>
		<path class="st0" d="M352.2,58.4h-36l10-57.2h19.4l-7.4,42.1h16.7L352.2,58.4z M318.5,56.4h32l1.9-11.1h-16.7l7.4-42.1h-15.3
			L318.5,56.4z"/>
		<path class="st0" d="M374.9,58.4h-19.4l10-57.2H385L374.9,58.4z M358,56.4h15.3l9.3-53.2h-15.3L358,56.4z"/>
		<path class="st0" d="M410.4,59c-5.5,0-10.4-1.1-14.3-3.2c-4-2.1-7.1-5.1-9.2-9c-2.1-3.8-3.1-8.3-3.1-13.3c0-2.6,0.2-5,0.6-7.2
			c0.9-5,2.8-9.6,5.6-13.5c2.8-3.9,6.5-7,10.9-9.2c4.4-2.2,9.4-3.3,14.9-3.3c5.4,0,10.1,1.1,14.1,3.2l0,0c4,2.1,7.1,5.2,9.2,9.1
			c2.1,3.8,3.2,8.4,3.2,13.4c0,2.1-0.2,4.4-0.6,6.9c-0.9,5.1-2.8,9.6-5.6,13.6c-2.8,3.9-6.4,7.1-10.8,9.2
			C420.8,57.8,415.8,59,410.4,59z M415.7,2.3c-5.2,0-9.9,1-14,3.1c-4.1,2-7.5,4.9-10.1,8.6c-2.6,3.7-4.4,7.9-5.2,12.7
			c-0.4,2.1-0.6,4.4-0.6,6.8c0,4.7,1,8.9,2.9,12.4c1.9,3.5,4.7,6.2,8.4,8.2c3.7,1.9,8.2,2.9,13.4,2.9c5.2,0,9.9-1,13.9-3.1
			c4.1-2,7.4-4.9,10-8.6c2.6-3.7,4.4-8,5.2-12.7c0.4-2.4,0.6-4.6,0.6-6.6c0-4.7-1-8.9-2.9-12.4c-1.9-3.5-4.7-6.3-8.4-8.3
			C425.1,3.3,420.7,2.3,415.7,2.3z M411.6,42.8c-3.5,0-6.2-1-8-2.9c-1.8-1.9-2.7-4.5-2.7-7.8c0-1.3,0.1-2.5,0.3-3.5
			c0.7-3.8,2.1-6.8,4.4-9l0,0c2.3-2.2,5.3-3.4,8.8-3.4c3.4,0,6.1,1,7.9,2.8c1.8,1.9,2.7,4.5,2.7,7.8c0,1.2-0.1,2.5-0.3,3.6
			c-0.6,3.7-2.1,6.7-4.4,8.9C418,41.7,415.1,42.8,411.6,42.8z M407,21c-2,1.9-3.3,4.6-3.8,7.9c-0.2,1-0.3,2.1-0.3,3.2
			c0,2.7,0.7,4.9,2.2,6.4c1.4,1.5,3.6,2.3,6.6,2.3c3,0,5.4-0.9,7.4-2.8c2-1.9,3.3-4.5,3.8-7.8c0.2-1.1,0.3-2.1,0.3-3.3
			c0-2.8-0.7-4.9-2.2-6.4c-1.4-1.5-3.6-2.2-6.5-2.2C411.4,18.2,409,19.2,407,21L407,21z"/>
	</g>
	<g>
		<path class="st0" d="M481.1,39.9l-3,17.5h-17.3l9.7-55.2h24.2c5.9,0,10.4,1.3,13.5,4c3.1,2.7,4.6,6.3,4.6,10.9
			c0,1.1-0.1,2.5-0.4,4.1c-0.6,3.5-2,6.6-4.1,9.5c-2.1,2.8-4.9,5.1-8.3,6.7c-3.5,1.7-7.4,2.5-11.9,2.5H481.1z M494.8,21.1
			c0.1-0.3,0.1-0.7,0.1-1.2c0-2.5-1.5-3.8-4.6-3.8h-4.9l-1.8,10.1h4.9C492,26.2,494.1,24.5,494.8,21.1z"/>
		<path class="st0" d="M558.8,4.3c3.8,2.1,6.8,4.9,8.8,8.7c2,3.7,3,8,3,12.9c0,2-0.2,4.3-0.6,6.8c-0.9,4.9-2.7,9.3-5.4,13.1
			c-2.7,3.8-6.2,6.8-10.4,8.9c-4.2,2.1-9,3.2-14.4,3.2c-5.4,0-10-1-13.9-3c-3.8-2-6.8-4.9-8.8-8.6c-2-3.7-3-8-3-12.9
			c0-2.5,0.2-4.9,0.6-7c0.9-4.9,2.7-9.3,5.4-13.1c2.7-3.8,6.2-6.8,10.5-8.9c4.3-2.1,9.1-3.2,14.4-3.2C550.4,1.3,554.9,2.3,558.8,4.3
			z M535.8,20.3c-2.1,2.1-3.5,4.9-4.1,8.5c-0.2,1-0.3,2.2-0.3,3.4c0,3,0.8,5.4,2.5,7.1c1.6,1.7,4.1,2.6,7.3,2.6c3.2,0,5.9-1,8.1-3.1
			c2.2-2.1,3.5-4.9,4.1-8.3c0.2-1.1,0.3-2.2,0.3-3.4c0-3.1-0.8-5.4-2.5-7.1c-1.6-1.7-4-2.5-7.2-2.5
			C540.6,17.2,537.9,18.3,535.8,20.3z"/>
		<path class="st0" d="M620.5,6.2c3.1,2.7,4.6,6.2,4.6,10.6c0,1.2-0.1,2.4-0.3,3.4c-0.7,3.7-2.3,7-4.9,9.9c-2.6,2.8-5.9,4.9-9.9,6.1
			l8.3,21.1h-19l-7-19.8l-3.4,19.8h-17.3l9.7-55.2H607C612.9,2.2,617.4,3.5,620.5,6.2z M594.4,26.1h6.9c3.4,0,5.3-1.6,5.8-4.7
			c0.1-0.3,0.1-0.6,0.1-1c0-1.1-0.4-2-1.1-2.7c-0.7-0.6-1.8-1-3.2-1h-6.9L594.4,26.1z"/>
		<path class="st0" d="M676.9,2.2l-2.4,13.7h-14.7l-7.3,41.5h-17.3l7.3-41.5H628l2.4-13.7H676.9z"/>
		<path class="st0" d="M720.5,2.2l-2.4,13.7h-21.7l-1.3,7.6h15.6l-2.3,13h-15.6l-3.7,20.8h-17.3l9.7-55.2H720.5z"/>
		<path class="st0" d="M764.1,4.3c3.8,2.1,6.8,4.9,8.8,8.7c2,3.7,3,8,3,12.9c0,2-0.2,4.3-0.6,6.8c-0.9,4.9-2.7,9.3-5.4,13.1
			c-2.7,3.8-6.2,6.8-10.4,8.9c-4.2,2.1-9,3.2-14.4,3.2c-5.4,0-10-1-13.9-3c-3.8-2-6.8-4.9-8.8-8.6c-2-3.7-3-8-3-12.9
			c0-2.5,0.2-4.9,0.6-7c0.9-4.9,2.7-9.3,5.4-13.1c2.7-3.8,6.2-6.8,10.5-8.9c4.3-2.1,9.1-3.2,14.4-3.2C755.7,1.3,760.3,2.3,764.1,4.3
			z M741.1,20.3c-2.1,2.1-3.5,4.9-4.1,8.5c-0.2,1-0.3,2.2-0.3,3.4c0,3,0.8,5.4,2.5,7.1c1.6,1.7,4.1,2.6,7.3,2.6c3.2,0,5.9-1,8.1-3.1
			c2.2-2.1,3.5-4.9,4.1-8.3c0.2-1.1,0.3-2.2,0.3-3.4c0-3.1-0.8-5.4-2.5-7.1c-1.6-1.7-4-2.5-7.2-2.5
			C745.9,17.2,743.2,18.3,741.1,20.3z"/>
		<path class="st0" d="M796.5,44.3h16.7l-2.3,13.1h-34l9.7-55.2h17.3L796.5,44.3z"/>
		<path class="st0" d="M843.3,2.2l-9.7,55.2h-17.3L826,2.2H843.3z"/>
		<path class="st0" d="M888.9,4.3c3.8,2.1,6.8,4.9,8.8,8.7c2,3.7,3,8,3,12.9c0,2-0.2,4.3-0.6,6.8c-0.9,4.9-2.7,9.3-5.4,13.1
			c-2.7,3.8-6.2,6.8-10.4,8.9c-4.2,2.1-9,3.2-14.4,3.2c-5.4,0-10-1-13.9-3c-3.8-2-6.8-4.9-8.8-8.6c-2-3.7-3-8-3-12.9
			c0-2.5,0.2-4.9,0.6-7c0.9-4.9,2.7-9.3,5.4-13.1c2.7-3.8,6.2-6.8,10.5-8.9c4.3-2.1,9.1-3.2,14.4-3.2C880.5,1.3,885,2.3,888.9,4.3z
			 M865.9,20.3c-2.1,2.1-3.5,4.9-4.1,8.5c-0.2,1-0.3,2.2-0.3,3.4c0,3,0.8,5.4,2.5,7.1c1.6,1.7,4.1,2.6,7.3,2.6c3.2,0,5.9-1,8.1-3.1
			c2.2-2.1,3.5-4.9,4.1-8.3c0.2-1.1,0.3-2.2,0.3-3.4c0-3.1-0.8-5.4-2.5-7.1c-1.6-1.7-4-2.5-7.2-2.5C870.7,17.2,868,18.3,865.9,20.3z
			"/>
	</g>
	<g>
		<path class="st0" d="M938.5,58.4h-19.4l10-57.2h25c6.1,0,10.9,1.4,14.1,4.2c3.3,2.8,4.9,6.8,4.9,11.7c0,1.2-0.1,2.6-0.4,4.2
			c-0.7,3.6-2.1,7-4.3,9.9c-2.2,3-5.1,5.3-8.7,7.1c-3.6,1.7-7.7,2.6-12.3,2.6h-6L938.5,58.4z M921.5,56.4h15.3l3-17.5h7.7
			c4.3,0,8.2-0.8,11.5-2.4c3.3-1.6,6-3.8,8-6.4c2-2.7,3.3-5.7,3.9-9.1c0.2-1.5,0.4-2.8,0.4-3.9c0-4.4-1.4-7.7-4.3-10.2
			c-2.9-2.5-7.2-3.7-12.8-3.7h-23.3L921.5,56.4z M948,27.2h-6.1l2.1-12.1h5.8c4.9,0,5.6,3,5.6,4.8c0,0.6,0,1-0.1,1.4l0,0
			C954.6,25.2,952.1,27.2,948,27.2z M944.3,25.2h3.7c3.1,0,4.8-1.3,5.3-4.2c0-0.2,0.1-0.5,0.1-1.1c0-1.4-0.4-2.8-3.6-2.8h-4.1
			L944.3,25.2z"/>
		<path class="st0" d="M999.4,59c-5.5,0-10.4-1.1-14.3-3.2c-4-2.1-7.1-5.1-9.2-9c-2.1-3.8-3.1-8.3-3.1-13.3c0-2.6,0.2-5,0.6-7.2
			c0.9-5,2.8-9.6,5.6-13.5c2.8-3.9,6.5-7,10.9-9.2c4.4-2.2,9.4-3.3,14.9-3.3c5.4,0,10.1,1.1,14.1,3.2l0,0c4,2.1,7.1,5.2,9.2,9.1
			c2.1,3.8,3.2,8.4,3.2,13.4c0,2.1-0.2,4.4-0.6,6.9c-0.9,5.1-2.8,9.6-5.6,13.6c-2.8,3.9-6.4,7.1-10.8,9.2
			C1009.9,57.8,1004.9,59,999.4,59z M1004.7,2.3c-5.2,0-9.9,1-14,3.1c-4.1,2-7.5,4.9-10.1,8.6c-2.6,3.7-4.4,7.9-5.2,12.7
			c-0.4,2.1-0.6,4.4-0.6,6.8c0,4.7,1,8.9,2.9,12.4c1.9,3.5,4.7,6.2,8.4,8.2c3.7,1.9,8.2,2.9,13.4,2.9c5.2,0,9.9-1,13.9-3.1
			c4.1-2,7.4-4.9,10-8.6c2.6-3.7,4.4-8,5.2-12.7c0.4-2.4,0.6-4.6,0.6-6.6c0-4.7-1-8.9-2.9-12.4c-1.9-3.5-4.7-6.3-8.4-8.3l0,0
			C1014.2,3.3,1009.8,2.3,1004.7,2.3z M1000.7,42.8c-3.5,0-6.2-1-8-2.9c-1.8-1.9-2.7-4.5-2.7-7.8c0-1.3,0.1-2.5,0.3-3.5
			c0.7-3.8,2.1-6.8,4.4-9l0,0c2.3-2.2,5.3-3.4,8.8-3.4c3.4,0,6.1,1,7.9,2.8c1.8,1.9,2.7,4.5,2.7,7.8c0,1.2-0.1,2.5-0.3,3.6
			c-0.6,3.7-2.1,6.7-4.4,8.9C1007.1,41.7,1004.1,42.8,1000.7,42.8z M1003.5,18.2c-3,0-5.5,0.9-7.4,2.8l0,0c-2,1.9-3.3,4.6-3.8,7.9
			c-0.2,1-0.3,2.1-0.3,3.2c0,2.7,0.7,4.9,2.2,6.4c1.4,1.5,3.6,2.3,6.6,2.3c3,0,5.4-0.9,7.4-2.8c2-1.9,3.3-4.5,3.8-7.8
			c0.2-1.1,0.3-2.1,0.3-3.3c0-2.8-0.7-4.9-2.2-6.4C1008.5,19,1006.3,18.2,1003.5,18.2z"/>
		<path class="st0" d="M1079.4,58.4h-21.2l-6-16.9l-2.9,16.9H1030l10-57.2h26.6c6.1,0,10.9,1.4,14.2,4.3l0,0c3.3,2.9,5,6.7,5,11.4
			c0,1.3-0.1,2.5-0.3,3.6c-0.7,3.9-2.4,7.4-5.1,10.3c-2.5,2.7-5.6,4.7-9.4,6.1L1079.4,58.4z M1059.6,56.4h16.8l-8.2-20.8l1-0.3
			c3.9-1.2,7.1-3.2,9.5-5.8c2.4-2.7,4-5.8,4.6-9.4c0.2-1,0.3-2.1,0.3-3.3c0-4.1-1.4-7.4-4.3-9.9l0,0c-2.9-2.5-7.2-3.8-12.9-3.8
			h-24.9l-9.3,53.2h15.3l3.9-22.8L1059.6,56.4z M1060.8,27.1h-8.1l2.1-11.4h7.7c1.7,0,3,0.4,3.8,1.2c0.9,0.8,1.4,2,1.4,3.4
			c0,0.5,0,0.9-0.1,1.2C1067,25.1,1064.7,27.1,1060.8,27.1z M1055.1,25h5.7c2.9,0,4.4-1.2,4.9-3.8c0-0.2,0.1-0.4,0.1-0.8
			c0-0.9-0.2-1.5-0.7-2c-0.5-0.5-1.3-0.7-2.5-0.7h-6L1055.1,25z"/>
		<path class="st0" d="M1112.9,58.4h-19.4l7.3-41.5h-14.5l2.8-15.7h48.5l-2.8,15.7h-14.7L1112.9,58.4z M1096,56.4h15.3l7.3-41.5
			h14.7l2.1-11.7h-44.4l-2.1,11.7h14.5L1096,56.4z"/>
		<path class="st0" d="M1149.6,58.4h-19.4l10-57.2h41l-2.8,15.7h-21.7l-1,5.6h15.6l-2.6,15h-15.6L1149.6,58.4z M1132.6,56.4h15.3
			l3.7-20.8h15.6l1.9-11h-15.6l1.7-9.7h21.7l2.1-11.7H1142L1132.6,56.4z"/>
		<path class="st0" d="M1204.7,59c-5.5,0-10.4-1.1-14.3-3.2c-4-2.1-7.1-5.1-9.2-9c-2.1-3.8-3.1-8.3-3.1-13.3c0-2.6,0.2-5,0.6-7.2
			c0.9-5,2.8-9.6,5.6-13.5c2.8-3.9,6.5-7,10.9-9.2c4.4-2.2,9.4-3.3,14.9-3.3c5.4,0,10.1,1.1,14.1,3.2l0,0c4,2.1,7.1,5.2,9.2,9.1
			c2.1,3.8,3.2,8.4,3.2,13.4c0,2.1-0.2,4.4-0.6,6.9c-0.9,5.1-2.8,9.6-5.6,13.6c-2.8,3.9-6.4,7.1-10.8,9.2
			C1215.2,57.8,1210.2,59,1204.7,59z M1210,2.3c-5.2,0-9.9,1-14,3.1c-4.1,2-7.5,4.9-10.1,8.6c-2.6,3.7-4.4,7.9-5.2,12.7
			c-0.4,2.1-0.6,4.4-0.6,6.8c0,4.7,1,8.9,2.9,12.4c1.9,3.5,4.7,6.2,8.4,8.2c3.7,1.9,8.2,2.9,13.4,2.9c5.2,0,9.9-1,13.9-3.1
			c4.1-2,7.4-4.9,10-8.6c2.6-3.7,4.4-8,5.2-12.7c0.4-2.4,0.6-4.6,0.6-6.6c0-4.7-1-8.9-2.9-12.4c-1.9-3.5-4.8-6.3-8.4-8.3
			C1219.5,3.3,1215.1,2.3,1210,2.3z M1206,42.8c-3.5,0-6.2-1-8-2.9c-1.8-1.9-2.7-4.5-2.7-7.8c0-1.3,0.1-2.5,0.3-3.5
			c0.7-3.8,2.1-6.8,4.4-9l0,0c2.3-2.2,5.3-3.4,8.8-3.4c3.4,0,6.1,1,7.9,2.8c1.8,1.9,2.7,4.5,2.7,7.8c0,1.2-0.1,2.5-0.3,3.6
			c-0.6,3.7-2.1,6.7-4.4,8.9C1212.4,41.7,1209.5,42.8,1206,42.8z M1201.4,21c-2,1.9-3.3,4.6-3.8,7.9c-0.2,1-0.3,2.1-0.3,3.2
			c0,2.7,0.7,4.9,2.2,6.4c1.4,1.5,3.6,2.3,6.6,2.3c3,0,5.4-0.9,7.4-2.8c2-1.9,3.3-4.5,3.8-7.8c0.2-1.1,0.3-2.1,0.3-3.3
			c0-2.8-0.7-4.9-2.2-6.4c-1.4-1.5-3.6-2.2-6.5-2.2C1205.8,18.2,1203.3,19.2,1201.4,21L1201.4,21z"/>
		<path class="st0" d="M1271.3,58.4h-36l10-57.2h19.4l-7.4,42.1h16.7L1271.3,58.4z M1237.7,56.4h32l1.9-11.1h-16.7l7.4-42.1H1247
			L1237.7,56.4z"/>
		<path class="st0" d="M1294.1,58.4h-19.4l10-57.2h19.4L1294.1,58.4z M1277.1,56.4h15.3l9.3-53.2h-15.3L1277.1,56.4z"/>
		<path class="st0" d="M1329.5,59c-5.5,0-10.4-1.1-14.3-3.2c-4-2.1-7.1-5.1-9.2-9c-2.1-3.8-3.1-8.3-3.1-13.3c0-2.6,0.2-5,0.6-7.2
			c0.9-5,2.8-9.6,5.6-13.5c2.8-3.9,6.5-7,10.9-9.2c4.4-2.2,9.4-3.3,14.9-3.3c5.4,0,10.1,1.1,14.1,3.2l0,0c4,2.1,7.1,5.2,9.2,9.1
			c2.1,3.8,3.2,8.4,3.2,13.4c0,2.1-0.2,4.4-0.6,6.9c-0.9,5.1-2.8,9.6-5.6,13.6c-2.8,3.9-6.4,7.1-10.8,9.2
			C1340,57.8,1335,59,1329.5,59z M1334.8,2.3c-5.2,0-9.9,1-14,3.1c-4.1,2-7.5,4.9-10.1,8.6c-2.6,3.7-4.4,7.9-5.2,12.7
			c-0.4,2.1-0.6,4.4-0.6,6.8c0,4.7,1,8.9,2.9,12.4c1.9,3.5,4.7,6.2,8.4,8.2c3.7,1.9,8.2,2.9,13.4,2.9c5.2,0,9.9-1,13.9-3.1
			c4.1-2,7.4-4.9,10-8.6c2.6-3.7,4.4-8,5.2-12.7c0.4-2.4,0.6-4.6,0.6-6.6c0-4.7-1-8.9-2.9-12.4c-1.9-3.5-4.7-6.3-8.4-8.3l0,0
			C1344.3,3.3,1339.9,2.3,1334.8,2.3z M1330.8,42.8c-3.5,0-6.2-1-8-2.9c-1.8-1.9-2.7-4.5-2.7-7.8c0-1.3,0.1-2.4,0.3-3.5
			c0.7-3.8,2.1-6.8,4.4-9l0,0c2.3-2.2,5.3-3.4,8.8-3.4c3.4,0,6.1,1,7.9,2.8c1.8,1.9,2.7,4.5,2.7,7.8c0,1.3-0.1,2.5-0.3,3.6
			c-0.6,3.7-2.1,6.7-4.4,8.9C1337.2,41.7,1334.2,42.8,1330.8,42.8z M1326.1,21c-2,1.9-3.3,4.6-3.8,7.9c-0.2,1-0.3,2.1-0.3,3.2
			c0,2.7,0.7,4.9,2.2,6.4c1.4,1.5,3.6,2.3,6.6,2.3c3,0,5.4-0.9,7.4-2.8c2-1.9,3.3-4.5,3.8-7.8c0.2-1,0.3-2.1,0.3-3.3
			c0-2.8-0.7-4.9-2.2-6.4c-1.4-1.5-3.6-2.2-6.5-2.2C1330.5,18.2,1328.1,19.2,1326.1,21L1326.1,21z"/>
	</g>
	<g>
		<path class="st0" d="M1400.3,39.9l-3,17.5h-17.3l9.7-55.2h24.2c5.9,0,10.4,1.3,13.5,4c3.1,2.7,4.6,6.3,4.6,10.9
			c0,1.1-0.1,2.5-0.4,4.1c-0.6,3.5-2,6.6-4.1,9.5c-2.1,2.8-4.9,5.1-8.3,6.7c-3.5,1.7-7.4,2.5-11.9,2.5H1400.3z M1413.9,21.1
			c0.1-0.3,0.1-0.7,0.1-1.2c0-2.5-1.5-3.8-4.6-3.8h-4.9l-1.8,10.1h4.9C1411.2,26.2,1413.3,24.5,1413.9,21.1z"/>
		<path class="st0" d="M1477.9,4.3c3.8,2.1,6.8,4.9,8.8,8.7c2,3.7,3,8,3,12.9c0,2-0.2,4.3-0.6,6.8c-0.9,4.9-2.7,9.3-5.4,13.1
			c-2.7,3.8-6.2,6.8-10.4,8.9c-4.2,2.1-9,3.2-14.4,3.2c-5.4,0-10-1-13.9-3c-3.8-2-6.8-4.9-8.8-8.6c-2-3.7-3-8-3-12.9
			c0-2.5,0.2-4.9,0.6-7c0.9-4.9,2.7-9.3,5.4-13.1c2.7-3.8,6.2-6.8,10.5-8.9c4.3-2.1,9.1-3.2,14.4-3.2
			C1469.6,1.3,1474.1,2.3,1477.9,4.3z M1454.9,20.3c-2.1,2.1-3.5,4.9-4.1,8.5c-0.2,1-0.3,2.2-0.3,3.4c0,3,0.8,5.4,2.5,7.1
			c1.6,1.7,4.1,2.6,7.3,2.6s5.9-1,8.1-3.1c2.2-2.1,3.5-4.9,4.1-8.3c0.2-1.1,0.3-2.2,0.3-3.4c0-3.1-0.8-5.4-2.5-7.1
			c-1.6-1.7-4-2.5-7.2-2.5C1459.8,17.2,1457.1,18.3,1454.9,20.3z"/>
		<path class="st0" d="M1539.7,6.2c3.1,2.7,4.6,6.2,4.6,10.6c0,1.2-0.1,2.4-0.3,3.4c-0.7,3.7-2.3,7-4.9,9.9
			c-2.6,2.8-5.9,4.9-9.9,6.1l8.3,21.1h-19l-7-19.8l-3.4,19.8h-17.3l9.7-55.2h25.7C1532.1,2.2,1536.6,3.5,1539.7,6.2z M1513.5,26.1
			h6.9c3.4,0,5.3-1.6,5.8-4.7c0.1-0.3,0.1-0.6,0.1-1c0-1.1-0.4-2-1.1-2.7c-0.7-0.6-1.8-1-3.2-1h-6.9L1513.5,26.1z"/>
		<path class="st0" d="M1596,2.2l-2.4,13.7h-14.7l-7.3,41.5h-17.3l7.3-41.5h-14.5l2.4-13.7H1596z"/>
		<path class="st0" d="M1639.7,2.2l-2.4,13.7h-21.7l-1.3,7.6h15.6l-2.3,13H1612l-3.7,20.8H1591l9.7-55.2H1639.7z"/>
		<path class="st0" d="M1683.3,4.3c3.8,2.1,6.8,4.9,8.8,8.7c2,3.7,3,8,3,12.9c0,2-0.2,4.3-0.6,6.8c-0.9,4.9-2.7,9.3-5.4,13.1
			c-2.7,3.8-6.2,6.8-10.4,8.9c-4.2,2.1-9,3.2-14.4,3.2c-5.4,0-10-1-13.9-3c-3.8-2-6.8-4.9-8.8-8.6c-2-3.7-3-8-3-12.9
			c0-2.5,0.2-4.9,0.6-7c0.9-4.9,2.7-9.3,5.4-13.1c2.7-3.8,6.2-6.8,10.5-8.9c4.3-2.1,9.1-3.2,14.4-3.2
			C1674.9,1.3,1679.4,2.3,1683.3,4.3z M1660.3,20.3c-2.1,2.1-3.5,4.9-4.1,8.5c-0.2,1-0.3,2.2-0.3,3.4c0,3,0.8,5.4,2.5,7.1
			c1.6,1.7,4.1,2.6,7.3,2.6s5.9-1,8.1-3.1c2.2-2.1,3.5-4.9,4.1-8.3c0.2-1.1,0.3-2.2,0.3-3.4c0-3.1-0.8-5.4-2.5-7.1
			c-1.6-1.7-4-2.5-7.2-2.5C1665.1,17.2,1662.4,18.3,1660.3,20.3z"/>
		<path class="st0" d="M1715.6,44.3h16.7l-2.3,13.1h-34l9.7-55.2h17.3L1715.6,44.3z"/>
		<path class="st0" d="M1762.5,2.2l-9.7,55.2h-17.3l9.7-55.2H1762.5z"/>
		<path class="st0" d="M1808,4.3c3.8,2.1,6.8,4.9,8.8,8.7c2,3.7,3,8,3,12.9c0,2-0.2,4.3-0.6,6.8c-0.9,4.9-2.7,9.3-5.4,13.1
			c-2.7,3.8-6.2,6.8-10.4,8.9c-4.2,2.1-9,3.2-14.4,3.2c-5.4,0-10-1-13.9-3c-3.8-2-6.8-4.9-8.8-8.6c-2-3.7-3-8-3-12.9
			c0-2.5,0.2-4.9,0.6-7c0.9-4.9,2.7-9.3,5.4-13.1c2.7-3.8,6.2-6.8,10.5-8.9c4.3-2.1,9.1-3.2,14.4-3.2
			C1799.6,1.3,1804.2,2.3,1808,4.3z M1785,20.3c-2.1,2.1-3.5,4.9-4.1,8.5c-0.2,1-0.3,2.2-0.3,3.4c0,3,0.8,5.4,2.5,7.1
			c1.6,1.7,4.1,2.6,7.3,2.6c3.2,0,5.9-1,8.1-3.1c2.2-2.1,3.5-4.9,4.1-8.3c0.2-1.1,0.3-2.2,0.3-3.4c0-3.1-0.8-5.4-2.5-7.1
			c-1.6-1.7-4-2.5-7.2-2.5C1789.9,17.2,1787.2,18.3,1785,20.3z"/>
	</g>
	<g>
		<path class="st0" d="M1857.7,58.4h-19.4l10-57.2h25c6.1,0,10.9,1.4,14.1,4.2c3.3,2.8,4.9,6.8,4.9,11.7c0,1.2-0.1,2.6-0.4,4.2
			c-0.6,3.6-2.1,7-4.3,9.9c-2.2,3-5.1,5.3-8.7,7.1c-3.6,1.7-7.7,2.6-12.3,2.6h-6L1857.7,58.4z M1840.7,56.4h15.3l3-17.5h7.7
			c4.3,0,8.2-0.8,11.5-2.4c3.3-1.6,6-3.8,8-6.4c2-2.7,3.3-5.7,3.9-9.1c0.2-1.5,0.4-2.8,0.4-3.9c0-4.4-1.4-7.7-4.3-10.2
			c-2.9-2.5-7.2-3.7-12.8-3.7H1850L1840.7,56.4z M1867.2,27.2h-6.1l2.1-12.1h5.8c4.9,0,5.6,3,5.6,4.8c0,0.6,0,1-0.1,1.4l0,0
			C1873.8,25.2,1871.3,27.2,1867.2,27.2z M1863.5,25.2h3.7c3.1,0,4.8-1.3,5.3-4.2c0-0.3,0.1-0.6,0.1-1.1c0-1.4-0.4-2.8-3.6-2.8h-4.1
			L1863.5,25.2z"/>
		<path class="st0" d="M1918.6,59c-5.5,0-10.4-1.1-14.3-3.2c-4-2.1-7.1-5.1-9.2-9c-2.1-3.8-3.1-8.3-3.1-13.3c0-2.6,0.2-5,0.6-7.2
			c0.9-5,2.8-9.6,5.6-13.5c2.8-3.9,6.5-7,10.9-9.2c4.4-2.2,9.4-3.3,14.9-3.3c5.4,0,10.1,1.1,14.1,3.2l0,0c4,2.1,7.1,5.2,9.2,9.1
			c2.1,3.9,3.2,8.4,3.2,13.4c0,2.1-0.2,4.4-0.6,6.9c-0.9,5.1-2.8,9.6-5.6,13.6c-2.8,3.9-6.4,7.1-10.8,9.2
			C1929.1,57.8,1924.1,59,1918.6,59z M1923.9,2.3c-5.2,0-9.9,1-14,3.1c-4.1,2-7.5,4.9-10.1,8.6c-2.6,3.7-4.4,7.9-5.2,12.7
			c-0.4,2.1-0.6,4.4-0.6,6.8c0,4.7,1,8.9,2.9,12.4c1.9,3.5,4.7,6.2,8.4,8.2c3.7,1.9,8.2,2.9,13.4,2.9c5.2,0,9.9-1,13.9-3.1
			c4.1-2,7.4-4.9,10-8.6c2.6-3.7,4.4-8,5.2-12.7c0.4-2.4,0.6-4.6,0.6-6.6c0-4.7-1-8.9-2.9-12.4c-1.9-3.5-4.8-6.3-8.4-8.2l0,0
			C1933.4,3.3,1928.9,2.3,1923.9,2.3z M1919.8,42.8c-3.5,0-6.2-1-8-2.9c-1.8-1.9-2.7-4.5-2.7-7.8c0-1.3,0.1-2.5,0.3-3.6
			c0.7-3.8,2.1-6.8,4.4-9l0,0c2.3-2.2,5.3-3.4,8.8-3.4c3.4,0,6.1,1,7.9,2.8c1.8,1.9,2.7,4.5,2.7,7.8c0,1.2-0.1,2.5-0.3,3.6
			c-0.6,3.7-2.1,6.7-4.4,8.9C1926.3,41.7,1923.3,42.8,1919.8,42.8z M1922.6,18.2c-3,0-5.5,0.9-7.4,2.8l0,0c-2,1.9-3.3,4.6-3.8,7.9
			c-0.2,1-0.3,2-0.3,3.2c0,2.7,0.7,4.9,2.2,6.4c1.4,1.5,3.6,2.3,6.6,2.3c3,0,5.4-0.9,7.4-2.8c2-1.9,3.3-4.5,3.8-7.8
			c0.2-1.1,0.3-2.1,0.3-3.3c0-2.8-0.7-4.9-2.2-6.4C1927.7,19,1925.5,18.2,1922.6,18.2z"/>
		<path class="st0" d="M1998.6,58.4h-21.2l-6-16.9l-2.9,16.9h-19.4l10-57.2h26.6c6.1,0,10.9,1.4,14.2,4.3h0c3.3,2.9,5,6.7,5,11.4
			c0,1.3-0.1,2.5-0.3,3.6c-0.7,3.9-2.4,7.4-5.1,10.3c-2.5,2.7-5.6,4.7-9.4,6.1L1998.6,58.4z M1978.8,56.4h16.8l-8.2-20.8l1-0.3
			c3.9-1.2,7.1-3.2,9.5-5.8c2.4-2.7,4-5.8,4.6-9.4c0.2-1,0.3-2.1,0.3-3.3c0-4.2-1.4-7.4-4.3-9.9c-2.9-2.5-7.2-3.8-12.9-3.8h-24.9
			l-9.3,53.2h15.3l3.9-22.8L1978.8,56.4z M1979.9,27.1h-8.1l2.1-11.4h7.7c1.7,0,3,0.4,3.8,1.2c0.9,0.8,1.4,2,1.4,3.4
			c0,0.5,0,0.9-0.1,1.2C1986.2,25.1,1983.8,27.1,1979.9,27.1z M1974.3,25h5.7c2.9,0,4.4-1.2,4.9-3.8c0-0.2,0.1-0.4,0.1-0.8
			c0-0.9-0.2-1.5-0.7-2c-0.5-0.5-1.3-0.7-2.5-0.7h-6L1974.3,25z"/>
		<path class="st0" d="M2032.1,58.4h-19.4l7.3-41.5h-14.5l2.8-15.7h48.5l-2.8,15.7h-14.7L2032.1,58.4z M2015.1,56.4h15.3l7.3-41.5
			h14.7l2.1-11.7H2010l-2.1,11.7h14.5L2015.1,56.4z"/>
		<path class="st0" d="M2068.8,58.4h-19.4l10-57.2h41l-2.8,15.7H2076l-1,5.6h15.6l-2.6,15h-15.6L2068.8,58.4z M2051.8,56.4h15.3
			l3.7-20.8h15.6l1.9-11h-15.6l1.7-9.7h21.7l2.1-11.7h-36.9L2051.8,56.4z"/>
		<path class="st0" d="M2123.9,59c-5.5,0-10.4-1.1-14.3-3.2c-4-2.1-7.1-5.1-9.2-9c-2.1-3.8-3.1-8.3-3.1-13.3c0-2.6,0.2-5,0.6-7.2
			c0.9-5,2.8-9.6,5.6-13.5c2.8-3.9,6.5-7,10.9-9.2c4.4-2.2,9.4-3.3,14.9-3.3c5.4,0,10.1,1.1,14.1,3.2l0,0c4,2.1,7.1,5.2,9.2,9.1
			c2.1,3.9,3.2,8.4,3.2,13.4c0,2.1-0.2,4.4-0.6,7c-0.9,5.1-2.8,9.6-5.6,13.6c-2.8,3.9-6.4,7.1-10.8,9.2
			C2134.4,57.8,2129.4,59,2123.9,59z M2129.2,2.3c-5.2,0-9.9,1-14,3.1c-4.1,2-7.5,4.9-10.1,8.6c-2.6,3.7-4.4,7.9-5.2,12.7
			c-0.4,2.1-0.6,4.4-0.6,6.8c0,4.7,1,8.9,2.9,12.4c1.9,3.5,4.7,6.2,8.4,8.2c3.7,1.9,8.2,2.9,13.4,2.9c5.2,0,9.9-1,13.9-3.1
			c4.1-2,7.4-4.9,10-8.6c2.6-3.7,4.4-8,5.2-12.7c0.4-2.4,0.6-4.6,0.6-6.6c0-4.7-1-8.9-2.9-12.4c-1.9-3.5-4.8-6.3-8.4-8.2l0,0
			C2138.7,3.3,2134.3,2.3,2129.2,2.3z M2125.1,42.8c-3.5,0-6.2-1-8-2.9c-1.8-1.9-2.7-4.5-2.7-7.8c0-1.3,0.1-2.5,0.3-3.6
			c0.7-3.8,2.1-6.8,4.4-9l0,0c2.3-2.2,5.3-3.4,8.8-3.4c3.4,0,6.1,1,7.9,2.8c1.8,1.9,2.7,4.5,2.7,7.8c0,1.2-0.1,2.5-0.3,3.6
			c-0.6,3.7-2.1,6.7-4.4,8.9C2131.6,41.7,2128.6,42.8,2125.1,42.8z M2120.5,21L2120.5,21c-2,1.9-3.3,4.6-3.8,7.9
			c-0.2,1-0.3,2.1-0.3,3.2c0,2.7,0.7,4.9,2.2,6.4c1.4,1.5,3.6,2.3,6.6,2.3c3,0,5.4-0.9,7.4-2.8c2-1.9,3.3-4.5,3.8-7.8
			c0.2-1.1,0.3-2.1,0.3-3.3c0-2.8-0.7-4.9-2.2-6.4c-1.4-1.5-3.6-2.2-6.5-2.2C2124.9,18.2,2122.5,19.2,2120.5,21z"/>
		<path class="st0" d="M2190.5,58.4h-36l10-57.2h19.4l-7.4,42.1h16.7L2190.5,58.4z M2156.8,56.4h32l1.9-11.1H2174l7.4-42.1h-15.3
			L2156.8,56.4z"/>
		<path class="st0" d="M2213.2,58.4h-19.4l10-57.2h19.4L2213.2,58.4z M2196.3,56.4h15.3l9.3-53.2h-15.3L2196.3,56.4z"/>
		<path class="st0" d="M2248.7,59c-5.5,0-10.4-1.1-14.3-3.2c-4-2.1-7.1-5.1-9.2-9c-2.1-3.8-3.1-8.3-3.1-13.3c0-2.6,0.2-5,0.6-7.2
			c0.9-5,2.8-9.6,5.6-13.5c2.8-3.9,6.5-7,10.9-9.2c4.4-2.2,9.4-3.3,14.9-3.3c5.4,0,10.1,1.1,14.1,3.2h0c4,2.1,7.1,5.2,9.2,9.1
			c2.1,3.8,3.2,8.4,3.2,13.4c0,2.1-0.2,4.4-0.6,6.9c-0.9,5.1-2.8,9.6-5.6,13.6c-2.8,3.9-6.4,7.1-10.8,9.2
			C2259.1,57.8,2254.1,59,2248.7,59z M2254,2.3c-5.2,0-9.9,1-14,3.1c-4.1,2-7.5,4.9-10.1,8.6c-2.6,3.7-4.4,7.9-5.2,12.7
			c-0.4,2.1-0.6,4.4-0.6,6.8c0,4.7,1,8.9,2.9,12.4c1.9,3.5,4.7,6.2,8.4,8.2c3.7,1.9,8.2,2.9,13.4,2.9c5.2,0,9.9-1,13.9-3.1
			c4.1-2,7.4-4.9,10-8.6c2.6-3.7,4.4-8,5.2-12.7c0.4-2.4,0.6-4.6,0.6-6.6c0-4.7-1-8.9-2.9-12.4c-1.9-3.5-4.8-6.3-8.4-8.3l0,0
			C2263.5,3.3,2259,2.3,2254,2.3z M2249.9,42.8c-3.5,0-6.2-1-8-2.9c-1.8-1.9-2.7-4.5-2.7-7.8c0-1.3,0.1-2.4,0.3-3.5
			c0.7-3.8,2.1-6.8,4.4-9l0,0c2.3-2.2,5.3-3.4,8.8-3.4c3.4,0,6.1,1,7.9,2.8c1.8,1.9,2.7,4.5,2.7,7.8c0,1.3-0.1,2.5-0.3,3.6
			c-0.6,3.7-2.1,6.7-4.4,8.9C2256.3,41.7,2253.4,42.8,2249.9,42.8z M2245.3,21c-2,1.9-3.3,4.6-3.8,7.9c-0.2,1-0.3,2.1-0.3,3.2
			c0,2.7,0.7,4.9,2.2,6.4c1.4,1.5,3.6,2.3,6.6,2.3c3,0,5.4-0.9,7.4-2.8c2-1.9,3.3-4.5,3.8-7.8c0.2-1.1,0.3-2.1,0.3-3.3
			c0-2.8-0.7-4.9-2.2-6.4c-1.4-1.5-3.6-2.2-6.5-2.2C2249.7,18.2,2247.3,19.2,2245.3,21L2245.3,21z"/>
	</g>
	<g>
		<path class="st0" d="M2319.4,39.9l-3,17.5h-17.3l9.7-55.2h24.2c5.9,0,10.4,1.3,13.5,4c3.1,2.7,4.6,6.3,4.6,10.9
			c0,1.1-0.1,2.5-0.4,4.1c-0.6,3.5-2,6.6-4.1,9.5c-2.1,2.8-4.9,5.1-8.3,6.7c-3.5,1.7-7.4,2.5-11.9,2.5H2319.4z M2333.1,21.1
			c0.1-0.3,0.1-0.7,0.1-1.2c0-2.5-1.5-3.8-4.6-3.8h-4.9l-1.8,10.1h4.9C2330.4,26.2,2332.5,24.5,2333.1,21.1z"/>
		<path class="st0" d="M2397.1,4.3c3.8,2.1,6.8,4.9,8.8,8.7c2,3.7,3,8,3,12.9c0,2-0.2,4.3-0.6,6.8c-0.9,4.9-2.7,9.3-5.4,13.1
			c-2.7,3.8-6.2,6.8-10.4,8.9c-4.2,2.1-9,3.2-14.4,3.2c-5.4,0-10-1-13.9-3c-3.8-2-6.8-4.9-8.8-8.6c-2-3.7-3-8-3-12.9
			c0-2.5,0.2-4.9,0.6-7c0.9-4.9,2.7-9.3,5.4-13.1c2.7-3.8,6.2-6.8,10.5-8.9c4.3-2.1,9.1-3.2,14.4-3.2
			C2388.7,1.3,2393.3,2.3,2397.1,4.3z M2374.1,20.3c-2.1,2.1-3.5,4.9-4.1,8.5c-0.2,1-0.3,2.2-0.3,3.4c0,3,0.8,5.4,2.5,7.1
			c1.6,1.7,4.1,2.6,7.3,2.6c3.2,0,5.9-1,8.1-3.1c2.2-2.1,3.5-4.9,4.1-8.3c0.2-1.1,0.3-2.2,0.3-3.4c0-3.1-0.8-5.4-2.5-7.1
			c-1.6-1.7-4-2.5-7.2-2.5C2378.9,17.2,2376.2,18.3,2374.1,20.3z"/>
		<path class="st0" d="M2458.8,6.2c3.1,2.7,4.6,6.2,4.6,10.6c0,1.2-0.1,2.4-0.3,3.4c-0.7,3.7-2.3,7-4.9,9.9
			c-2.6,2.8-5.9,4.9-9.9,6.1l8.3,21.1h-19l-7-19.8l-3.4,19.8h-17.3l9.7-55.2h25.7C2451.2,2.2,2455.7,3.5,2458.8,6.2z M2432.7,26.1
			h6.9c3.4,0,5.3-1.6,5.8-4.7c0.1-0.3,0.1-0.6,0.1-1c0-1.1-0.4-2-1.1-2.7c-0.7-0.6-1.8-1-3.2-1h-6.9L2432.7,26.1z"/>
		<path class="st0" d="M2515.2,2.2l-2.4,13.7h-14.7l-7.3,41.5h-17.3l7.3-41.5h-14.5l2.4-13.7H2515.2z"/>
		<path class="st0" d="M2558.8,2.2l-2.4,13.7h-21.7l-1.3,7.6h15.6l-2.3,13h-15.6l-3.7,20.8h-17.3l9.7-55.2H2558.8z"/>
		<path class="st0" d="M2602.4,4.3c3.8,2.1,6.8,4.9,8.8,8.7c2,3.7,3,8,3,12.9c0,2-0.2,4.3-0.6,6.8c-0.9,4.9-2.7,9.3-5.4,13.1
			c-2.7,3.8-6.2,6.8-10.4,8.9c-4.2,2.1-9,3.2-14.4,3.2c-5.4,0-10-1-13.9-3c-3.8-2-6.8-4.9-8.8-8.6c-2-3.7-3-8-3-12.9
			c0-2.5,0.2-4.9,0.6-7c0.9-4.9,2.7-9.3,5.4-13.1c2.7-3.8,6.2-6.8,10.5-8.9c4.3-2.1,9.1-3.2,14.4-3.2
			C2594,1.3,2598.6,2.3,2602.4,4.3z M2579.4,20.3c-2.1,2.1-3.5,4.9-4.1,8.5c-0.2,1-0.3,2.2-0.3,3.4c0,3,0.8,5.4,2.5,7.1
			c1.6,1.7,4.1,2.6,7.3,2.6c3.2,0,5.9-1,8.1-3.1c2.2-2.1,3.5-4.9,4.1-8.3c0.2-1.1,0.3-2.2,0.3-3.4c0-3.1-0.8-5.4-2.5-7.1
			c-1.6-1.7-4-2.5-7.2-2.5C2584.3,17.2,2581.5,18.3,2579.4,20.3z"/>
		<path class="st0" d="M2634.8,44.3h16.7l-2.3,13.1h-34l9.7-55.2h17.3L2634.8,44.3z"/>
		<path class="st0" d="M2681.6,2.2l-9.7,55.2h-17.3l9.7-55.2H2681.6z"/>
		<path class="st0" d="M2727.2,4.3c3.8,2.1,6.8,4.9,8.8,8.7c2,3.7,3,8,3,12.9c0,2-0.2,4.3-0.6,6.8c-0.9,4.9-2.7,9.3-5.4,13.1
			c-2.7,3.8-6.2,6.8-10.4,8.9c-4.2,2.1-9,3.2-14.4,3.2c-5.4,0-10-1-13.9-3c-3.8-2-6.8-4.9-8.8-8.6c-2-3.7-3-8-3-12.9
			c0-2.5,0.2-4.9,0.6-7c0.9-4.9,2.7-9.3,5.4-13.1c2.7-3.8,6.2-6.8,10.5-8.9c4.3-2.1,9.1-3.2,14.4-3.2
			C2718.8,1.3,2723.3,2.3,2727.2,4.3z M2704.2,20.3c-2.1,2.1-3.5,4.9-4.1,8.5c-0.2,1-0.3,2.2-0.3,3.4c0,3,0.8,5.4,2.5,7.1
			c1.6,1.7,4.1,2.6,7.3,2.6c3.2,0,5.9-1,8.1-3.1c2.2-2.1,3.5-4.9,4.1-8.3c0.2-1.1,0.3-2.2,0.3-3.4c0-3.1-0.8-5.4-2.5-7.1
			c-1.6-1.7-4-2.5-7.2-2.5C2709,17.2,2706.3,18.3,2704.2,20.3z"/>
	</g>
	<g>
		<path class="st0" d="M2776.8,58.4h-19.4l10-57.2h25c6.1,0,10.9,1.4,14.1,4.2c3.3,2.8,4.9,6.8,4.9,11.7c0,1.2-0.1,2.6-0.4,4.2
			c-0.6,3.6-2.1,7-4.3,9.9c-2.2,3-5.1,5.3-8.7,7.1c-3.6,1.7-7.7,2.6-12.3,2.6h-6L2776.8,58.4z M2759.9,56.4h15.3l3-17.5h7.7
			c4.3,0,8.2-0.8,11.5-2.4c3.3-1.6,6-3.8,8-6.4c2-2.7,3.3-5.7,3.9-9.1c0.2-1.5,0.4-2.8,0.4-3.9c0-4.4-1.4-7.7-4.3-10.2
			c-2.9-2.5-7.2-3.7-12.8-3.7h-23.3L2759.9,56.4z M2786.3,27.2h-6.1l2.1-12.1h5.8c4.9,0,5.6,3,5.6,4.8c0,0.6,0,1-0.1,1.4l0,0
			C2792.9,25.2,2790.4,27.2,2786.3,27.2z M2782.6,25.2h3.7c3.1,0,4.8-1.3,5.3-4.2c0-0.3,0.1-0.6,0.1-1.1c0-1.4-0.4-2.8-3.6-2.8h-4.1
			L2782.6,25.2z"/>
		<path class="st0" d="M2837.7,59c-5.5,0-10.4-1.1-14.3-3.2c-4-2.1-7.1-5.1-9.2-9c-2.1-3.8-3.1-8.3-3.1-13.3c0-2.6,0.2-5,0.6-7.2
			c0.9-5,2.8-9.6,5.6-13.5c2.8-3.9,6.5-7,10.9-9.2c4.4-2.2,9.4-3.3,14.9-3.3c5.4,0,10.1,1.1,14.1,3.2h0c4,2.1,7.1,5.2,9.2,9.1
			c2.1,3.9,3.2,8.4,3.2,13.4c0,2.1-0.2,4.4-0.6,6.9c-0.9,5.1-2.8,9.6-5.6,13.6c-2.8,3.9-6.4,7.1-10.8,9.2
			C2848.2,57.8,2843.2,59,2837.7,59z M2843,2.3c-5.2,0-9.9,1-14,3.1c-4.1,2-7.5,4.9-10.1,8.6c-2.6,3.7-4.4,7.9-5.2,12.7
			c-0.4,2.1-0.6,4.4-0.6,6.8c0,4.7,1,8.9,2.9,12.4c1.9,3.5,4.7,6.2,8.4,8.2c3.7,1.9,8.2,2.9,13.4,2.9c5.2,0,9.9-1,13.9-3.1
			c4.1-2,7.4-4.9,10-8.6c2.6-3.7,4.4-8,5.2-12.7c0.4-2.4,0.6-4.6,0.6-6.6c0-4.7-1-8.9-2.9-12.4c-1.9-3.5-4.8-6.3-8.4-8.3l0,0
			C2852.5,3.3,2848.1,2.3,2843,2.3z M2839,42.8c-3.5,0-6.2-1-8-2.9c-1.8-1.9-2.7-4.5-2.7-7.8c0-1.3,0.1-2.5,0.3-3.6
			c0.7-3.8,2.1-6.8,4.4-9l0,0c2.3-2.2,5.3-3.4,8.8-3.4c3.4,0,6.1,1,7.9,2.8c1.8,1.9,2.7,4.5,2.7,7.8c0,1.2-0.1,2.5-0.3,3.6
			c-0.6,3.7-2.1,6.7-4.4,8.9C2845.4,41.7,2842.5,42.8,2839,42.8z M2841.8,18.2c-3,0-5.5,0.9-7.4,2.8l0,0c-2,1.9-3.3,4.6-3.8,7.9
			c-0.2,1-0.3,2.1-0.3,3.2c0,2.7,0.7,4.9,2.2,6.4c1.4,1.5,3.6,2.3,6.6,2.3c3,0,5.4-0.9,7.4-2.8c2-1.9,3.3-4.5,3.8-7.8
			c0.2-1.1,0.3-2.1,0.3-3.3c0-2.8-0.7-4.9-2.2-6.4C2846.8,19,2844.7,18.2,2841.8,18.2z"/>
		<path class="st0" d="M2917.7,58.4h-21.2l-6-16.9l-2.9,16.9h-19.4l10-57.2h26.6c6.1,0,10.9,1.4,14.2,4.3h0c3.3,2.9,5,6.7,5,11.4
			c0,1.3-0.1,2.5-0.3,3.6c-0.7,3.9-2.4,7.4-5.1,10.3c-2.5,2.7-5.6,4.7-9.4,6.1L2917.7,58.4z M2897.9,56.4h16.8l-8.2-20.8l1-0.3
			c3.9-1.2,7.1-3.2,9.5-5.8c2.4-2.7,4-5.8,4.6-9.4c0.2-1,0.3-2.1,0.3-3.3c0-4.2-1.4-7.4-4.3-9.9l0,0c-2.9-2.5-7.2-3.8-12.9-3.8H2880
			l-9.3,53.2h15.3l3.9-22.8L2897.9,56.4z M2899.1,27.1h-8.1l2.1-11.4h7.7c1.7,0,3,0.4,3.8,1.2c0.9,0.8,1.4,2,1.4,3.4
			c0,0.5,0,0.9-0.1,1.2C2905.3,25.1,2903,27.1,2899.1,27.1z M2893.4,25h5.7c2.9,0,4.4-1.2,4.9-3.8c0-0.2,0.1-0.4,0.1-0.8
			c0-0.9-0.2-1.5-0.7-2c-0.5-0.5-1.3-0.7-2.5-0.7h-6L2893.4,25z"/>
		<path class="st0" d="M2951.3,58.4h-19.4l7.3-41.5h-14.5l2.8-15.7h48.5l-2.8,15.7h-14.7L2951.3,58.4z M2934.3,56.4h15.3l7.3-41.5
			h14.7l2.1-11.7h-44.4l-2.1,11.7h14.5L2934.3,56.4z"/>
		<path class="st0" d="M2987.9,58.4h-19.4l10-57.2h41l-2.8,15.7h-21.7l-1,5.6h15.6l-2.6,15h-15.6L2987.9,58.4z M2970.9,56.4h15.3
			l3.7-20.8h15.6l1.9-11h-15.6l1.7-9.7h21.7l2.1-11.7h-36.9L2970.9,56.4z"/>
		<path class="st0" d="M3043.1,59c-5.5,0-10.4-1.1-14.3-3.2c-4-2.1-7.1-5.1-9.2-9c-2.1-3.8-3.1-8.3-3.1-13.3c0-2.6,0.2-5,0.6-7.2
			c0.9-5,2.8-9.6,5.6-13.5c2.8-3.9,6.5-7,10.9-9.2c4.4-2.2,9.4-3.3,14.9-3.3c5.4,0,10.1,1.1,14.1,3.2h0c4,2.1,7.1,5.2,9.2,9.1
			c2.1,3.9,3.2,8.4,3.2,13.4c0,2.1-0.2,4.4-0.6,6.9c-0.9,5.1-2.8,9.6-5.6,13.6c-2.8,3.9-6.4,7.1-10.8,9.2
			C3053.5,57.8,3048.5,59,3043.1,59z M3048.4,2.3c-5.2,0-9.9,1-14,3.1c-4.1,2-7.5,4.9-10.1,8.6c-2.6,3.7-4.4,7.9-5.2,12.7
			c-0.4,2.1-0.6,4.4-0.6,6.8c0,4.7,1,8.9,2.9,12.4c1.9,3.5,4.7,6.2,8.4,8.2c3.7,1.9,8.2,2.9,13.4,2.9c5.2,0,9.9-1,13.9-3.1
			c4.1-2,7.4-4.9,10-8.6c2.6-3.7,4.4-8,5.2-12.7c0.4-2.4,0.6-4.6,0.6-6.6c0-4.7-1-8.9-2.9-12.4c-1.9-3.5-4.8-6.3-8.4-8.3l0,0
			C3057.8,3.3,3053.4,2.3,3048.4,2.3z M3044.3,42.8c-3.5,0-6.2-1-8-2.9c-1.8-1.9-2.7-4.5-2.7-7.8c0-1.3,0.1-2.5,0.3-3.6
			c0.7-3.8,2.1-6.8,4.4-9l0,0c2.3-2.2,5.3-3.4,8.8-3.4c3.4,0,6.1,1,7.9,2.8c1.8,1.9,2.7,4.5,2.7,7.8c0,1.2-0.1,2.5-0.3,3.6
			c-0.6,3.7-2.1,6.7-4.4,8.9C3050.7,41.7,3047.8,42.8,3044.3,42.8z M3047.1,18.2c-3,0-5.5,0.9-7.4,2.8l0,0c-2,1.9-3.3,4.6-3.8,7.9
			c-0.2,1-0.3,2.1-0.3,3.2c0,2.7,0.7,4.9,2.2,6.4c1.4,1.5,3.6,2.3,6.6,2.3c3,0,5.4-0.9,7.4-2.8c2-1.9,3.3-4.5,3.8-7.8
			c0.2-1.1,0.3-2.1,0.3-3.3c0-2.8-0.7-4.9-2.2-6.4C3052.2,19,3050,18.2,3047.1,18.2z"/>
		<path class="st0" d="M3109.6,58.4h-36l10-57.2h19.4l-7.4,42.1h16.7L3109.6,58.4z M3076,56.4h32l1.9-11.1h-16.7l7.4-42.1h-15.3
			L3076,56.4z"/>
		<path class="st0" d="M3132.4,58.4H3113l10-57.2h19.4L3132.4,58.4z M3115.4,56.4h15.3l9.3-53.2h-15.3L3115.4,56.4z"/>
		<path class="st0" d="M3167.8,59c-5.5,0-10.4-1.1-14.3-3.2c-4-2.1-7.1-5.1-9.2-9c-2.1-3.8-3.1-8.3-3.1-13.3c0-2.6,0.2-5,0.6-7.2
			c0.9-5,2.8-9.6,5.6-13.5c2.8-3.9,6.5-7,10.9-9.2c4.4-2.2,9.4-3.3,14.9-3.3c5.4,0,10.1,1.1,14.1,3.2h0c4,2.1,7.1,5.2,9.2,9.1
			c2.1,3.8,3.2,8.4,3.2,13.4c0,2.1-0.2,4.4-0.6,6.9c-0.9,5.1-2.8,9.6-5.6,13.6c-2.8,3.9-6.4,7.1-10.8,9.2
			C3178.3,57.8,3173.3,59,3167.8,59z M3173.1,2.3c-5.2,0-9.9,1-14,3.1c-4.1,2-7.5,4.9-10.1,8.6c-2.6,3.7-4.4,7.9-5.2,12.7
			c-0.4,2.1-0.6,4.4-0.6,6.8c0,4.7,1,8.9,2.9,12.4c1.9,3.5,4.7,6.2,8.4,8.2c3.7,1.9,8.2,2.9,13.4,2.9c5.2,0,9.9-1,13.9-3.1
			c4.1-2,7.4-4.9,10-8.6c2.6-3.7,4.4-8,5.2-12.7c0.4-2.4,0.6-4.6,0.6-6.6c0-4.7-1-8.9-2.9-12.4c-1.9-3.5-4.8-6.3-8.4-8.3l0,0
			C3182.6,3.3,3178.2,2.3,3173.1,2.3z M3169.1,42.8c-3.5,0-6.2-1-8-2.9c-1.8-1.9-2.7-4.5-2.7-7.8c0-1.3,0.1-2.4,0.3-3.5
			c0.7-3.8,2.1-6.8,4.4-9v0c2.3-2.2,5.3-3.4,8.8-3.4c3.4,0,6.1,1,7.9,2.8c1.8,1.9,2.7,4.5,2.7,7.8c0,1.3-0.1,2.5-0.3,3.6
			c-0.6,3.7-2.1,6.7-4.4,8.9C3175.5,41.7,3172.5,42.8,3169.1,42.8z M3164.5,21c-2,1.9-3.3,4.6-3.8,7.9c-0.2,1-0.3,2.1-0.3,3.2
			c0,2.7,0.7,4.9,2.2,6.4c1.4,1.5,3.6,2.3,6.6,2.3c3,0,5.4-0.9,7.4-2.8c2-1.9,3.3-4.5,3.8-7.8c0.2-1,0.3-2.1,0.3-3.3
			c0-2.8-0.7-4.9-2.2-6.4c-1.4-1.5-3.6-2.2-6.5-2.2C3168.8,18.2,3166.4,19.2,3164.5,21L3164.5,21z"/>
	</g>
	<g>
		<g>
			<path class="st0" d="M3239,39.9l-3,17.5h-17.3l9.7-55.2h24.2c5.9,0,10.4,1.3,13.5,4c3.1,2.7,4.6,6.3,4.6,10.9
				c0,1.1-0.1,2.5-0.4,4.1c-0.6,3.5-2,6.6-4.1,9.5c-2.1,2.8-4.9,5.1-8.3,6.7c-3.5,1.7-7.4,2.5-11.9,2.5H3239z M3252.6,21.1
				c0.1-0.3,0.1-0.7,0.1-1.2c0-2.5-1.5-3.8-4.6-3.8h-4.9l-1.8,10.1h4.9C3249.9,26.2,3252,24.5,3252.6,21.1z"/>
			<path class="st0" d="M3316.6,4.3c3.8,2.1,6.8,4.9,8.8,8.7c2,3.7,3,8,3,12.9c0,2-0.2,4.3-0.6,6.8c-0.9,4.9-2.7,9.3-5.4,13.1
				c-2.7,3.8-6.2,6.8-10.4,8.9c-4.2,2.1-9,3.2-14.4,3.2c-5.4,0-10-1-13.9-3c-3.8-2-6.8-4.9-8.8-8.6c-2-3.7-3-8-3-12.9
				c0-2.5,0.2-4.9,0.6-7c0.9-4.9,2.7-9.3,5.4-13.1c2.7-3.8,6.2-6.8,10.5-8.9c4.3-2.1,9.1-3.2,14.4-3.2
				C3308.2,1.3,3312.8,2.3,3316.6,4.3z M3293.6,20.3c-2.1,2.1-3.5,4.9-4.1,8.5c-0.2,1-0.3,2.2-0.3,3.4c0,3,0.8,5.4,2.5,7.1
				c1.6,1.7,4.1,2.6,7.3,2.6c3.2,0,5.9-1,8.1-3.1c2.2-2.1,3.5-4.9,4.1-8.3c0.2-1.1,0.3-2.2,0.3-3.4c0-3.1-0.8-5.4-2.5-7.1
				c-1.6-1.7-4-2.5-7.2-2.5C3298.5,17.2,3295.8,18.3,3293.6,20.3z"/>
			<path class="st0" d="M3378.4,6.2c3.1,2.7,4.6,6.2,4.6,10.6c0,1.2-0.1,2.4-0.3,3.4c-0.7,3.7-2.3,7-4.9,9.9
				c-2.6,2.8-5.9,4.9-9.9,6.1l8.3,21.1h-19l-7-19.8l-3.4,19.8h-17.3l9.7-55.2h25.7C3370.8,2.2,3375.3,3.5,3378.4,6.2z M3352.2,26.1
				h6.9c3.4,0,5.3-1.6,5.8-4.7c0.1-0.3,0.1-0.6,0.1-1c0-1.1-0.4-2-1.1-2.7c-0.7-0.6-1.8-1-3.2-1h-6.9L3352.2,26.1z"/>
			<path class="st0" d="M3434.7,2.2l-2.4,13.7h-14.7l-7.3,41.5h-17.3l7.3-41.5h-14.5l2.4-13.7H3434.7z"/>
			<path class="st0" d="M3478.4,2.2l-2.4,13.7h-21.7l-1.3,7.6h15.6l-2.3,13h-15.6l-3.7,20.8h-17.3l9.7-55.2H3478.4z"/>
			<path class="st0" d="M3522,4.3c3.8,2.1,6.8,4.9,8.8,8.7c2,3.7,3,8,3,12.9c0,2-0.2,4.3-0.6,6.8c-0.9,4.9-2.7,9.3-5.4,13.1
				c-2.7,3.8-6.2,6.8-10.4,8.9c-4.2,2.1-9,3.2-14.4,3.2c-5.4,0-10-1-13.9-3c-3.8-2-6.8-4.9-8.8-8.6c-2-3.7-3-8-3-12.9
				c0-2.5,0.2-4.9,0.6-7c0.9-4.9,2.7-9.3,5.4-13.1c2.7-3.8,6.2-6.8,10.5-8.9c4.3-2.1,9.1-3.2,14.4-3.2
				C3513.6,1.3,3518.1,2.3,3522,4.3z M3499,20.3c-2.1,2.1-3.5,4.9-4.1,8.5c-0.2,1-0.3,2.2-0.3,3.4c0,3,0.8,5.4,2.5,7.1
				c1.6,1.7,4.1,2.6,7.3,2.6c3.2,0,5.9-1,8.1-3.1c2.2-2.1,3.5-4.9,4.1-8.3c0.2-1.1,0.3-2.2,0.3-3.4c0-3.1-0.8-5.4-2.5-7.1
				c-1.6-1.7-4-2.5-7.2-2.5C3503.8,17.2,3501.1,18.3,3499,20.3z"/>
			<path class="st0" d="M3554.3,44.3h16.7l-2.3,13.1h-34l9.7-55.2h17.3L3554.3,44.3z"/>
			<path class="st0" d="M3601.2,2.2l-9.7,55.2h-17.3l9.7-55.2H3601.2z"/>
			<path class="st0" d="M3646.7,4.3c3.8,2.1,6.8,4.9,8.8,8.7c2,3.7,3,8,3,12.9c0,2-0.2,4.3-0.6,6.8c-0.9,4.9-2.7,9.3-5.4,13.1
				c-2.7,3.8-6.2,6.8-10.4,8.9c-4.2,2.1-9,3.2-14.4,3.2c-5.4,0-10-1-13.9-3c-3.8-2-6.8-4.9-8.8-8.6c-2-3.7-3-8-3-12.9
				c0-2.5,0.2-4.9,0.6-7c0.9-4.9,2.7-9.3,5.4-13.1c2.7-3.8,6.2-6.8,10.5-8.9c4.3-2.1,9.1-3.2,14.4-3.2
				C3638.3,1.3,3642.9,2.3,3646.7,4.3z M3623.7,20.3c-2.1,2.1-3.5,4.9-4.1,8.5c-0.2,1-0.3,2.2-0.3,3.4c0,3,0.8,5.4,2.5,7.1
				c1.6,1.7,4.1,2.6,7.3,2.6c3.2,0,5.9-1,8.1-3.1c2.2-2.1,3.5-4.9,4.1-8.3c0.2-1.1,0.3-2.2,0.3-3.4c0-3.1-0.8-5.4-2.5-7.1
				c-1.6-1.7-4-2.5-7.2-2.5C3628.6,17.2,3625.9,18.3,3623.7,20.3z"/>
		</g>
	</g>
</g>
</svg>
