<?xml version="1.0" encoding="utf-8"?>
<!-- Generator: Adobe Illustrator 26.3.1, SVG Export Plug-In . SVG Version: 6.00 Build 0)  -->
<svg version="1.1" id="Layer_2_00000092450137695428183450000002400346071365161867_"
	 xmlns="http://www.w3.org/2000/svg" xmlns:xlink="http://www.w3.org/1999/xlink" x="0px" y="0px" viewBox="0 0 3681 59.2"
	 style="enable-background:new 0 0 3681 59.2;" xml:space="preserve">
<style type="text/css">
	.st0{fill:#FACB32;}
</style>
<g>
	<g>
		<path class="st0" d="M20.4,39.9l-3,17.5H0L9.7,2.2h24.2c5.9,0,10.4,1.3,13.5,4c3.1,2.7,4.6,6.3,4.6,10.9c0,1.1-0.1,2.5-0.4,4.1
			c-0.6,3.5-2,6.6-4.1,9.5c-2.1,2.8-4.9,5.1-8.3,6.7c-3.5,1.7-7.4,2.5-11.9,2.5H20.4z M34,21.1c0.1-0.3,0.1-0.7,0.1-1.2
			c0-2.5-1.5-3.8-4.6-3.8h-4.9l-1.8,10.1h4.9C31.3,26.2,33.4,24.5,34,21.1z"/>
		<path class="st0" d="M98,4.3c3.8,2.1,6.8,4.9,8.8,8.7c2,3.7,3,8,3,12.9c0,2-0.2,4.3-0.6,6.8c-0.9,4.9-2.7,9.3-5.4,13.1
			c-2.7,3.8-6.2,6.8-10.4,8.9c-4.2,2.1-9,3.2-14.4,3.2c-5.4,0-10-1-13.9-3c-3.8-2-6.8-4.9-8.8-8.6c-2-3.7-3-8-3-12.9
			c0-2.5,0.2-4.9,0.6-7c0.9-4.9,2.7-9.3,5.4-13.1c2.7-3.8,6.2-6.8,10.5-8.9c4.3-2.1,9.1-3.2,14.4-3.2C89.6,1.3,94.2,2.3,98,4.3z
			 M75,20.3c-2.1,2.1-3.5,4.9-4.1,8.5c-0.2,1-0.3,2.2-0.3,3.4c0,3,0.8,5.4,2.5,7.1c1.6,1.7,4.1,2.6,7.3,2.6c3.2,0,5.9-1,8.1-3.1
			c2.2-2.1,3.5-4.9,4.1-8.3c0.2-1.1,0.3-2.2,0.3-3.4c0-3.1-0.8-5.4-2.5-7.1c-1.6-1.7-4-2.5-7.2-2.5C79.9,17.2,77.1,18.3,75,20.3z"/>
		<path class="st0" d="M159.7,6.2c3.1,2.7,4.6,6.2,4.6,10.6c0,1.2-0.1,2.4-0.3,3.4c-0.7,3.7-2.3,7-4.9,9.9c-2.6,2.8-5.9,4.9-9.9,6.1
			l8.3,21.1h-19l-7-19.8l-3.4,19.8h-17.3l9.7-55.2h25.7C152.1,2.2,156.6,3.5,159.7,6.2z M133.6,26.1h6.9c3.4,0,5.3-1.6,5.8-4.7
			c0.1-0.3,0.1-0.6,0.1-1c0-1.1-0.4-2-1.1-2.7c-0.7-0.6-1.8-1-3.2-1h-6.9L133.6,26.1z"/>
		<path class="st0" d="M216.1,2.2l-2.4,13.7H199l-7.3,41.5h-17.3l7.3-41.5h-14.5l2.4-13.7H216.1z"/>
		<path class="st0" d="M259.7,2.2l-2.4,13.7h-21.7l-1.3,7.6h15.6l-2.3,13h-15.6l-3.7,20.8h-17.3l9.7-55.2H259.7z"/>
		<path class="st0" d="M303.3,4.3c3.8,2.1,6.8,4.9,8.8,8.7c2,3.7,3,8,3,12.9c0,2-0.2,4.3-0.6,6.8c-0.9,4.9-2.7,9.3-5.4,13.1
			c-2.7,3.8-6.2,6.8-10.4,8.9c-4.2,2.1-9,3.2-14.4,3.2c-5.4,0-10-1-13.9-3c-3.8-2-6.8-4.9-8.8-8.6c-2-3.7-3-8-3-12.9
			c0-2.5,0.2-4.9,0.6-7c0.9-4.9,2.7-9.3,5.4-13.1c2.7-3.8,6.2-6.8,10.5-8.9c4.3-2.1,9.1-3.2,14.4-3.2C294.9,1.3,299.5,2.3,303.3,4.3
			z M280.3,20.3c-2.1,2.1-3.5,4.9-4.1,8.5c-0.2,1-0.3,2.2-0.3,3.4c0,3,0.8,5.4,2.5,7.1c1.6,1.7,4.1,2.6,7.3,2.6c3.2,0,5.9-1,8.1-3.1
			c2.2-2.1,3.5-4.9,4.1-8.3c0.2-1.1,0.3-2.2,0.3-3.4c0-3.1-0.8-5.4-2.5-7.1c-1.6-1.7-4-2.5-7.2-2.5
			C285.2,17.2,282.5,18.3,280.3,20.3z"/>
		<path class="st0" d="M335.7,44.3h16.7l-2.3,13.1h-34l9.7-55.2h17.3L335.7,44.3z"/>
		<path class="st0" d="M382.6,2.2l-9.7,55.2h-17.3l9.7-55.2H382.6z"/>
		<path class="st0" d="M428.1,4.3c3.8,2.1,6.8,4.9,8.8,8.7c2,3.7,3,8,3,12.9c0,2-0.2,4.3-0.6,6.8c-0.9,4.9-2.7,9.3-5.4,13.1
			c-2.7,3.8-6.2,6.8-10.4,8.9c-4.2,2.1-9,3.2-14.4,3.2c-5.4,0-10-1-13.9-3c-3.8-2-6.8-4.9-8.8-8.6c-2-3.7-3-8-3-12.9
			c0-2.5,0.2-4.9,0.6-7c0.9-4.9,2.7-9.3,5.4-13.1c2.7-3.8,6.2-6.8,10.5-8.9c4.3-2.1,9.1-3.2,14.4-3.2C419.7,1.3,424.3,2.3,428.1,4.3
			z M405.1,20.3c-2.1,2.1-3.5,4.9-4.1,8.5c-0.2,1-0.3,2.2-0.3,3.4c0,3,0.8,5.4,2.5,7.1c1.6,1.7,4.1,2.6,7.3,2.6c3.2,0,5.9-1,8.1-3.1
			c2.2-2.1,3.5-4.9,4.1-8.3c0.2-1.1,0.3-2.2,0.3-3.4c0-3.1-0.8-5.4-2.5-7.1c-1.6-1.7-4-2.5-7.2-2.5
			C409.9,17.2,407.2,18.3,405.1,20.3z"/>
	</g>
	<g>
		<path class="st0" d="M477.7,58.4h-19.4l10-57.2h25c6.1,0,10.9,1.4,14.1,4.2c3.3,2.8,4.9,6.8,4.9,11.7c0,1.2-0.1,2.6-0.4,4.2
			c-0.7,3.6-2.1,7-4.3,9.9c-2.2,3-5.1,5.3-8.7,7.1c-3.6,1.7-7.7,2.6-12.3,2.6h-6L477.7,58.4z M460.8,56.4H476l3-17.5h7.7
			c4.3,0,8.2-0.8,11.5-2.4c3.3-1.6,6-3.8,8-6.4c2-2.7,3.3-5.7,3.9-9.1c0.2-1.5,0.4-2.8,0.4-3.9c0-4.4-1.4-7.7-4.3-10.2
			c-2.9-2.5-7.2-3.7-12.8-3.7h-23.3L460.8,56.4z M487.3,27.2h-6.1l2.1-12.1h5.8c4.9,0,5.6,3,5.6,4.8c0,0.6,0,1-0.1,1.4l0,0
			C493.9,25.2,491.3,27.2,487.3,27.2z M483.5,25.2h3.7c3.1,0,4.8-1.3,5.3-4.2c0-0.3,0.1-0.6,0.1-1.1c0-1.4-0.4-2.8-3.6-2.8H485
			L483.5,25.2z"/>
		<path class="st0" d="M538.6,59c-5.5,0-10.4-1.1-14.3-3.2c-4-2.1-7.1-5.1-9.2-9C513,43,512,38.5,512,33.5c0-2.6,0.2-5,0.6-7.2
			c0.9-5,2.8-9.6,5.6-13.5c2.8-3.9,6.5-7,10.9-9.2c4.4-2.2,9.4-3.3,14.9-3.3c5.4,0,10.1,1.1,14.1,3.2l0,0c4,2.1,7.1,5.2,9.2,9.1
			c2.1,3.8,3.2,8.4,3.2,13.4c0,2.1-0.2,4.4-0.6,6.9c-0.9,5.1-2.8,9.6-5.6,13.6c-2.8,3.9-6.4,7.1-10.8,9.2
			C549.1,57.8,544.1,59,538.6,59z M544,2.3c-5.2,0-9.9,1-14,3.1c-4.1,2-7.5,4.9-10.1,8.6c-2.6,3.7-4.4,7.9-5.2,12.7
			c-0.4,2.1-0.6,4.4-0.6,6.8c0,4.7,1,8.9,2.9,12.4c1.9,3.5,4.7,6.2,8.4,8.2c3.7,1.9,8.2,2.9,13.4,2.9c5.2,0,9.9-1,13.9-3.1
			c4.1-2,7.4-4.9,10-8.6c2.6-3.7,4.4-8,5.2-12.7c0.4-2.4,0.6-4.6,0.6-6.6c0-4.7-1-8.9-2.9-12.4c-1.9-3.5-4.7-6.3-8.4-8.3l0,0
			C553.4,3.3,549,2.3,544,2.3z M539.9,42.8c-3.5,0-6.2-1-8-2.9c-1.8-1.9-2.7-4.5-2.7-7.8c0-1.3,0.1-2.5,0.3-3.5
			c0.7-3.8,2.1-6.8,4.4-9l0,0c2.3-2.2,5.3-3.4,8.8-3.4c3.4,0,6.1,1,7.9,2.8c1.8,1.9,2.7,4.5,2.7,7.8c0,1.2-0.1,2.5-0.3,3.6
			c-0.6,3.7-2.1,6.7-4.4,8.9C546.3,41.7,543.4,42.8,539.9,42.8z M535.3,21c-2,1.9-3.3,4.6-3.8,7.9c-0.2,1-0.3,2.1-0.3,3.2
			c0,2.7,0.7,4.9,2.2,6.4c1.4,1.5,3.6,2.3,6.6,2.3c3,0,5.4-0.9,7.4-2.8c2-1.9,3.3-4.5,3.8-7.8c0.2-1.1,0.3-2.1,0.3-3.3
			c0-2.8-0.7-4.9-2.2-6.4c-1.4-1.5-3.6-2.2-6.5-2.2C539.7,18.2,537.2,19.2,535.3,21L535.3,21z"/>
		<path class="st0" d="M618.6,58.4h-21.2l-6-16.9l-2.9,16.9h-19.4l10-57.2h26.6c6.1,0,10.9,1.4,14.2,4.3l0,0c3.3,2.9,5,6.7,5,11.4
			c0,1.3-0.1,2.5-0.3,3.6c-0.7,3.9-2.4,7.4-5.1,10.3c-2.5,2.7-5.6,4.7-9.4,6.1L618.6,58.4z M598.9,56.4h16.8l-8.2-20.8l1-0.3
			c3.9-1.2,7.1-3.2,9.5-5.8c2.4-2.7,4-5.8,4.6-9.4c0.2-1,0.3-2.1,0.3-3.3c0-4.1-1.4-7.4-4.3-9.9l0,0c-2.9-2.5-7.2-3.8-12.9-3.8
			h-24.9l-9.3,53.2h15.3l3.9-22.8L598.9,56.4z M600,27.1h-8.1l2.1-11.4h7.7c1.7,0,3,0.4,3.8,1.2c0.9,0.8,1.4,2,1.4,3.4
			c0,0.5,0,0.9-0.1,1.2C606.3,25.1,603.9,27.1,600,27.1z M594.4,25h5.7c2.9,0,4.4-1.2,4.9-3.8c0-0.2,0.1-0.4,0.1-0.8
			c0-0.9-0.2-1.5-0.7-2c-0.5-0.5-1.3-0.7-2.5-0.7h-6L594.4,25z"/>
		<path class="st0" d="M652.2,58.4h-19.4l7.3-41.5h-14.5l2.8-15.7h48.5l-2.8,15.7h-14.7L652.2,58.4z M635.2,56.4h15.3l7.3-41.5h14.7
			l2.1-11.7H630L628,14.9h14.5L635.2,56.4z"/>
		<path class="st0" d="M688.8,58.4h-19.4l10-57.2h41l-2.8,15.7h-21.7l-1,5.6h15.6l-2.6,15h-15.6L688.8,58.4z M671.9,56.4h15.3
			l3.7-20.8h15.6l1.9-11h-15.6l1.7-9.7h21.7l2.1-11.7h-36.9L671.9,56.4z"/>
		<path class="st0" d="M744,59c-5.5,0-10.4-1.1-14.3-3.2c-4-2.1-7.1-5.1-9.2-9c-2.1-3.8-3.1-8.3-3.1-13.3c0-2.6,0.2-5,0.6-7.2
			c0.9-5,2.8-9.6,5.6-13.5c2.8-3.9,6.5-7,10.9-9.2c4.4-2.2,9.4-3.3,14.9-3.3c5.4,0,10.1,1.1,14.1,3.2l0,0c4,2.1,7.1,5.2,9.2,9.1
			c2.1,3.8,3.2,8.4,3.2,13.4c0,2.1-0.2,4.4-0.6,6.9c-0.9,5.1-2.8,9.6-5.6,13.6c-2.8,3.9-6.4,7.1-10.8,9.2
			C754.4,57.8,749.5,59,744,59z M749.3,2.3c-5.2,0-9.9,1-14,3.1c-4.1,2-7.5,4.9-10.1,8.6c-2.6,3.7-4.4,7.9-5.2,12.7
			c-0.4,2.1-0.6,4.4-0.6,6.8c0,4.7,1,8.9,2.9,12.4c1.9,3.5,4.7,6.2,8.4,8.2c3.7,1.9,8.2,2.9,13.4,2.9c5.2,0,9.9-1,13.9-3.1
			c4.1-2,7.4-4.9,10-8.6c2.6-3.7,4.4-8,5.2-12.7c0.4-2.4,0.6-4.6,0.6-6.6c0-4.7-1-8.9-2.9-12.4c-1.9-3.5-4.7-6.3-8.4-8.3l0,0
			C758.8,3.3,754.3,2.3,749.3,2.3z M745.2,42.8c-3.5,0-6.2-1-8-2.9c-1.8-1.9-2.7-4.5-2.7-7.8c0-1.3,0.1-2.5,0.3-3.5
			c0.7-3.8,2.1-6.8,4.4-9l0,0c2.3-2.2,5.3-3.4,8.8-3.4c3.4,0,6.1,1,7.9,2.8c1.8,1.9,2.7,4.5,2.7,7.8c0,1.2-0.1,2.5-0.3,3.6
			c-0.6,3.7-2.1,6.7-4.4,8.9C751.6,41.7,748.7,42.8,745.2,42.8z M748,18.2c-3,0-5.5,0.9-7.4,2.8l0,0c-2,1.9-3.3,4.6-3.8,7.9
			c-0.2,1-0.3,2.1-0.3,3.2c0,2.7,0.7,4.9,2.2,6.4c1.4,1.5,3.6,2.3,6.6,2.3c3,0,5.4-0.9,7.4-2.8c2-1.9,3.3-4.5,3.8-7.8
			c0.2-1.1,0.3-2.1,0.3-3.3c0-2.8-0.7-4.9-2.2-6.4C753.1,19,750.9,18.2,748,18.2z"/>
		<path class="st0" d="M810.6,58.4h-36l10-57.2h19.4l-7.4,42.1h16.7L810.6,58.4z M776.9,56.4h32l1.9-11.1h-16.7l7.4-42.1h-15.3
			L776.9,56.4z"/>
		<path class="st0" d="M833.3,58.4H814l10-57.2h19.4L833.3,58.4z M816.4,56.4h15.3l9.3-53.2h-15.3L816.4,56.4z"/>
		<path class="st0" d="M868.7,59c-5.5,0-10.4-1.1-14.3-3.2c-4-2.1-7.1-5.1-9.2-9c-2.1-3.8-3.1-8.3-3.1-13.3c0-2.6,0.2-5,0.6-7.2
			c0.9-5,2.8-9.6,5.6-13.5c2.8-3.9,6.5-7,10.9-9.2c4.4-2.2,9.4-3.3,14.9-3.3c5.4,0,10.1,1.1,14.1,3.2l0,0c4,2.1,7.1,5.2,9.2,9.1
			c2.1,3.8,3.2,8.4,3.2,13.4c0,2.1-0.2,4.4-0.6,6.9c-0.9,5.1-2.8,9.6-5.6,13.6c-2.8,3.9-6.4,7.1-10.8,9.2
			C879.2,57.8,874.2,59,868.7,59z M874,2.3c-5.2,0-9.9,1-14,3.1c-4.1,2-7.5,4.9-10.1,8.6c-2.6,3.7-4.4,7.9-5.2,12.7
			c-0.4,2.1-0.6,4.4-0.6,6.8c0,4.7,1,8.9,2.9,12.4c1.9,3.5,4.7,6.2,8.4,8.2c3.7,1.9,8.2,2.9,13.4,2.9c5.2,0,9.9-1,13.9-3.1
			c4.1-2,7.4-4.9,10-8.6c2.6-3.7,4.4-8,5.2-12.7c0.4-2.4,0.6-4.6,0.6-6.6c0-4.7-1-8.9-2.9-12.4c-1.9-3.5-4.7-6.3-8.4-8.3
			C883.5,3.3,879.1,2.3,874,2.3z M870,42.8c-3.5,0-6.2-1-8-2.9c-1.8-1.9-2.7-4.5-2.7-7.8c0-1.3,0.1-2.5,0.3-3.5
			c0.7-3.8,2.1-6.8,4.4-9l0,0c2.3-2.2,5.3-3.4,8.8-3.4c3.4,0,6.1,1,7.9,2.8c1.8,1.9,2.7,4.5,2.7,7.8c0,1.2-0.1,2.5-0.3,3.6
			c-0.6,3.7-2.1,6.7-4.4,8.9C876.4,41.7,873.5,42.8,870,42.8z M865.4,21c-2,1.9-3.3,4.6-3.8,7.9c-0.2,1-0.3,2.1-0.3,3.2
			c0,2.7,0.7,4.9,2.2,6.4c1.4,1.5,3.6,2.3,6.6,2.3c3,0,5.4-0.9,7.4-2.8c2-1.9,3.3-4.5,3.8-7.8c0.2-1.1,0.3-2.1,0.3-3.3
			c0-2.8-0.7-4.9-2.2-6.4c-1.4-1.5-3.6-2.2-6.5-2.2C869.8,18.2,867.3,19.2,865.4,21L865.4,21z"/>
	</g>
	<g>
		<path class="st0" d="M939.5,39.9l-3,17.5h-17.3l9.7-55.2H953c5.9,0,10.4,1.3,13.5,4c3.1,2.7,4.6,6.3,4.6,10.9
			c0,1.1-0.1,2.5-0.4,4.1c-0.6,3.5-2,6.6-4.1,9.5c-2.1,2.8-4.9,5.1-8.3,6.7c-3.5,1.7-7.4,2.5-11.9,2.5H939.5z M953.2,21.1
			c0.1-0.3,0.1-0.7,0.1-1.2c0-2.5-1.5-3.8-4.6-3.8h-4.9l-1.8,10.1h4.9C950.4,26.2,952.5,24.5,953.2,21.1z"/>
		<path class="st0" d="M1017.2,4.3c3.8,2.1,6.8,4.9,8.8,8.7c2,3.7,3,8,3,12.9c0,2-0.2,4.3-0.6,6.8c-0.9,4.9-2.7,9.3-5.4,13.1
			c-2.7,3.8-6.2,6.8-10.4,8.9c-4.2,2.1-9,3.2-14.4,3.2c-5.4,0-10-1-13.9-3c-3.8-2-6.8-4.9-8.8-8.6c-2-3.7-3-8-3-12.9
			c0-2.5,0.2-4.9,0.6-7c0.9-4.9,2.7-9.3,5.4-13.1c2.7-3.8,6.2-6.8,10.5-8.9c4.3-2.1,9.1-3.2,14.4-3.2
			C1008.8,1.3,1013.3,2.3,1017.2,4.3z M994.2,20.3c-2.1,2.1-3.5,4.9-4.1,8.5c-0.2,1-0.3,2.2-0.3,3.4c0,3,0.8,5.4,2.5,7.1
			c1.6,1.7,4.1,2.6,7.3,2.6c3.2,0,5.9-1,8.1-3.1c2.2-2.1,3.5-4.9,4.1-8.3c0.2-1.1,0.3-2.2,0.3-3.4c0-3.1-0.8-5.4-2.5-7.1
			c-1.6-1.7-4-2.5-7.2-2.5C999,17.2,996.3,18.3,994.2,20.3z"/>
		<path class="st0" d="M1078.9,6.2c3.1,2.7,4.6,6.2,4.6,10.6c0,1.2-0.1,2.4-0.3,3.4c-0.7,3.7-2.3,7-4.9,9.9
			c-2.6,2.8-5.9,4.9-9.9,6.1l8.3,21.1h-19l-7-19.8l-3.4,19.8H1030l9.7-55.2h25.7C1071.3,2.2,1075.8,3.5,1078.9,6.2z M1052.7,26.1
			h6.9c3.4,0,5.3-1.6,5.8-4.7c0.1-0.3,0.1-0.6,0.1-1c0-1.1-0.4-2-1.1-2.7c-0.7-0.6-1.8-1-3.2-1h-6.9L1052.7,26.1z"/>
		<path class="st0" d="M1135.2,2.2l-2.4,13.7h-14.7l-7.3,41.5h-17.3l7.3-41.5h-14.5l2.4-13.7H1135.2z"/>
		<path class="st0" d="M1178.9,2.2l-2.4,13.7h-21.7l-1.3,7.6h15.6l-2.3,13h-15.6l-3.7,20.8h-17.3l9.7-55.2H1178.9z"/>
		<path class="st0" d="M1222.5,4.3c3.8,2.1,6.8,4.9,8.8,8.7c2,3.7,3,8,3,12.9c0,2-0.2,4.3-0.6,6.8c-0.9,4.9-2.7,9.3-5.4,13.1
			c-2.7,3.8-6.2,6.8-10.4,8.9c-4.2,2.1-9,3.2-14.4,3.2c-5.4,0-10-1-13.9-3c-3.8-2-6.8-4.9-8.8-8.6c-2-3.7-3-8-3-12.9
			c0-2.5,0.2-4.9,0.6-7c0.9-4.9,2.7-9.3,5.4-13.1c2.7-3.8,6.2-6.8,10.5-8.9c4.3-2.1,9.1-3.2,14.4-3.2
			C1214.1,1.3,1218.6,2.3,1222.5,4.3z M1199.5,20.3c-2.1,2.1-3.5,4.9-4.1,8.5c-0.2,1-0.3,2.2-0.3,3.4c0,3,0.8,5.4,2.5,7.1
			c1.6,1.7,4.1,2.6,7.3,2.6c3.2,0,5.9-1,8.1-3.1c2.2-2.1,3.5-4.9,4.1-8.3c0.2-1.1,0.3-2.2,0.3-3.4c0-3.1-0.8-5.4-2.5-7.1
			c-1.6-1.7-4-2.5-7.2-2.5C1204.3,17.2,1201.6,18.3,1199.5,20.3z"/>
		<path class="st0" d="M1254.9,44.3h16.7l-2.3,13.1h-34l9.7-55.2h17.3L1254.9,44.3z"/>
		<path class="st0" d="M1301.7,2.2l-9.7,55.2h-17.3l9.7-55.2H1301.7z"/>
		<path class="st0" d="M1347.3,4.3c3.8,2.1,6.8,4.9,8.8,8.7c2,3.7,3,8,3,12.9c0,2-0.2,4.3-0.6,6.8c-0.9,4.9-2.7,9.3-5.4,13.1
			c-2.7,3.8-6.2,6.8-10.4,8.9c-4.2,2.1-9,3.2-14.4,3.2c-5.4,0-10-1-13.9-3c-3.8-2-6.8-4.9-8.8-8.6c-2-3.7-3-8-3-12.9
			c0-2.5,0.2-4.9,0.6-7c0.9-4.9,2.7-9.3,5.4-13.1c2.7-3.8,6.2-6.8,10.5-8.9c4.3-2.1,9.1-3.2,14.4-3.2
			C1338.9,1.3,1343.4,2.3,1347.3,4.3z M1324.3,20.3c-2.1,2.1-3.5,4.9-4.1,8.5c-0.2,1-0.3,2.2-0.3,3.4c0,3,0.8,5.4,2.5,7.1
			c1.6,1.7,4.1,2.6,7.3,2.6c3.2,0,5.9-1,8.1-3.1c2.2-2.1,3.5-4.9,4.1-8.3c0.2-1.1,0.3-2.2,0.3-3.4c0-3.1-0.8-5.4-2.5-7.1
			c-1.6-1.7-4-2.5-7.2-2.5C1329.1,17.2,1326.4,18.3,1324.3,20.3z"/>
	</g>
	<g>
		<path class="st0" d="M1396.9,58.4h-19.4l10-57.2h25c6.1,0,10.9,1.4,14.1,4.2c3.3,2.8,4.9,6.8,4.9,11.7c0,1.2-0.1,2.6-0.4,4.2
			c-0.7,3.6-2.1,7-4.3,9.9c-2.2,3-5.1,5.3-8.7,7.1c-3.6,1.7-7.7,2.6-12.3,2.6h-6L1396.9,58.4z M1379.9,56.4h15.3l3-17.5h7.7
			c4.3,0,8.2-0.8,11.5-2.4c3.3-1.6,6-3.8,8-6.4c2-2.7,3.3-5.7,3.9-9.1c0.2-1.5,0.4-2.8,0.4-3.9c0-4.4-1.4-7.7-4.3-10.2
			c-2.9-2.5-7.2-3.7-12.8-3.7h-23.3L1379.9,56.4z M1406.4,27.2h-6.1l2.1-12.1h5.8c4.9,0,5.6,3,5.6,4.8c0,0.6,0,1-0.1,1.4l0,0
			C1413,25.2,1410.5,27.2,1406.4,27.2z M1402.7,25.2h3.7c3.1,0,4.8-1.3,5.3-4.2c0-0.2,0.1-0.5,0.1-1.1c0-1.4-0.4-2.8-3.6-2.8h-4.1
			L1402.7,25.2z"/>
		<path class="st0" d="M1457.8,59c-5.5,0-10.4-1.1-14.3-3.2c-4-2.1-7.1-5.1-9.2-9c-2.1-3.8-3.1-8.3-3.1-13.3c0-2.6,0.2-5,0.6-7.2
			c0.9-5,2.8-9.6,5.6-13.5c2.8-3.9,6.5-7,10.9-9.2c4.4-2.2,9.4-3.3,14.9-3.3c5.4,0,10.1,1.1,14.1,3.2l0,0c4,2.1,7.1,5.2,9.2,9.1
			c2.1,3.8,3.2,8.4,3.2,13.4c0,2.1-0.2,4.4-0.6,6.9c-0.9,5.1-2.8,9.6-5.6,13.6c-2.8,3.9-6.4,7.1-10.8,9.2
			C1468.3,57.8,1463.3,59,1457.8,59z M1463.1,2.3c-5.2,0-9.9,1-14,3.1c-4.1,2-7.5,4.9-10.1,8.6c-2.6,3.7-4.4,7.9-5.2,12.7
			c-0.4,2.1-0.6,4.4-0.6,6.8c0,4.7,1,8.9,2.9,12.4c1.9,3.5,4.7,6.2,8.4,8.2c3.7,1.9,8.2,2.9,13.4,2.9c5.2,0,9.9-1,13.9-3.1
			c4.1-2,7.4-4.9,10-8.6c2.6-3.7,4.4-8,5.2-12.7c0.4-2.4,0.6-4.6,0.6-6.6c0-4.7-1-8.9-2.9-12.4c-1.9-3.5-4.7-6.3-8.4-8.3l0,0
			C1472.6,3.3,1468.2,2.3,1463.1,2.3z M1459,42.8c-3.5,0-6.2-1-8-2.9c-1.8-1.9-2.7-4.5-2.7-7.8c0-1.3,0.1-2.5,0.3-3.5
			c0.7-3.8,2.1-6.8,4.4-9l0,0c2.3-2.2,5.3-3.4,8.8-3.4c3.4,0,6.1,1,7.9,2.8c1.8,1.9,2.7,4.5,2.7,7.8c0,1.2-0.1,2.5-0.3,3.6
			c-0.6,3.7-2.1,6.7-4.4,8.9C1465.5,41.7,1462.5,42.8,1459,42.8z M1461.9,18.2c-3,0-5.5,0.9-7.4,2.8l0,0c-2,1.9-3.3,4.6-3.8,7.9
			c-0.2,1-0.3,2.1-0.3,3.2c0,2.7,0.7,4.9,2.2,6.4c1.4,1.5,3.6,2.3,6.6,2.3c3,0,5.4-0.9,7.4-2.8c2-1.9,3.3-4.5,3.8-7.8
			c0.2-1.1,0.3-2.1,0.3-3.3c0-2.8-0.7-4.9-2.2-6.4C1466.9,19,1464.7,18.2,1461.9,18.2z"/>
		<path class="st0" d="M1537.8,58.4h-21.2l-6-16.9l-2.9,16.9h-19.4l10-57.2h26.6c6.1,0,10.9,1.4,14.2,4.3l0,0c3.3,2.9,5,6.7,5,11.4
			c0,1.3-0.1,2.5-0.3,3.6c-0.7,3.9-2.4,7.4-5.1,10.3c-2.5,2.7-5.6,4.7-9.4,6.1L1537.8,58.4z M1518,56.4h16.8l-8.2-20.8l1-0.3
			c3.9-1.2,7.1-3.2,9.5-5.8c2.4-2.7,4-5.8,4.6-9.4c0.2-1,0.3-2.1,0.3-3.3c0-4.1-1.4-7.4-4.3-9.9l0,0c-2.9-2.5-7.2-3.8-12.9-3.8
			h-24.9l-9.3,53.2h15.3l3.9-22.8L1518,56.4z M1519.2,27.1h-8.1l2.1-11.4h7.7c1.7,0,3,0.4,3.8,1.2c0.9,0.8,1.4,2,1.4,3.4
			c0,0.5,0,0.9-0.1,1.2C1525.4,25.1,1523,27.1,1519.2,27.1z M1513.5,25h5.7c2.9,0,4.4-1.2,4.9-3.8c0-0.2,0.1-0.4,0.1-0.8
			c0-0.9-0.2-1.5-0.7-2c-0.5-0.5-1.3-0.7-2.5-0.7h-6L1513.5,25z"/>
		<path class="st0" d="M1571.3,58.4H1552l7.3-41.5h-14.5l2.8-15.7h48.5l-2.8,15.7h-14.7L1571.3,58.4z M1554.4,56.4h15.3l7.3-41.5
			h14.7l2.1-11.7h-44.4l-2.1,11.7h14.5L1554.4,56.4z"/>
		<path class="st0" d="M1608,58.4h-19.4l10-57.2h41l-2.8,15.7h-21.7l-1,5.6h15.6l-2.6,15h-15.6L1608,58.4z M1591,56.4h15.3l3.7-20.8
			h15.6l1.9-11h-15.6l1.7-9.7h21.7l2.1-11.7h-36.9L1591,56.4z"/>
		<path class="st0" d="M1663.1,59c-5.5,0-10.4-1.1-14.3-3.2c-4-2.1-7.1-5.1-9.2-9c-2.1-3.8-3.1-8.3-3.1-13.3c0-2.6,0.2-5,0.6-7.2
			c0.9-5,2.8-9.6,5.6-13.5c2.8-3.9,6.5-7,10.9-9.2c4.4-2.2,9.4-3.3,14.9-3.3c5.4,0,10.1,1.1,14.1,3.2l0,0c4,2.1,7.1,5.2,9.2,9.1
			c2.1,3.8,3.2,8.4,3.2,13.4c0,2.1-0.2,4.4-0.6,6.9c-0.9,5.1-2.8,9.6-5.6,13.6c-2.8,3.9-6.4,7.1-10.8,9.2
			C1673.6,57.8,1668.6,59,1663.1,59z M1668.4,2.3c-5.2,0-9.9,1-14,3.1c-4.1,2-7.5,4.9-10.1,8.6c-2.6,3.7-4.4,7.9-5.2,12.7
			c-0.4,2.1-0.6,4.4-0.6,6.8c0,4.7,1,8.9,2.9,12.4c1.9,3.5,4.7,6.2,8.4,8.2c3.7,1.9,8.2,2.9,13.4,2.9c5.2,0,9.9-1,13.9-3.1
			c4.1-2,7.4-4.9,10-8.6c2.6-3.7,4.4-8,5.2-12.7c0.4-2.4,0.6-4.6,0.6-6.6c0-4.7-1-8.9-2.9-12.4c-1.9-3.5-4.8-6.3-8.4-8.3
			C1677.9,3.3,1673.5,2.3,1668.4,2.3z M1664.4,42.8c-3.5,0-6.2-1-8-2.9c-1.8-1.9-2.7-4.5-2.7-7.8c0-1.3,0.1-2.5,0.3-3.5
			c0.7-3.8,2.1-6.8,4.4-9l0,0c2.3-2.2,5.3-3.4,8.8-3.4c3.4,0,6.1,1,7.9,2.8c1.8,1.9,2.7,4.5,2.7,7.8c0,1.2-0.1,2.5-0.3,3.6
			c-0.6,3.7-2.1,6.7-4.4,8.9C1670.8,41.7,1667.8,42.8,1664.4,42.8z M1659.8,21c-2,1.9-3.3,4.6-3.8,7.9c-0.2,1-0.3,2.1-0.3,3.2
			c0,2.7,0.7,4.9,2.2,6.4c1.4,1.5,3.6,2.3,6.6,2.3c3,0,5.4-0.9,7.4-2.8c2-1.9,3.3-4.5,3.8-7.8c0.2-1.1,0.3-2.1,0.3-3.3
			c0-2.8-0.7-4.9-2.2-6.4c-1.4-1.5-3.6-2.2-6.5-2.2C1664.1,18.2,1661.7,19.2,1659.8,21L1659.8,21z"/>
		<path class="st0" d="M1729.7,58.4h-36l10-57.2h19.4l-7.4,42.1h16.7L1729.7,58.4z M1696.1,56.4h32l1.9-11.1h-16.7l7.4-42.1h-15.3
			L1696.1,56.4z"/>
		<path class="st0" d="M1752.5,58.4h-19.4l10-57.2h19.4L1752.5,58.4z M1735.5,56.4h15.3l9.3-53.2h-15.3L1735.5,56.4z"/>
		<path class="st0" d="M1787.9,59c-5.5,0-10.4-1.1-14.3-3.2c-4-2.1-7.1-5.1-9.2-9c-2.1-3.8-3.1-8.3-3.1-13.3c0-2.6,0.2-5,0.6-7.2
			c0.9-5,2.8-9.6,5.6-13.5c2.8-3.9,6.5-7,10.9-9.2c4.4-2.2,9.4-3.3,14.9-3.3c5.4,0,10.1,1.1,14.1,3.2l0,0c4,2.1,7.1,5.2,9.2,9.1
			c2.1,3.8,3.2,8.4,3.2,13.4c0,2.1-0.2,4.4-0.6,6.9c-0.9,5.1-2.8,9.6-5.6,13.6c-2.8,3.9-6.4,7.1-10.8,9.2
			C1798.4,57.8,1793.4,59,1787.9,59z M1793.2,2.3c-5.2,0-9.9,1-14,3.1c-4.1,2-7.5,4.9-10.1,8.6c-2.6,3.7-4.4,7.9-5.2,12.7
			c-0.4,2.1-0.6,4.4-0.6,6.8c0,4.7,1,8.9,2.9,12.4c1.9,3.5,4.7,6.2,8.4,8.2c3.7,1.9,8.2,2.9,13.4,2.9c5.2,0,9.9-1,13.9-3.1
			c4.1-2,7.4-4.9,10-8.6c2.6-3.7,4.4-8,5.2-12.7c0.4-2.4,0.6-4.6,0.6-6.6c0-4.7-1-8.9-2.9-12.4c-1.9-3.5-4.7-6.3-8.4-8.3l0,0
			C1802.7,3.3,1798.2,2.3,1793.2,2.3z M1789.1,42.8c-3.5,0-6.2-1-8-2.9c-1.8-1.9-2.7-4.5-2.7-7.8c0-1.3,0.1-2.4,0.3-3.5
			c0.7-3.8,2.1-6.8,4.4-9l0,0c2.3-2.2,5.3-3.4,8.8-3.4c3.4,0,6.1,1,7.9,2.8c1.8,1.9,2.7,4.5,2.7,7.8c0,1.3-0.1,2.5-0.3,3.6
			c-0.6,3.7-2.1,6.7-4.4,8.9C1795.6,41.7,1792.6,42.8,1789.1,42.8z M1784.5,21c-2,1.9-3.3,4.6-3.8,7.9c-0.2,1-0.3,2.1-0.3,3.2
			c0,2.7,0.7,4.9,2.2,6.4c1.4,1.5,3.6,2.3,6.6,2.3c3,0,5.4-0.9,7.4-2.8c2-1.9,3.3-4.5,3.8-7.8c0.2-1,0.3-2.1,0.3-3.3
			c0-2.8-0.7-4.9-2.2-6.4c-1.4-1.5-3.6-2.2-6.5-2.2C1788.9,18.2,1786.5,19.2,1784.5,21L1784.5,21z"/>
	</g>
	<g>
		<path class="st0" d="M1858.7,39.9l-3,17.5h-17.3l9.7-55.2h24.2c5.9,0,10.4,1.3,13.5,4c3.1,2.7,4.6,6.3,4.6,10.9
			c0,1.1-0.1,2.5-0.4,4.1c-0.6,3.5-2,6.6-4.1,9.5c-2.1,2.8-4.9,5.1-8.3,6.7c-3.5,1.7-7.4,2.5-11.9,2.5H1858.7z M1872.3,21.1
			c0.1-0.3,0.1-0.7,0.1-1.2c0-2.5-1.5-3.8-4.6-3.8h-4.9l-1.8,10.1h4.9C1869.6,26.2,1871.7,24.5,1872.3,21.1z"/>
		<path class="st0" d="M1936.3,4.3c3.8,2.1,6.8,4.9,8.8,8.7c2,3.7,3,8,3,12.9c0,2-0.2,4.3-0.6,6.8c-0.9,4.9-2.7,9.3-5.4,13.1
			c-2.7,3.8-6.2,6.8-10.4,8.9c-4.2,2.1-9,3.2-14.4,3.2c-5.4,0-10-1-13.9-3c-3.8-2-6.8-4.9-8.8-8.6c-2-3.7-3-8-3-12.9
			c0-2.5,0.2-4.9,0.6-7c0.9-4.9,2.7-9.3,5.4-13.1c2.7-3.8,6.2-6.8,10.5-8.9c4.3-2.1,9.1-3.2,14.4-3.2
			C1927.9,1.3,1932.5,2.3,1936.3,4.3z M1913.3,20.3c-2.1,2.1-3.5,4.9-4.1,8.5c-0.2,1-0.3,2.2-0.3,3.4c0,3,0.8,5.4,2.5,7.1
			c1.6,1.7,4.1,2.6,7.3,2.6s5.9-1,8.1-3.1c2.2-2.1,3.5-4.9,4.1-8.3c0.2-1.1,0.3-2.2,0.3-3.4c0-3.1-0.8-5.4-2.5-7.1
			c-1.6-1.7-4-2.5-7.2-2.5C1918.2,17.2,1915.5,18.3,1913.3,20.3z"/>
		<path class="st0" d="M1998,6.2c3.1,2.7,4.6,6.2,4.6,10.6c0,1.2-0.1,2.4-0.3,3.4c-0.7,3.7-2.3,7-4.9,9.9c-2.6,2.8-5.9,4.9-9.9,6.1
			l8.3,21.1h-19l-7-19.8l-3.4,19.8h-17.3l9.7-55.2h25.7C1990.4,2.2,1995,3.5,1998,6.2z M1971.9,26.1h6.9c3.4,0,5.3-1.6,5.8-4.7
			c0.1-0.3,0.1-0.6,0.1-1c0-1.1-0.4-2-1.1-2.7c-0.7-0.6-1.8-1-3.2-1h-6.9L1971.9,26.1z"/>
		<path class="st0" d="M2054.4,2.2l-2.4,13.7h-14.7l-7.3,41.5h-17.3l7.3-41.5h-14.5l2.4-13.7H2054.4z"/>
		<path class="st0" d="M2098.1,2.2l-2.4,13.7H2074l-1.3,7.6h15.6l-2.3,13h-15.6l-3.7,20.8h-17.3l9.7-55.2H2098.1z"/>
		<path class="st0" d="M2141.6,4.3c3.8,2.1,6.8,4.9,8.8,8.7c2,3.7,3,8,3,12.9c0,2-0.2,4.3-0.6,6.8c-0.9,4.9-2.7,9.3-5.4,13.1
			c-2.7,3.8-6.2,6.8-10.4,8.9c-4.2,2.1-9,3.2-14.4,3.2c-5.4,0-10-1-13.9-3c-3.8-2-6.8-4.9-8.8-8.6c-2-3.7-3-8-3-12.9
			c0-2.5,0.2-4.9,0.6-7c0.9-4.9,2.7-9.3,5.4-13.1c2.7-3.8,6.2-6.8,10.5-8.9c4.3-2.1,9.1-3.2,14.4-3.2
			C2133.3,1.3,2137.8,2.3,2141.6,4.3z M2118.6,20.3c-2.1,2.1-3.5,4.9-4.1,8.5c-0.2,1-0.3,2.2-0.3,3.4c0,3,0.8,5.4,2.5,7.1
			c1.6,1.7,4.1,2.6,7.3,2.6c3.2,0,5.9-1,8.1-3.1c2.2-2.1,3.5-4.9,4.1-8.3c0.2-1.1,0.3-2.2,0.3-3.4c0-3.1-0.8-5.4-2.5-7.1
			c-1.6-1.7-4-2.5-7.2-2.5C2123.5,17.2,2120.8,18.3,2118.6,20.3z"/>
		<path class="st0" d="M2174,44.3h16.7l-2.3,13.1h-34l9.7-55.2h17.3L2174,44.3z"/>
		<path class="st0" d="M2220.9,2.2l-9.7,55.2h-17.3l9.7-55.2H2220.9z"/>
		<path class="st0" d="M2266.4,4.3c3.8,2.1,6.8,4.9,8.8,8.7c2,3.7,3,8,3,12.9c0,2-0.2,4.3-0.6,6.8c-0.9,4.9-2.7,9.3-5.4,13.1
			c-2.7,3.8-6.2,6.8-10.4,8.9c-4.2,2.1-9,3.2-14.4,3.2c-5.4,0-10-1-13.9-3c-3.8-2-6.8-4.9-8.8-8.6c-2-3.7-3-8-3-12.9
			c0-2.5,0.2-4.9,0.6-7c0.9-4.9,2.7-9.3,5.4-13.1c2.7-3.8,6.2-6.8,10.5-8.9c4.3-2.1,9.1-3.2,14.4-3.2
			C2258,1.3,2262.6,2.3,2266.4,4.3z M2243.4,20.3c-2.1,2.1-3.5,4.9-4.1,8.5c-0.2,1-0.3,2.2-0.3,3.4c0,3,0.8,5.4,2.5,7.1
			c1.6,1.7,4.1,2.6,7.3,2.6c3.2,0,5.9-1,8.1-3.1c2.2-2.1,3.5-4.9,4.1-8.3c0.2-1.1,0.3-2.2,0.3-3.4c0-3.1-0.8-5.4-2.5-7.1
			c-1.6-1.7-4-2.5-7.2-2.5C2248.2,17.2,2245.5,18.3,2243.4,20.3z"/>
	</g>
	<g>
		<path class="st0" d="M2316,58.4h-19.4l10-57.2h25c6.1,0,10.9,1.4,14.1,4.2c3.3,2.8,4.9,6.8,4.9,11.7c0,1.2-0.1,2.6-0.4,4.2
			c-0.6,3.6-2.1,7-4.3,9.9c-2.2,3-5.1,5.3-8.7,7.1c-3.6,1.7-7.7,2.6-12.3,2.6h-6L2316,58.4z M2299.1,56.4h15.3l3-17.5h7.7
			c4.3,0,8.2-0.8,11.5-2.4c3.3-1.6,6-3.8,8-6.4c2-2.7,3.3-5.7,3.9-9.1c0.2-1.5,0.4-2.8,0.4-3.9c0-4.4-1.4-7.7-4.3-10.2
			c-2.9-2.5-7.2-3.7-12.8-3.7h-23.3L2299.1,56.4z M2325.6,27.2h-6.1l2.1-12.1h5.8c4.9,0,5.6,3,5.6,4.8c0,0.6,0,1-0.1,1.4l0,0
			C2332.2,25.2,2329.6,27.2,2325.6,27.2z M2321.9,25.2h3.7c3.1,0,4.8-1.3,5.3-4.2c0-0.3,0.1-0.6,0.1-1.1c0-1.4-0.4-2.8-3.6-2.8h-4.1
			L2321.9,25.2z"/>
		<path class="st0" d="M2377,59c-5.5,0-10.4-1.1-14.3-3.2c-4-2.1-7.1-5.1-9.2-9c-2.1-3.8-3.1-8.3-3.1-13.3c0-2.6,0.2-5,0.6-7.2
			c0.9-5,2.8-9.6,5.6-13.5c2.8-3.9,6.5-7,10.9-9.2c4.4-2.2,9.4-3.3,14.9-3.3c5.4,0,10.1,1.1,14.1,3.2l0,0c4,2.1,7.1,5.2,9.2,9.1
			c2.1,3.9,3.2,8.4,3.2,13.4c0,2.1-0.2,4.4-0.6,6.9c-0.9,5.1-2.8,9.6-5.6,13.6c-2.8,3.9-6.4,7.1-10.8,9.2
			C2387.4,57.8,2382.4,59,2377,59z M2382.3,2.3c-5.2,0-9.9,1-14,3.1c-4.1,2-7.5,4.9-10.1,8.6c-2.6,3.7-4.4,7.9-5.2,12.7
			c-0.4,2.1-0.6,4.4-0.6,6.8c0,4.7,1,8.9,2.9,12.4c1.9,3.5,4.7,6.2,8.4,8.2c3.7,1.9,8.2,2.9,13.4,2.9c5.2,0,9.9-1,13.9-3.1
			c4.1-2,7.4-4.9,10-8.6c2.6-3.7,4.4-8,5.2-12.7c0.4-2.4,0.6-4.6,0.6-6.6c0-4.7-1-8.9-2.9-12.4c-1.9-3.5-4.8-6.3-8.4-8.2l0,0
			C2391.7,3.3,2387.3,2.3,2382.3,2.3z M2378.2,42.8c-3.5,0-6.2-1-8-2.9c-1.8-1.9-2.7-4.5-2.7-7.8c0-1.3,0.1-2.5,0.3-3.6
			c0.7-3.8,2.1-6.8,4.4-9l0,0c2.3-2.2,5.3-3.4,8.8-3.4c3.4,0,6.1,1,7.9,2.8c1.8,1.9,2.7,4.5,2.7,7.8c0,1.2-0.1,2.5-0.3,3.6
			c-0.6,3.7-2.1,6.7-4.4,8.9C2384.6,41.7,2381.7,42.8,2378.2,42.8z M2381,18.2c-3,0-5.5,0.9-7.4,2.8l0,0c-2,1.9-3.3,4.6-3.8,7.9
			c-0.2,1-0.3,2-0.3,3.2c0,2.7,0.7,4.9,2.2,6.4c1.4,1.5,3.6,2.3,6.6,2.3c3,0,5.4-0.9,7.4-2.8c2-1.9,3.3-4.5,3.8-7.8
			c0.2-1.1,0.3-2.1,0.3-3.3c0-2.8-0.7-4.9-2.2-6.4C2386.1,19,2383.9,18.2,2381,18.2z"/>
		<path class="st0" d="M2457,58.4h-21.2l-6-16.9l-2.9,16.9h-19.4l10-57.2h26.6c6.1,0,10.9,1.4,14.2,4.3h0c3.3,2.9,5,6.7,5,11.4
			c0,1.3-0.1,2.5-0.3,3.6c-0.7,3.9-2.4,7.4-5.1,10.3c-2.5,2.7-5.6,4.7-9.4,6.1L2457,58.4z M2437.2,56.4h16.8l-8.2-20.8l1-0.3
			c3.9-1.2,7.1-3.2,9.5-5.8c2.4-2.7,4-5.8,4.6-9.4c0.2-1,0.3-2.1,0.3-3.3c0-4.2-1.4-7.4-4.3-9.9c-2.9-2.5-7.2-3.8-12.9-3.8h-24.9
			l-9.3,53.2h15.3l3.9-22.8L2437.2,56.4z M2438.3,27.1h-8.1l2.1-11.4h7.7c1.7,0,3,0.4,3.8,1.2c0.9,0.8,1.4,2,1.4,3.4
			c0,0.5,0,0.9-0.1,1.2C2444.6,25.1,2442.2,27.1,2438.3,27.1z M2432.7,25h5.7c2.9,0,4.4-1.2,4.9-3.8c0-0.2,0.1-0.4,0.1-0.8
			c0-0.9-0.2-1.5-0.7-2c-0.5-0.5-1.3-0.7-2.5-0.7h-6L2432.7,25z"/>
		<path class="st0" d="M2490.5,58.4h-19.4l7.3-41.5h-14.5l2.8-15.7h48.5l-2.8,15.7h-14.7L2490.5,58.4z M2473.5,56.4h15.3l7.3-41.5
			h14.7l2.1-11.7h-44.4l-2.1,11.7h14.5L2473.5,56.4z"/>
		<path class="st0" d="M2527.1,58.4h-19.4l10-57.2h41l-2.8,15.7h-21.7l-1,5.6h15.6l-2.6,15h-15.6L2527.1,58.4z M2510.2,56.4h15.3
			l3.7-20.8h15.6l1.9-11H2531l1.7-9.7h21.7l2.1-11.7h-36.9L2510.2,56.4z"/>
		<path class="st0" d="M2582.3,59c-5.5,0-10.4-1.1-14.3-3.2c-4-2.1-7.1-5.1-9.2-9c-2.1-3.8-3.1-8.3-3.1-13.3c0-2.6,0.2-5,0.6-7.2
			c0.9-5,2.8-9.6,5.6-13.5c2.8-3.9,6.5-7,10.9-9.2c4.4-2.2,9.4-3.3,14.9-3.3c5.4,0,10.1,1.1,14.1,3.2l0,0c4,2.1,7.1,5.2,9.2,9.1
			c2.1,3.9,3.2,8.4,3.2,13.4c0,2.1-0.2,4.4-0.6,7c-0.9,5.1-2.8,9.6-5.6,13.6c-2.8,3.9-6.4,7.1-10.8,9.2
			C2592.8,57.8,2587.8,59,2582.3,59z M2587.6,2.3c-5.2,0-9.9,1-14,3.1c-4.1,2-7.5,4.9-10.1,8.6c-2.6,3.7-4.4,7.9-5.2,12.7
			c-0.4,2.1-0.6,4.4-0.6,6.8c0,4.7,1,8.9,2.9,12.4c1.9,3.5,4.7,6.2,8.4,8.2c3.7,1.9,8.2,2.9,13.4,2.9c5.2,0,9.9-1,13.9-3.1
			c4.1-2,7.4-4.9,10-8.6c2.6-3.7,4.4-8,5.2-12.7c0.4-2.4,0.6-4.6,0.6-6.6c0-4.7-1-8.9-2.9-12.4c-1.9-3.5-4.8-6.3-8.4-8.2l0,0
			C2597.1,3.3,2592.6,2.3,2587.6,2.3z M2583.5,42.8c-3.5,0-6.2-1-8-2.9c-1.8-1.9-2.7-4.5-2.7-7.8c0-1.3,0.1-2.5,0.3-3.6
			c0.7-3.8,2.1-6.8,4.4-9l0,0c2.3-2.2,5.3-3.4,8.8-3.4c3.4,0,6.1,1,7.9,2.8c1.8,1.9,2.7,4.5,2.7,7.8c0,1.2-0.1,2.5-0.3,3.6
			c-0.6,3.7-2.1,6.7-4.4,8.9C2590,41.7,2587,42.8,2583.5,42.8z M2578.9,21L2578.9,21c-2,1.9-3.3,4.6-3.8,7.9c-0.2,1-0.3,2.1-0.3,3.2
			c0,2.7,0.7,4.9,2.2,6.4c1.4,1.5,3.6,2.3,6.6,2.3c3,0,5.4-0.9,7.4-2.8c2-1.9,3.3-4.5,3.8-7.8c0.2-1.1,0.3-2.1,0.3-3.3
			c0-2.8-0.7-4.9-2.2-6.4c-1.4-1.5-3.6-2.2-6.5-2.2C2583.3,18.2,2580.9,19.2,2578.9,21z"/>
		<path class="st0" d="M2648.9,58.4h-36l10-57.2h19.4l-7.4,42.1h16.7L2648.9,58.4z M2615.2,56.4h32l1.9-11.1h-16.7l7.4-42.1h-15.3
			L2615.2,56.4z"/>
		<path class="st0" d="M2671.6,58.4h-19.4l10-57.2h19.4L2671.6,58.4z M2654.7,56.4h15.3l9.3-53.2H2664L2654.7,56.4z"/>
		<path class="st0" d="M2707,59c-5.5,0-10.4-1.1-14.3-3.2c-4-2.1-7.1-5.1-9.2-9c-2.1-3.8-3.1-8.3-3.1-13.3c0-2.6,0.2-5,0.6-7.2
			c0.9-5,2.8-9.6,5.6-13.5c2.8-3.9,6.5-7,10.9-9.2c4.4-2.2,9.4-3.3,14.9-3.3c5.4,0,10.1,1.1,14.1,3.2h0c4,2.1,7.1,5.2,9.2,9.1
			c2.1,3.8,3.2,8.4,3.2,13.4c0,2.1-0.2,4.4-0.6,6.9c-0.9,5.1-2.8,9.6-5.6,13.6c-2.8,3.9-6.4,7.1-10.8,9.2
			C2717.5,57.8,2712.5,59,2707,59z M2712.3,2.3c-5.2,0-9.9,1-14,3.1c-4.1,2-7.5,4.9-10.1,8.6c-2.6,3.7-4.4,7.9-5.2,12.7
			c-0.4,2.1-0.6,4.4-0.6,6.8c0,4.7,1,8.9,2.9,12.4c1.9,3.5,4.7,6.2,8.4,8.2c3.7,1.9,8.2,2.9,13.4,2.9c5.2,0,9.9-1,13.9-3.1
			c4.1-2,7.4-4.9,10-8.6c2.6-3.7,4.4-8,5.2-12.7c0.4-2.4,0.6-4.6,0.6-6.6c0-4.7-1-8.9-2.9-12.4c-1.9-3.5-4.8-6.3-8.4-8.3l0,0
			C2721.8,3.3,2717.4,2.3,2712.3,2.3z M2708.3,42.8c-3.5,0-6.2-1-8-2.9c-1.8-1.9-2.7-4.5-2.7-7.8c0-1.3,0.1-2.4,0.3-3.5
			c0.7-3.8,2.1-6.8,4.4-9l0,0c2.3-2.2,5.3-3.4,8.8-3.4c3.4,0,6.1,1,7.9,2.8c1.8,1.9,2.7,4.5,2.7,7.8c0,1.3-0.1,2.5-0.3,3.6
			c-0.6,3.7-2.1,6.7-4.4,8.9C2714.7,41.7,2711.8,42.8,2708.3,42.8z M2703.7,21c-2,1.9-3.3,4.6-3.8,7.9c-0.2,1-0.3,2.1-0.3,3.2
			c0,2.7,0.7,4.9,2.2,6.4c1.4,1.5,3.6,2.3,6.6,2.3c3,0,5.4-0.9,7.4-2.8c2-1.9,3.3-4.5,3.8-7.8c0.2-1.1,0.3-2.1,0.3-3.3
			c0-2.8-0.7-4.9-2.2-6.4c-1.4-1.5-3.6-2.2-6.5-2.2C2708.1,18.2,2705.6,19.2,2703.7,21L2703.7,21z"/>
	</g>
	<g>
		<path class="st0" d="M2777.8,39.9l-3,17.5h-17.3l9.7-55.2h24.2c5.9,0,10.4,1.3,13.5,4c3.1,2.7,4.6,6.3,4.6,10.9
			c0,1.1-0.1,2.5-0.4,4.1c-0.6,3.5-2,6.6-4.1,9.5c-2.1,2.8-4.9,5.1-8.3,6.7c-3.5,1.7-7.4,2.5-11.9,2.5H2777.8z M2791.5,21.1
			c0.1-0.3,0.1-0.7,0.1-1.2c0-2.5-1.5-3.8-4.6-3.8h-4.9l-1.8,10.1h4.9C2788.7,26.2,2790.8,24.5,2791.5,21.1z"/>
		<path class="st0" d="M2855.5,4.3c3.8,2.1,6.8,4.9,8.8,8.7c2,3.7,3,8,3,12.9c0,2-0.2,4.3-0.6,6.8c-0.9,4.9-2.7,9.3-5.4,13.1
			c-2.7,3.8-6.2,6.8-10.4,8.9c-4.2,2.1-9,3.2-14.4,3.2c-5.4,0-10-1-13.9-3c-3.8-2-6.8-4.9-8.8-8.6c-2-3.7-3-8-3-12.9
			c0-2.5,0.2-4.9,0.6-7c0.9-4.9,2.7-9.3,5.4-13.1c2.7-3.8,6.2-6.8,10.5-8.9c4.3-2.1,9.1-3.2,14.4-3.2
			C2847.1,1.3,2851.6,2.3,2855.5,4.3z M2832.5,20.3c-2.1,2.1-3.5,4.9-4.1,8.5c-0.2,1-0.3,2.2-0.3,3.4c0,3,0.8,5.4,2.5,7.1
			c1.6,1.7,4.1,2.6,7.3,2.6c3.2,0,5.9-1,8.1-3.1c2.2-2.1,3.5-4.9,4.1-8.3c0.2-1.1,0.3-2.2,0.3-3.4c0-3.1-0.8-5.4-2.5-7.1
			c-1.6-1.7-4-2.5-7.2-2.5C2837.3,17.2,2834.6,18.3,2832.5,20.3z"/>
		<path class="st0" d="M2917.2,6.2c3.1,2.7,4.6,6.2,4.6,10.6c0,1.2-0.1,2.4-0.3,3.4c-0.7,3.7-2.3,7-4.9,9.9
			c-2.6,2.8-5.9,4.9-9.9,6.1l8.3,21.1h-19l-7-19.8l-3.4,19.8h-17.3l9.7-55.2h25.7C2909.6,2.2,2914.1,3.5,2917.2,6.2z M2891,26.1h6.9
			c3.4,0,5.3-1.6,5.8-4.7c0.1-0.3,0.1-0.6,0.1-1c0-1.1-0.4-2-1.1-2.7c-0.7-0.6-1.8-1-3.2-1h-6.9L2891,26.1z"/>
		<path class="st0" d="M2973.5,2.2l-2.4,13.7h-14.7l-7.3,41.5h-17.3l7.3-41.5h-14.5l2.4-13.7H2973.5z"/>
		<path class="st0" d="M3017.2,2.2l-2.4,13.7h-21.7l-1.3,7.6h15.6l-2.3,13h-15.6l-3.7,20.8h-17.3l9.7-55.2H3017.2z"/>
		<path class="st0" d="M3060.8,4.3c3.8,2.1,6.8,4.9,8.8,8.7c2,3.7,3,8,3,12.9c0,2-0.2,4.3-0.6,6.8c-0.9,4.9-2.7,9.3-5.4,13.1
			c-2.7,3.8-6.2,6.8-10.4,8.9c-4.2,2.1-9,3.2-14.4,3.2c-5.4,0-10-1-13.9-3c-3.8-2-6.8-4.9-8.8-8.6c-2-3.7-3-8-3-12.9
			c0-2.5,0.2-4.9,0.6-7c0.9-4.9,2.7-9.3,5.4-13.1c2.7-3.8,6.2-6.8,10.5-8.9c4.3-2.1,9.1-3.2,14.4-3.2
			C3052.4,1.3,3057,2.3,3060.8,4.3z M3037.8,20.3c-2.1,2.1-3.5,4.9-4.1,8.5c-0.2,1-0.3,2.2-0.3,3.4c0,3,0.8,5.4,2.5,7.1
			c1.6,1.7,4.1,2.6,7.3,2.6c3.2,0,5.9-1,8.1-3.1c2.2-2.1,3.5-4.9,4.1-8.3c0.2-1.1,0.3-2.2,0.3-3.4c0-3.1-0.8-5.4-2.5-7.1
			c-1.6-1.7-4-2.5-7.2-2.5C3042.6,17.2,3039.9,18.3,3037.8,20.3z"/>
		<path class="st0" d="M3093.2,44.3h16.7l-2.3,13.1h-34l9.7-55.2h17.3L3093.2,44.3z"/>
		<path class="st0" d="M3140,2.2l-9.7,55.2H3113l9.7-55.2H3140z"/>
		<path class="st0" d="M3185.6,4.3c3.8,2.1,6.8,4.9,8.8,8.7c2,3.7,3,8,3,12.9c0,2-0.2,4.3-0.6,6.8c-0.9,4.9-2.7,9.3-5.4,13.1
			c-2.7,3.8-6.2,6.8-10.4,8.9c-4.2,2.1-9,3.2-14.4,3.2c-5.4,0-10-1-13.9-3c-3.8-2-6.8-4.9-8.8-8.6c-2-3.7-3-8-3-12.9
			c0-2.5,0.2-4.9,0.6-7c0.9-4.9,2.7-9.3,5.4-13.1c2.7-3.8,6.2-6.8,10.5-8.9c4.3-2.1,9.1-3.2,14.4-3.2
			C3177.2,1.3,3181.7,2.3,3185.6,4.3z M3162.6,20.3c-2.1,2.1-3.5,4.9-4.1,8.5c-0.2,1-0.3,2.2-0.3,3.4c0,3,0.8,5.4,2.5,7.1
			c1.6,1.7,4.1,2.6,7.3,2.6c3.2,0,5.9-1,8.1-3.1c2.2-2.1,3.5-4.9,4.1-8.3c0.2-1.1,0.3-2.2,0.3-3.4c0-3.1-0.8-5.4-2.5-7.1
			c-1.6-1.7-4-2.5-7.2-2.5C3167.4,17.2,3164.7,18.3,3162.6,20.3z"/>
	</g>
	<g>
		<path class="st0" d="M3235.2,58.4h-19.4l10-57.2h25c6.1,0,10.9,1.4,14.1,4.2c3.3,2.8,4.9,6.8,4.9,11.7c0,1.2-0.1,2.6-0.4,4.2
			c-0.6,3.6-2.1,7-4.3,9.9c-2.2,3-5.1,5.3-8.7,7.1c-3.6,1.7-7.7,2.6-12.3,2.6h-6L3235.2,58.4z M3218.2,56.4h15.3l3-17.5h7.7
			c4.3,0,8.2-0.8,11.5-2.4c3.3-1.6,6-3.8,8-6.4c2-2.7,3.3-5.7,3.9-9.1c0.2-1.5,0.4-2.8,0.4-3.9c0-4.4-1.4-7.7-4.3-10.2
			c-2.9-2.5-7.2-3.7-12.8-3.7h-23.3L3218.2,56.4z M3244.7,27.2h-6.1l2.1-12.1h5.8c4.9,0,5.6,3,5.6,4.8c0,0.6,0,1-0.1,1.4l0,0
			C3251.3,25.2,3248.8,27.2,3244.7,27.2z M3241,25.2h3.7c3.1,0,4.8-1.3,5.3-4.2c0-0.3,0.1-0.6,0.1-1.1c0-1.4-0.4-2.8-3.6-2.8h-4.1
			L3241,25.2z"/>
		<path class="st0" d="M3296.1,59c-5.5,0-10.4-1.1-14.3-3.2c-4-2.1-7.1-5.1-9.2-9c-2.1-3.8-3.1-8.3-3.1-13.3c0-2.6,0.2-5,0.6-7.2
			c0.9-5,2.8-9.6,5.6-13.5c2.8-3.9,6.5-7,10.9-9.2c4.4-2.2,9.4-3.3,14.9-3.3c5.4,0,10.1,1.1,14.1,3.2h0c4,2.1,7.1,5.2,9.2,9.1
			c2.1,3.9,3.2,8.4,3.2,13.4c0,2.1-0.2,4.4-0.6,6.9c-0.9,5.1-2.8,9.6-5.6,13.6c-2.8,3.9-6.4,7.1-10.8,9.2
			C3306.6,57.8,3301.6,59,3296.1,59z M3301.4,2.3c-5.2,0-9.9,1-14,3.1c-4.1,2-7.5,4.9-10.1,8.6c-2.6,3.7-4.4,7.9-5.2,12.7
			c-0.4,2.1-0.6,4.4-0.6,6.8c0,4.7,1,8.9,2.9,12.4c1.9,3.5,4.7,6.2,8.4,8.2c3.7,1.9,8.2,2.9,13.4,2.9c5.2,0,9.9-1,13.9-3.1
			c4.1-2,7.4-4.9,10-8.6c2.6-3.7,4.4-8,5.2-12.7c0.4-2.4,0.6-4.6,0.6-6.6c0-4.7-1-8.9-2.9-12.4c-1.9-3.5-4.8-6.3-8.4-8.3l0,0
			C3310.9,3.3,3306.5,2.3,3301.4,2.3z M3297.4,42.8c-3.5,0-6.2-1-8-2.9c-1.8-1.9-2.7-4.5-2.7-7.8c0-1.3,0.1-2.5,0.3-3.6
			c0.7-3.8,2.1-6.8,4.4-9l0,0c2.3-2.2,5.3-3.4,8.8-3.4c3.4,0,6.1,1,7.9,2.8c1.8,1.9,2.7,4.5,2.7,7.8c0,1.2-0.1,2.5-0.3,3.6
			c-0.6,3.7-2.1,6.7-4.4,8.9C3303.8,41.7,3300.8,42.8,3297.4,42.8z M3300.2,18.2c-3,0-5.5,0.9-7.4,2.8l0,0c-2,1.9-3.3,4.6-3.8,7.9
			c-0.2,1-0.3,2.1-0.3,3.2c0,2.7,0.7,4.9,2.2,6.4c1.4,1.5,3.6,2.3,6.6,2.3c3,0,5.4-0.9,7.4-2.8c2-1.9,3.3-4.5,3.8-7.8
			c0.2-1.1,0.3-2.1,0.3-3.3c0-2.8-0.7-4.9-2.2-6.4C3305.2,19,3303,18.2,3300.2,18.2z"/>
		<path class="st0" d="M3376.1,58.4h-21.2l-6-16.9l-2.9,16.9h-19.4l10-57.2h26.6c6.1,0,10.9,1.4,14.2,4.3h0c3.3,2.9,5,6.7,5,11.4
			c0,1.3-0.1,2.5-0.3,3.6c-0.7,3.9-2.4,7.4-5.1,10.3c-2.5,2.7-5.6,4.7-9.4,6.1L3376.1,58.4z M3356.3,56.4h16.8l-8.2-20.8l1-0.3
			c3.9-1.2,7.1-3.2,9.5-5.8c2.4-2.7,4-5.8,4.6-9.4c0.2-1,0.3-2.1,0.3-3.3c0-4.2-1.4-7.4-4.3-9.9l0,0c-2.9-2.5-7.2-3.8-12.9-3.8
			h-24.9l-9.3,53.2h15.3l3.9-22.8L3356.3,56.4z M3357.5,27.1h-8.1l2.1-11.4h7.7c1.7,0,3,0.4,3.8,1.2c0.9,0.8,1.4,2,1.4,3.4
			c0,0.5,0,0.9-0.1,1.2C3363.7,25.1,3361.4,27.1,3357.5,27.1z M3351.8,25h5.7c2.9,0,4.4-1.2,4.9-3.8c0-0.2,0.1-0.4,0.1-0.8
			c0-0.9-0.2-1.5-0.7-2c-0.5-0.5-1.3-0.7-2.5-0.7h-6L3351.8,25z"/>
		<path class="st0" d="M3409.6,58.4h-19.4l7.3-41.5H3383l2.8-15.7h48.5l-2.8,15.7h-14.7L3409.6,58.4z M3392.7,56.4h15.3l7.3-41.5
			h14.7l2.1-11.7h-44.4l-2.1,11.7h14.5L3392.7,56.4z"/>
		<path class="st0" d="M3446.3,58.4h-19.4l10-57.2h41l-2.8,15.7h-21.7l-1,5.6h15.6l-2.6,15H3450L3446.3,58.4z M3429.3,56.4h15.3
			l3.7-20.8h15.6l1.9-11h-15.6l1.7-9.7h21.7l2.1-11.7h-36.9L3429.3,56.4z"/>
		<path class="st0" d="M3501.4,59c-5.5,0-10.4-1.1-14.3-3.2c-4-2.1-7.1-5.1-9.2-9c-2.1-3.8-3.1-8.3-3.1-13.3c0-2.6,0.2-5,0.6-7.2
			c0.9-5,2.8-9.6,5.6-13.5c2.8-3.9,6.5-7,10.9-9.2c4.4-2.2,9.4-3.3,14.9-3.3c5.4,0,10.1,1.1,14.1,3.2h0c4,2.1,7.1,5.2,9.2,9.1
			c2.1,3.9,3.2,8.4,3.2,13.4c0,2.1-0.2,4.4-0.6,6.9c-0.9,5.1-2.8,9.6-5.6,13.6c-2.8,3.9-6.4,7.1-10.8,9.2
			C3511.9,57.8,3506.9,59,3501.4,59z M3506.7,2.3c-5.2,0-9.9,1-14,3.1c-4.1,2-7.5,4.9-10.1,8.6c-2.6,3.7-4.4,7.9-5.2,12.7
			c-0.4,2.1-0.6,4.4-0.6,6.8c0,4.7,1,8.9,2.9,12.4c1.9,3.5,4.7,6.2,8.4,8.2c3.7,1.9,8.2,2.9,13.4,2.9c5.2,0,9.9-1,13.9-3.1
			c4.1-2,7.4-4.9,10-8.6c2.6-3.7,4.4-8,5.2-12.7c0.4-2.4,0.6-4.6,0.6-6.6c0-4.7-1-8.9-2.9-12.4c-1.9-3.5-4.8-6.3-8.4-8.3l0,0
			C3516.2,3.3,3511.8,2.3,3506.7,2.3z M3502.7,42.8c-3.5,0-6.2-1-8-2.9c-1.8-1.9-2.7-4.5-2.7-7.8c0-1.3,0.1-2.5,0.3-3.6
			c0.7-3.8,2.1-6.8,4.4-9l0,0c2.3-2.2,5.3-3.4,8.8-3.4c3.4,0,6.1,1,7.9,2.8c1.8,1.9,2.7,4.5,2.7,7.8c0,1.2-0.1,2.5-0.3,3.6
			c-0.6,3.7-2.1,6.7-4.4,8.9C3509.1,41.7,3506.2,42.8,3502.7,42.8z M3505.5,18.2c-3,0-5.5,0.9-7.4,2.8l0,0c-2,1.9-3.3,4.6-3.8,7.9
			c-0.2,1-0.3,2.1-0.3,3.2c0,2.7,0.7,4.9,2.2,6.4c1.4,1.5,3.6,2.3,6.6,2.3c3,0,5.4-0.9,7.4-2.8c2-1.9,3.3-4.5,3.8-7.8
			c0.2-1.1,0.3-2.1,0.3-3.3c0-2.8-0.7-4.9-2.2-6.4C3510.5,19,3508.4,18.2,3505.5,18.2z"/>
		<path class="st0" d="M3568,58.4h-36l10-57.2h19.4l-7.4,42.1h16.7L3568,58.4z M3534.4,56.4h32l1.9-11.1h-16.7l7.4-42.1h-15.3
			L3534.4,56.4z"/>
		<path class="st0" d="M3590.8,58.4h-19.4l10-57.2h19.4L3590.8,58.4z M3573.8,56.4h15.3l9.3-53.2h-15.3L3573.8,56.4z"/>
		<path class="st0" d="M3626.2,59c-5.5,0-10.4-1.1-14.3-3.2c-4-2.1-7.1-5.1-9.2-9c-2.1-3.8-3.1-8.3-3.1-13.3c0-2.6,0.2-5,0.6-7.2
			c0.9-5,2.8-9.6,5.6-13.5c2.8-3.9,6.5-7,10.9-9.2c4.4-2.2,9.4-3.3,14.9-3.3c5.4,0,10.1,1.1,14.1,3.2h0c4,2.1,7.1,5.2,9.2,9.1
			c2.1,3.8,3.2,8.4,3.2,13.4c0,2.1-0.2,4.4-0.6,6.9c-0.9,5.1-2.8,9.6-5.6,13.6c-2.8,3.9-6.4,7.1-10.8,9.2
			C3636.7,57.8,3631.7,59,3626.2,59z M3631.5,2.3c-5.2,0-9.9,1-14,3.1c-4.1,2-7.5,4.9-10.1,8.6c-2.6,3.7-4.4,7.9-5.2,12.7
			c-0.4,2.1-0.6,4.4-0.6,6.8c0,4.7,1,8.9,2.9,12.4c1.9,3.5,4.7,6.2,8.4,8.2c3.7,1.9,8.2,2.9,13.4,2.9c5.2,0,9.9-1,13.9-3.1
			c4.1-2,7.4-4.9,10-8.6c2.6-3.7,4.4-8,5.2-12.7c0.4-2.4,0.6-4.6,0.6-6.6c0-4.7-1-8.9-2.9-12.4c-1.9-3.5-4.8-6.3-8.4-8.3l0,0
			C3641,3.3,3636.6,2.3,3631.5,2.3z M3627.4,42.8c-3.5,0-6.2-1-8-2.9c-1.8-1.9-2.7-4.5-2.7-7.8c0-1.3,0.1-2.4,0.3-3.5
			c0.7-3.8,2.1-6.8,4.4-9v0c2.3-2.2,5.3-3.4,8.8-3.4c3.4,0,6.1,1,7.9,2.8c1.8,1.9,2.7,4.5,2.7,7.8c0,1.3-0.1,2.5-0.3,3.6
			c-0.6,3.7-2.1,6.7-4.4,8.9C3633.9,41.7,3630.9,42.8,3627.4,42.8z M3622.8,21c-2,1.9-3.3,4.6-3.8,7.9c-0.2,1-0.3,2.1-0.3,3.2
			c0,2.7,0.7,4.9,2.2,6.4c1.4,1.5,3.6,2.3,6.6,2.3c3,0,5.4-0.9,7.4-2.8c2-1.9,3.3-4.5,3.8-7.8c0.2-1,0.3-2.1,0.3-3.3
			c0-2.8-0.7-4.9-2.2-6.4c-1.4-1.5-3.6-2.2-6.5-2.2C3627.2,18.2,3624.8,19.2,3622.8,21L3622.8,21z"/>
	</g>
</g>
</svg>
