<?xml version="1.0" encoding="utf-8"?>
<!-- Generator: Adobe Illustrator 26.3.1, SVG Export Plug-In . SVG Version: 6.00 Build 0)  -->
<svg version="1.1" id="Layer_2_00000092450137695428183450000002400346071365161867_"
	 xmlns="http://www.w3.org/2000/svg" xmlns:xlink="http://www.w3.org/1999/xlink" x="0px" y="0px" viewBox="0 0 3713.2 59.2"
	 style="enable-background:new 0 0 3713.2 59.2;" xml:space="preserve">
<style type="text/css">
	.st0{fill:#FACB32;}
</style>
<g id="Layer_1-2">
	<g>
		<path class="st0" d="M49.3,1.9l-2.4,13.8H32.1l-7.3,41.8H7.3l7.3-41.8H0L2.4,1.9H49.3z"/>
		<path class="st0" d="M105.5,1.9l-9.8,55.7H78.3l3.8-21.7H65.5l-3.8,21.7H44.3L54,1.9h17.5l-3.5,20h16.6l3.5-20L105.5,1.9
			L105.5,1.9z"/>
		<path class="st0" d="M128.4,15.8l-1.2,6.9h17.3l-2.4,13.1h-17.3l-1.3,7.9h19.7l-2.4,13.9h-37.1l9.8-55.7h37.1L148,15.8H128.4
			L128.4,15.8z"/>
		<path class="st0" d="M210.6,24.6c-2.1,2.2-4.6,3.7-7.6,4.4c2.7,0.7,4.8,2,6.3,3.9s2.2,4.2,2.2,6.8c0,0.8-0.1,1.7-0.2,2.6
			c-0.9,4.9-3.2,8.6-6.8,11.3c-3.7,2.7-8.5,4-14.6,4h-29.2l9.8-55.7h28.4c5.1,0,9,1,11.8,2.9s4.2,4.8,4.2,8.6c0,0.6-0.1,1.6-0.3,3
			C214,19.7,212.7,22.4,210.6,24.6L210.6,24.6z M194,38.7c0-2-1.3-3-4-3h-8l-1.4,7.9h7.9c1.6,0,2.9-0.3,3.7-0.9
			c0.9-0.6,1.4-1.6,1.6-3C193.9,39.5,194,39.2,194,38.7L194,38.7z M196.3,18.7c0-1.9-1.4-2.9-4.1-2.9h-6.8l-1.3,7.9h6.8
			c1.6,0,2.8-0.3,3.7-0.9s1.4-1.6,1.6-2.9C196.3,19.3,196.3,18.9,196.3,18.7L196.3,18.7z"/>
		<path class="st0" d="M262.3,4.1c3.9,2.1,6.8,5,8.9,8.7c2,3.8,3.1,8.1,3.1,13c0,2-0.2,4.3-0.6,6.8c-0.9,5-2.7,9.4-5.4,13.2
			c-2.7,3.8-6.2,6.8-10.5,9c-4.3,2.2-9.1,3.2-14.5,3.2s-10.1-1-14-3.1c-3.9-2-6.8-4.9-8.9-8.7s-3-8-3-13c0-2.6,0.2-4.9,0.6-7.1
			c0.9-5,2.7-9.4,5.5-13.2s6.3-6.8,10.6-9s9-2.9,14.4-2.9S258.4,2,262.3,4.1L262.3,4.1z M239.1,20.2c-2.1,2.1-3.5,4.9-4.2,8.5
			c-0.2,1-0.3,2.2-0.3,3.4c0,3,0.8,5.4,2.5,7.2s4.1,2.6,7.4,2.6s6-1,8.1-3.2c2.2-2.1,3.5-4.9,4.1-8.4c0.2-1.1,0.3-2.2,0.3-3.5
			c0-3.1-0.8-5.5-2.5-7.2c-1.6-1.7-4.1-2.6-7.3-2.6S241.3,18.2,239.1,20.2L239.1,20.2z"/>
		<path class="st0" d="M338.4,1.9l-26.8,38.8l-2.9,16.9h-17.5l2.9-16.9L281,1.9h20l5.4,19.7l12.3-19.7L338.4,1.9L338.4,1.9z"/>
		<path class="st0" d="M435.9,1.9l-22.5,55.7h-21.7L390.8,26l-12,31.6h-21.7l-3-55.7h18.8L371.8,37l13.7-35.1h19l1.3,35.1L417,1.9
			C417,1.9,435.9,1.9,435.9,1.9z"/>
		<path class="st0" d="M493.7,1.9L484,57.6h-17.5l3.8-21.7h-16.6l-3.8,21.7h-17.5l9.7-55.7h17.5l-3.5,20h16.6l3.5-20L493.7,1.9
			L493.7,1.9z"/>
		<path class="st0" d="M539.6,4.1c3.9,2.1,6.8,5,8.9,8.7c2,3.8,3.1,8.1,3.1,13c0,2-0.2,4.3-0.6,6.8c-0.9,5-2.7,9.4-5.4,13.2
			s-6.2,6.8-10.5,9S526,58,520.6,58s-10.1-1-14-3.1c-3.9-2-6.8-4.9-8.9-8.7c-2-3.7-3-8-3-13c0-2.6,0.2-4.9,0.6-7.1
			c0.9-5,2.7-9.4,5.5-13.2s6.3-6.8,10.6-9S520.5,1,525.9,1S535.8,2,539.6,4.1L539.6,4.1z M516.4,20.2c-2.2,2.1-3.5,4.9-4.2,8.5
			c-0.2,1-0.3,2.2-0.3,3.4c0,3,0.8,5.4,2.5,7.2s4.1,2.6,7.3,2.6s6-1,8.1-3.2c2.2-2.1,3.5-4.9,4.1-8.4c0.2-1.1,0.3-2.2,0.3-3.5
			c0-3.1-0.8-5.5-2.5-7.2c-1.7-1.7-4.1-2.6-7.3-2.6S518.6,18.2,516.4,20.2z"/>
		<path class="st0" d="M616.8,43.9c-3.1,4.2-7,7.6-11.8,10s-10.1,3.7-15.9,3.7h-23.2L575.6,2h23.2c5.1,0,9.5,0.9,13.2,2.8
			s6.5,4.5,8.4,7.8s2.9,7.2,2.9,11.5c0,1.7-0.2,3.6-0.5,5.6C622,34.9,619.9,39.7,616.8,43.9L616.8,43.9z M600.1,38.8
			c2.7-2.2,4.4-5.2,5.1-9.2c0.2-1.4,0.3-2.4,0.3-3c0-3-1-5.4-2.9-7s-4.6-2.4-8-2.4h-4.2L586,42h4.2C594.1,42,597.4,41,600.1,38.8z"
			/>
		<path class="st0" d="M649.1,15.8l-1.2,6.9h17.3l-2.4,13.1h-17.3l-1.3,7.9h19.7l-2.4,13.9h-37.1l9.8-55.7h37.1l-2.4,13.8
			L649.1,15.8L649.1,15.8z"/>
		<path class="st0" d="M710.1,51c-2,2.2-4.5,4-7.8,5.3s-6.8,1.9-10.9,1.9c-6.9,0-12.2-1.6-16-4.8s-5.8-7.7-5.8-13.6h18.6
			c-0.3,3.2,0.8,4.8,3.5,4.8c1,0,1.8-0.3,2.5-0.9c0.7-0.6,1-1.4,1-2.5c0-1.3-0.6-2.3-1.8-3.2s-3.2-1.8-5.9-3
			c-2.9-1.2-5.4-2.4-7.3-3.6c-2-1.2-3.7-2.8-5.1-4.9c-1.4-2.1-2.1-4.6-2.1-7.8c0-1.1,0.1-2.4,0.4-4c0.8-4.4,3.2-7.8,7.3-10.2
			s9-3.6,14.6-3.6c7.2,0,12.5,1.6,16,4.7c3.5,3.2,5.3,7.6,5.5,13.3H698c0.3-2.9-0.7-4.4-2.8-4.4c-0.8,0-1.6,0.3-2.2,0.8
			c-0.6,0.6-0.9,1.4-0.9,2.4c0,1.1,0.6,2.1,1.8,2.9s3,1.7,5.6,2.7c3,1.2,5.5,2.4,7.4,3.5c2,1.1,3.7,2.7,5.1,4.8s2.2,4.7,2.2,7.8
			c0,1.1-0.1,2.4-0.4,4C713.3,46.3,712,48.7,710.1,51L710.1,51z"/>
		<path class="st0" d="M744.1,1.9l-9.8,55.7h-17.5l9.8-55.7C726.6,1.9,744.1,1.9,744.1,1.9z"/>
		<path class="st0" d="M790.8,3.9c3.3,1.7,5.9,4,7.6,7c1.7,3,2.6,6.3,2.8,10.1h-18.4c-0.5-1.1-1.3-2-2.4-2.6
			c-1.2-0.6-2.6-0.9-4.4-0.9c-3.4,0-6.2,1.1-8.4,3.3s-3.7,5.1-4.4,8.9c-0.3,1.5-0.4,2.7-0.4,3.8c0,3.1,0.9,5.4,2.6,6.9
			c1.7,1.5,4.4,2.3,8,2.3c4,0,7.6-1.6,10.6-4.9h-13.9l2.2-12.3h28.4L797.6,43c-6.2,10-15.8,15-28.8,15c-5,0-9.3-0.9-12.9-2.8
			c-3.6-1.9-6.3-4.5-8.2-8c-1.9-3.4-2.8-7.4-2.8-12c0-2.2,0.2-4.2,0.5-6.3c0.9-5.4,2.9-10.1,5.9-14.3s6.9-7.4,11.6-9.8
			s9.9-3.5,15.6-3.5C783.4,1.4,787.4,2.2,790.8,3.9z"/>
		<path class="st0" d="M854.7,57.6h-17.5l-13.6-28l-4.9,28h-17.5L811,1.9h17.5L842,30.4l5-28.5h17.5L854.7,57.6L854.7,57.6z"/>
		<path class="st0" d="M904.6,51c-2,2.2-4.5,4-7.8,5.3s-6.8,1.9-10.9,1.9c-6.9,0-12.2-1.6-16-4.8s-5.8-7.7-5.8-13.6h18.6
			c-0.3,3.2,0.8,4.8,3.5,4.8c1,0,1.8-0.3,2.5-0.9c0.7-0.6,1-1.4,1-2.5c0-1.3-0.6-2.3-1.8-3.2s-3.2-1.8-5.9-3
			c-2.9-1.2-5.4-2.4-7.3-3.6c-2-1.2-3.7-2.8-5.1-4.9c-1.4-2.1-2.1-4.6-2.1-7.8c0-1.1,0.1-2.4,0.4-4c0.8-4.4,3.2-7.8,7.3-10.2
			s9-3.6,14.6-3.6c7.2,0,12.5,1.6,16,4.7c3.5,3.2,5.3,7.6,5.5,13.3h-18.8c0.3-2.9-0.7-4.4-2.8-4.4c-0.8,0-1.6,0.3-2.2,0.8
			c-0.6,0.6-0.9,1.4-0.9,2.4c0,1.1,0.6,2.1,1.8,2.9s3,1.7,5.6,2.7c3,1.2,5.5,2.4,7.4,3.5c2,1.1,3.7,2.7,5.1,4.8s2.2,4.7,2.2,7.8
			c0,1.1-0.1,2.4-0.4,4C907.8,46.3,906.6,48.7,904.6,51L904.6,51z"/>
	</g>
	<g>
		<path class="st0" d="M975.8,3.9l-1.7,9.8H961c-1,0-1.8,0.7-2,1.7l-7,40.2h-13.4l6.9-39.5c0.1-0.6-0.1-1.2-0.4-1.6
			s-0.9-0.7-1.5-0.7h-12.2L933,4L975.8,3.9 M978.2,2h-46.9l-2.4,13.8h14.6l-7.3,41.8h17.5l7.3-41.8h14.8L978.2,2L978.2,2L978.2,2z"
			/>
		<path class="st0" d="M1032.1,3.9l-9,51.7h-13.4l3.4-19.4c0.1-0.6-0.1-1.2-0.4-1.6s-0.9-0.7-1.5-0.7h-16.6c-1,0-1.8,0.7-2,1.7
			l-3.5,20h-13.4l9-51.7H998l-3.1,17.7c-0.1,0.6,0.1,1.2,0.4,1.6s0.9,0.7,1.5,0.7h16.6c1,0,1.8-0.7,2-1.6l3.2-18.4L1032.1,3.9
			 M1034.5,1.9H1017l-3.5,20h-16.6l3.5-20h-17.5l-9.8,55.7h17.5l3.8-21.7h16.6l-3.8,21.7h17.5L1034.5,1.9L1034.5,1.9z"/>
		<path class="st0" d="M1077.1,3.9l-1.7,9.8h-18c-1,0-1.8,0.7-2,1.7l-1.2,6.9c-0.1,0.6,0.1,1.2,0.4,1.6s0.9,0.7,1.5,0.7h14.9
			l-1.6,9.1h-15.6c-1,0-1.8,0.7-2,1.7l-1.3,7.9c-0.1,0.6,0.1,1.2,0.4,1.6c0.4,0.5,0.9,0.7,1.5,0.7h17.3l-1.7,9.9h-33l9.1-51.7
			L1077.1,3.9 M1079.4,1.9h-37.1l-9.8,55.7h37.1l2.4-13.9h-19.7l1.3-7.9h17.3l2.4-13.1H1056l1.2-6.9h19.7L1079.4,1.9L1079.4,1.9
			L1079.4,1.9z"/>
		<path class="st0" d="M1127.8,3.9c4.7,0,8.2,0.9,10.7,2.5c2.2,1.6,3.3,3.8,3.3,6.9c0,0.4-0.1,1.1-0.3,2.6c-0.5,2.9-1.7,5.2-3.5,7.2
			s-4,3.2-6.6,3.9c-0.9,0.2-1.5,1-1.5,1.9s0.6,1.7,1.5,1.9c2.3,0.6,4,1.6,5.2,3.2s1.8,3.4,1.8,5.6c0,0.7-0.1,1.5-0.2,2.2
			c-0.8,4.4-2.8,7.7-6,10c-3.3,2.4-7.8,3.6-13.4,3.6H1092l9.1-51.7L1127.8,3.9 M1113.1,25.6h6.8c2,0,3.6-0.5,4.8-1.3
			c1.3-0.9,2.1-2.3,2.4-4.2c0.1-0.7,0.2-1.1,0.2-1.5c0-1.1-0.4-4.9-6.1-4.9h-6.8c-1,0-1.8,0.7-2,1.7l-1.3,7.9
			c-0.1,0.6,0.1,1.2,0.4,1.6S1112.5,25.6,1113.1,25.6 M1109.5,45.6h7.9c2.1,0,3.7-0.4,4.9-1.3c1.3-0.9,2.1-2.3,2.4-4.2
			c0.1-0.4,0.1-0.8,0.1-1.4c0-1.2-0.4-5-6-5h-7.9c-1,0-1.8,0.7-2,1.7l-1.4,7.9c-0.1,0.6,0.1,1.2,0.4,1.6
			C1108.4,45.3,1108.9,45.6,1109.5,45.6 M1127.8,1.9h-28.4l-9.8,55.7h29.2c6,0,10.9-1.3,14.6-4s5.9-6.4,6.8-11.3
			c0.2-0.9,0.2-1.8,0.2-2.6c0-2.6-0.7-4.8-2.2-6.8s-3.6-3.2-6.3-3.9c2.9-0.7,5.4-2.2,7.6-4.4c2.1-2.2,3.4-5,4-8.2
			c0.2-1.4,0.3-2.4,0.3-3c0-3.8-1.4-6.6-4.2-8.6C1136.8,2.9,1132.9,1.9,1127.8,1.9L1127.8,1.9L1127.8,1.9z M1113.1,23.6l1.3-7.9h6.8
			c2.7,0,4.1,1,4.1,2.9c0,0.2-0.1,0.6-0.2,1.1c-0.2,1.3-0.8,2.3-1.6,2.9s-2.1,0.9-3.7,0.9h-6.7V23.6z M1109.5,43.6l1.4-7.9h7.9
			c2.7,0,4,1,4,3c0,0.4,0,0.8-0.1,1c-0.2,1.4-0.8,2.3-1.6,3c-0.9,0.6-2.1,0.9-3.7,0.9H1109.5L1109.5,43.6z"/>
		<path class="st0" d="M1177.5,3c4.9,0,9.2,1,12.8,2.9c3.5,1.9,6.2,4.5,8.1,7.9s2.8,7.5,2.8,12.1c0,1.9-0.2,4.1-0.6,6.5
			c-0.8,4.7-2.6,8.9-5.1,12.5s-5.8,6.4-9.8,8.4s-8.6,3-13.6,3s-9.5-1-13.1-2.8c-3.5-1.8-6.2-4.5-8-7.8c-1.8-3.4-2.8-7.5-2.8-12
			c0-2.4,0.2-4.7,0.6-6.7c0.8-4.7,2.6-8.8,5.1-12.4c2.6-3.5,5.9-6.3,9.8-8.3C1167.8,4,1172.4,3,1177.5,3 M1161.9,28.4
			c-0.2,1.2-0.3,2.4-0.3,3.8c0,3.6,1,6.4,3,8.5s5,3.2,8.8,3.2s7-1.2,9.5-3.7c2.5-2.4,4.1-5.6,4.7-9.5c0.2-1.2,0.3-2.5,0.3-3.8
			c0-3.6-1-6.5-3-8.6s-5-3.2-8.7-3.2s-7,1.2-9.6,3.7C1164.2,21.2,1162.6,24.4,1161.9,28.4 M1177.5,1c-5.4,0-10.2,1.1-14.6,3.2
			s-7.8,5.1-10.6,9c-2.8,3.8-4.6,8.2-5.5,13.2c-0.4,2.1-0.6,4.5-0.6,7.1c0,4.9,1,9.2,3,13s5,6.6,8.8,8.7c3.9,2,8.5,3.1,14,3.1
			s10.2-1.1,14.5-3.2c4.3-2.2,7.8-5.2,10.5-9s4.5-8.3,5.4-13.2c0.4-2.5,0.6-4.8,0.6-6.8c0-4.9-1-9.3-3.1-13c-2-3.8-5-6.7-8.9-8.7
			S1182.8,1,1177.5,1L1177.5,1L1177.5,1z M1173.4,41.9c-3.2,0-5.7-0.9-7.3-2.6s-2.5-4.1-2.5-7.2c0-1.2,0.1-2.3,0.3-3.4
			c0.6-3.6,2-6.5,4.2-8.5s4.9-3.1,8.2-3.1s5.6,0.9,7.3,2.6c1.7,1.7,2.5,4.1,2.5,7.2c0,1.2-0.1,2.4-0.3,3.5c-0.6,3.5-1.9,6.3-4.1,8.4
			C1179.4,40.9,1176.6,41.9,1173.4,41.9L1173.4,41.9L1173.4,41.9z"/>
		<path class="st0" d="M1263.5,3.9l-24.6,35.6c-0.2,0.2-0.3,0.5-0.3,0.8l-2.6,15.2h-13.4l2.5-14.6c0.1-0.3,0-0.7-0.1-1l-12.2-36.1
			h15.7l5,18.3c0.2,0.8,0.8,1.3,1.6,1.5c0.1,0,0.2,0,0.3,0c0.7,0,1.3-0.4,1.7-0.9l11.8-18.8L1263.5,3.9 M1267.4,1.9h-19.7
			l-12.3,19.7L1230,1.9h-20l13.1,38.8l-2.9,16.9h17.5l2.9-16.9L1267.4,1.9L1267.4,1.9z"/>
		<path class="st0" d="M1361.9,3.9L1341,55.6h-18.4l-0.9-29.7c0-1-0.7-1.8-1.7-1.9c-0.1,0-0.2,0-0.3,0c-0.8,0-1.6,0.5-1.9,1.3
			l-11.5,30.3H1288l-2.8-51.7h14.6l-1,33c0,1,0.6,1.8,1.6,2c0.1,0,0.3,0,0.4,0c0.8,0,1.6-0.5,1.9-1.3l13.2-33.8h15.7l1.3,33.2
			c0,1,0.8,1.8,1.7,1.9c0.1,0,0.2,0,0.3,0c0.9,0,1.6-0.5,1.9-1.4L1347.5,4L1361.9,3.9 M1364.8,2H1346l-11.2,35l-1.3-35h-19l-13.7,35
			l1.1-35.1h-18.8l3,55.7h21.7l11.9-31.6l0.9,31.6h21.7L1364.8,2L1364.8,2L1364.8,2z"/>
		<path class="st0" d="M1420.3,3.9l-9.1,51.7h-13.4l3.4-19.4c0.1-0.6-0.1-1.2-0.4-1.6c-0.4-0.5-0.9-0.7-1.5-0.7h-16.6
			c-1,0-1.8,0.7-2,1.7l-3.5,20h-13.4l9.1-51.7h13.4l-3.1,17.7c-0.1,0.6,0.1,1.2,0.4,1.6s0.9,0.7,1.5,0.7h16.6c1,0,1.8-0.7,2-1.6
			l3.2-18.4L1420.3,3.9 M1422.7,1.9h-17.5l-3.5,20h-16.6l3.5-20h-17.5l-9.8,55.7h17.5l3.8-21.7h16.6l-3.8,21.7h17.5L1422.7,1.9
			L1422.7,1.9z"/>
		<path class="st0" d="M1454.8,3c4.9,0,9.2,1,12.8,2.9c3.5,1.9,6.2,4.5,8.1,7.9s2.8,7.5,2.8,12.1c0,1.9-0.2,4.1-0.6,6.5
			c-0.8,4.7-2.6,8.9-5.1,12.5s-5.8,6.4-9.8,8.4s-8.6,3-13.6,3s-9.5-1-13.1-2.8c-3.5-1.8-6.2-4.5-8-7.8c-1.8-3.4-2.8-7.5-2.8-12
			c0-2.4,0.2-4.7,0.6-6.7c0.8-4.7,2.6-8.8,5.1-12.4c2.6-3.5,5.9-6.3,9.8-8.3C1445.2,4,1449.7,3,1454.8,3 M1439.2,28.4
			c-0.2,1.2-0.3,2.4-0.3,3.8c0,3.6,1,6.4,3,8.5s5,3.2,8.8,3.2s7-1.2,9.5-3.7c2.5-2.4,4.1-5.6,4.7-9.5c0.2-1.2,0.3-2.5,0.3-3.8
			c0-3.6-1-6.5-3-8.6s-5-3.2-8.7-3.2s-7,1.2-9.6,3.7C1441.5,21.2,1440,24.4,1439.2,28.4 M1454.8,1c-5.4,0-10.2,1.1-14.6,3.2
			s-7.8,5.1-10.6,9c-2.8,3.8-4.6,8.2-5.5,13.2c-0.4,2.1-0.6,4.5-0.6,7.1c0,4.9,1,9.2,3,13s5,6.6,8.8,8.7c3.9,2,8.5,3.1,14,3.1
			s10.2-1.1,14.5-3.2c4.3-2.2,7.8-5.2,10.5-9s4.5-8.3,5.4-13.2c0.4-2.5,0.6-4.8,0.6-6.8c0-4.9-1-9.3-3.1-13c-2-3.8-5-6.7-8.9-8.7
			S1460.1,1,1454.8,1L1454.8,1L1454.8,1z M1450.7,41.9c-3.2,0-5.7-0.9-7.3-2.6s-2.5-4.1-2.5-7.2c0-1.2,0.1-2.3,0.3-3.4
			c0.6-3.6,2-6.5,4.2-8.5s4.9-3.1,8.2-3.1s5.6,0.9,7.3,2.6c1.7,1.7,2.5,4.1,2.5,7.2c0,1.2-0.1,2.4-0.3,3.5c-0.6,3.5-1.9,6.3-4.1,8.4
			C1456.7,40.9,1454,41.9,1450.7,41.9L1450.7,41.9L1450.7,41.9z"/>
		<path class="st0" d="M1527.8,3.9c4.8,0,8.9,0.9,12.3,2.6c3.3,1.7,5.9,4,7.6,7c1.8,3,2.6,6.5,2.6,10.5c0,1.6-0.2,3.4-0.4,5.2
			c-0.9,5-2.8,9.5-5.7,13.5c-2.9,4-6.6,7.1-11.1,9.4s-9.5,3.4-15,3.4h-20.8l9.1-51.7L1527.8,3.9 M1515,44h4.2
			c4.4,0,8.1-1.2,11.2-3.7s5-6,5.8-10.5c0.2-1.5,0.3-2.6,0.3-3.3c0-3.6-1.2-6.5-3.6-8.5c-2.3-1.9-5.4-2.9-9.3-2.9h-4.2
			c-1,0-1.8,0.7-2,1.6l-4.4,24.8c-0.1,0.6,0.1,1.2,0.4,1.6S1514.4,44,1515,44 M1527.8,2h-23.2l-9.8,55.7h23.2
			c5.8,0,11.1-1.2,15.9-3.7s8.7-5.8,11.8-10s5.1-9,6.1-14.3c0.3-2,0.5-3.9,0.5-5.6c0-4.4-1-8.2-2.9-11.5s-4.7-5.9-8.4-7.8
			S1532.9,1.9,1527.8,2L1527.8,2L1527.8,2z M1515,42l4.4-24.9h4.2c3.4,0,6.1,0.8,8,2.4s2.9,4,2.9,7c0,0.6-0.1,1.6-0.3,3
			c-0.7,4-2.4,7.1-5.1,9.2c-2.7,2.2-6,3.2-9.9,3.2L1515,42L1515,42z"/>
		<path class="st0" d="M1597.7,3.9l-1.7,9.8h-18c-1,0-1.8,0.7-2,1.7l-1.2,6.9c-0.1,0.6,0.1,1.2,0.4,1.6s0.9,0.7,1.5,0.7h14.9
			l-1.6,9.1h-15.6c-1,0-1.8,0.7-2,1.7l-1.3,7.9c-0.1,0.6,0.1,1.2,0.4,1.6c0.4,0.5,0.9,0.7,1.5,0.7h17.3l-1.7,9.9h-33.1l9.1-51.7
			L1597.7,3.9 M1600.1,1.9H1563l-9.8,55.7h37.1l2.4-13.9H1573l1.3-7.9h17.3l2.4-13.1h-17.3l1.2-6.9h19.7L1600.1,1.9L1600.1,1.9
			L1600.1,1.9z"/>
		<path class="st0" d="M1624.1,3c6.6,0,11.6,1.4,14.7,4.2c2.7,2.4,4.2,5.6,4.7,9.8h-14.7c-0.2-1.2-0.6-2.2-1.3-3
			c-0.6-0.6-1.7-1.4-3.6-1.4c-1.3,0-2.6,0.5-3.5,1.4c-0.7,0.6-1.6,1.9-1.6,3.9c0,1.3,0.5,3.1,2.7,4.5c1.3,0.8,3.2,1.8,6,2.9
			c2.9,1.2,5.3,2.3,7.2,3.4c1.7,1,3.2,2.4,4.5,4.2c1.2,1.7,1.8,4,1.8,6.7c0,1-0.1,2.2-0.4,3.7c-0.4,2.4-1.4,4.5-3.2,6.5
			c-1.8,2-4.1,3.6-7,4.7c-2.9,1.2-6.4,1.8-10.2,1.8c-6.4,0-11.3-1.5-14.8-4.3c-2.9-2.5-4.6-5.8-5-10.1h14.5c0.2,1.3,0.6,2.4,1.3,3.2
			c1,1.1,2.4,1.6,4.1,1.6c1.5,0,2.8-0.5,3.8-1.3c0.8-0.7,1.7-1.9,1.7-4c0-1.3-0.5-3.3-2.7-4.8c-1.3-0.9-3.4-2-6.2-3.2
			c-2.8-1.2-5.2-2.3-7.1-3.4c-1.7-1-3.2-2.5-4.4-4.3c-1.2-1.7-1.8-4-1.8-6.6c0-1,0.1-2.2,0.4-3.7c0.7-3.8,2.8-6.7,6.4-8.9
			C1614.3,4.1,1618.9,3,1624.1,3 M1624.1,1c-5.6,0-10.5,1.2-14.6,3.6s-6.6,5.8-7.3,10.2c-0.3,1.6-0.4,2.9-0.4,4
			c0,3.1,0.7,5.7,2.1,7.8s3.1,3.7,5.1,4.9s4.4,2.4,7.3,3.6c2.7,1.2,4.6,2.2,5.9,3s1.8,1.9,1.8,3.2c0,1.1-0.3,1.9-1,2.5
			s-1.5,0.9-2.5,0.9c-2.6,0-3.8-1.6-3.5-4.8h-18.6c0.1,5.9,2,10.4,5.8,13.6c3.8,3.2,9.2,4.8,16,4.8c4.1,0,7.7-0.6,10.9-1.9
			c3.2-1.3,5.8-3,7.8-5.3s3.2-4.7,3.7-7.4c0.3-1.6,0.4-2.9,0.4-4c0-3.2-0.7-5.8-2.2-7.8c-1.4-2.1-3.2-3.7-5.1-4.8
			c-2-1.1-4.4-2.3-7.4-3.5c-2.6-1-4.4-2-5.6-2.7c-1.2-0.8-1.8-1.7-1.8-2.9c0-1,0.3-1.9,0.9-2.4c0.6-0.6,1.3-0.8,2.2-0.8
			c2.2,0,3.1,1.5,2.8,4.4h18.8c-0.2-5.7-2-10.1-5.5-13.3S1631.3,1,1624.1,1L1624.1,1L1624.1,1z"/>
		<path class="st0" d="M1670.6,3.9l-9.1,51.7h-13.4l9.1-51.7L1670.6,3.9 M1673,1.9h-17.5l-9.8,55.7h17.5L1673,1.9L1673,1.9z"/>
		<path class="st0" d="M1707.5,3.4c4.4,0,8.2,0.8,11.3,2.3c3,1.5,5.2,3.5,6.8,6.2c1.2,2.1,2,4.5,2.3,7.1h-15.1
			c-0.7-1-1.6-1.7-2.7-2.3c-1.4-0.8-3.2-1.1-5.3-1.1c-3.9,0-7.2,1.3-9.8,3.8c-2.5,2.5-4.2,5.8-4.9,10c-0.3,1.6-0.4,3-0.4,4.1
			c0,3.7,1.1,6.5,3.3,8.4c2.1,1.8,5.2,2.8,9.3,2.8c4.6,0,8.7-1.8,12.1-5.5c0.5-0.6,0.7-1.4,0.4-2.2s-1-1.2-1.8-1.2h-11.5l1.5-8.3
			h24.3l-2.6,14.7c-5.9,9.3-14.7,13.8-26.9,13.8c-4.6,0-8.6-0.9-11.9-2.6c-3.3-1.7-5.7-4.1-7.4-7.2c-1.7-3.1-2.6-6.8-2.6-11
			c0-2,0.2-4,0.5-5.9c0.9-5,2.8-9.6,5.6-13.4c2.8-3.9,6.4-6.9,10.8-9.1C1697.2,4.5,1702.1,3.4,1707.5,3.4 M1707.5,1.4
			c-5.7,0-10.9,1.2-15.6,3.5s-8.5,5.6-11.6,9.8c-3,4.2-5,8.9-5.9,14.3c-0.4,2-0.6,4.1-0.6,6.3c0,4.6,0.9,8.6,2.8,12
			c1.9,3.4,4.6,6.1,8.2,8s7.9,2.8,12.9,2.8c12.9,0,22.5-5,28.8-15.1l3.1-17.5h-28.4l-2.2,12.3h13.9c-3,3.2-6.6,4.9-10.6,4.9
			c-3.6,0-6.3-0.8-8-2.3s-2.6-3.8-2.6-6.9c0-1,0.1-2.3,0.4-3.8c0.7-3.8,2.1-6.8,4.4-8.9c2.2-2.2,5-3.3,8.4-3.3
			c1.8,0,3.2,0.3,4.4,0.9s2,1.5,2.4,2.6h18.4c-0.2-3.8-1.1-7.1-2.8-10.1c-1.7-3-4.2-5.3-7.6-7C1716.4,2.2,1712.3,1.4,1707.5,1.4
			L1707.5,1.4z"/>
		<path class="st0" d="M1791,3.9l-9.1,51.7h-14.5l-13.1-26.9c-0.3-0.7-1-1.1-1.8-1.1c-0.1,0-0.2,0-0.3,0c-0.9,0.1-1.5,0.8-1.7,1.6
			l-4.6,26.3h-13.4l9.1-51.7h14.5l13,27.3c0.3,0.7,1,1.1,1.8,1.1c0.1,0,0.2,0,0.3,0c0.9-0.1,1.6-0.8,1.7-1.6l4.7-26.8L1791,3.9
			 M1793.4,1.9h-17.5l-4.9,28.5l-13.5-28.5H1740l-9.8,55.7h17.5l4.9-28l13.6,28h17.5L1793.4,1.9L1793.4,1.9L1793.4,1.9z"/>
		<path class="st0" d="M1818.6,3c6.6,0,11.6,1.4,14.7,4.2c2.7,2.4,4.2,5.6,4.7,9.8h-14.7c-0.2-1.2-0.6-2.2-1.3-3
			c-0.6-0.6-1.7-1.4-3.6-1.4c-1.3,0-2.6,0.5-3.5,1.4c-0.7,0.6-1.6,1.9-1.6,3.9c0,1.3,0.5,3.1,2.7,4.5c1.3,0.8,3.2,1.8,6,2.9
			c2.9,1.2,5.3,2.3,7.2,3.4c1.7,1,3.2,2.4,4.5,4.2c1.2,1.7,1.8,4,1.8,6.7c0,1-0.1,2.2-0.4,3.7c-0.4,2.4-1.4,4.5-3.2,6.5
			c-1.8,2-4.1,3.6-7,4.7c-2.9,1.2-6.4,1.8-10.2,1.8c-6.4,0-11.3-1.5-14.8-4.3c-2.9-2.5-4.6-5.8-5-10.1h14.5c0.2,1.3,0.6,2.4,1.3,3.2
			c1,1.1,2.4,1.6,4.1,1.6c1.5,0,2.8-0.5,3.8-1.3c0.8-0.7,1.7-1.9,1.7-4c0-1.3-0.5-3.3-2.7-4.8c-1.3-0.9-3.4-2-6.2-3.2
			c-2.8-1.2-5.2-2.3-7.1-3.4c-1.7-1-3.2-2.5-4.4-4.3c-1.2-1.7-1.8-4-1.8-6.6c0-1,0.1-2.2,0.4-3.7c0.7-3.8,2.8-6.7,6.4-8.9
			C1808.9,4.1,1813.4,3,1818.6,3 M1818.6,1c-5.6,0-10.5,1.2-14.6,3.6s-6.6,5.8-7.3,10.2c-0.3,1.6-0.4,2.9-0.4,4
			c0,3.1,0.7,5.7,2.1,7.8s3.1,3.7,5.1,4.9s4.4,2.4,7.3,3.6c2.7,1.2,4.6,2.2,5.9,3s1.8,1.9,1.8,3.2c0,1.1-0.3,1.9-1,2.5
			s-1.5,0.9-2.5,0.9c-2.6,0-3.8-1.6-3.5-4.8H1793c0.1,5.9,2,10.4,5.8,13.6c3.8,3.2,9.2,4.8,16,4.8c4.1,0,7.7-0.6,10.9-1.9
			c3.2-1.3,5.8-3,7.8-5.3s3.2-4.7,3.7-7.4c0.3-1.6,0.4-2.9,0.4-4c0-3.2-0.7-5.8-2.2-7.8c-1.4-2.1-3.2-3.7-5.1-4.8
			c-2-1.1-4.4-2.3-7.4-3.5c-2.6-1-4.4-2-5.6-2.7c-1.2-0.8-1.8-1.7-1.8-2.9c0-1,0.3-1.9,0.9-2.4c0.6-0.6,1.3-0.8,2.2-0.8
			c2.2,0,3.1,1.5,2.8,4.4h18.8c-0.2-5.7-2-10.1-5.5-13.3S1825.8,1,1818.6,1L1818.6,1L1818.6,1z"/>
	</g>
	<g>
		<path class="st0" d="M1907.2,1.9l-2.4,13.8H1890l-7.3,41.8h-17.5l7.3-41.8h-14.6l2.4-13.8L1907.2,1.9L1907.2,1.9z"/>
		<path class="st0" d="M1963.4,1.9l-9.8,55.7h-17.5l3.8-21.7h-16.6l-3.8,21.7H1902l9.8-55.7h17.5l-3.5,20h16.6l3.5-20
			C1945.9,1.9,1963.4,1.9,1963.4,1.9z"/>
		<path class="st0" d="M1986.3,15.8l-1.2,6.9h17.3l-2.4,13.1h-17.3l-1.3,7.9h19.7l-2.4,13.9h-37.1l9.8-55.7h37.1l-2.4,13.8
			L1986.3,15.8L1986.3,15.8z"/>
		<path class="st0" d="M2068.4,24.6c-2.1,2.2-4.6,3.7-7.6,4.4c2.7,0.7,4.8,2,6.3,3.9s2.2,4.2,2.2,6.8c0,0.8-0.1,1.7-0.2,2.6
			c-0.9,4.9-3.2,8.6-6.8,11.3c-3.7,2.7-8.5,4-14.6,4h-29.2l9.8-55.7h28.4c5.1,0,9,1,11.8,2.9s4.2,4.8,4.2,8.6c0,0.6-0.1,1.6-0.3,3
			C2071.9,19.7,2070.5,22.4,2068.4,24.6L2068.4,24.6z M2051.8,38.7c0-2-1.3-3-4-3h-7.9l-1.4,7.9h7.9c1.6,0,2.9-0.3,3.7-0.9
			c0.9-0.6,1.4-1.6,1.6-3C2051.8,39.5,2051.8,39.2,2051.8,38.7L2051.8,38.7z M2054.2,18.7c0-1.9-1.4-2.9-4.1-2.9h-6.8l-1.3,7.9h6.8
			c1.6,0,2.8-0.3,3.7-0.9s1.4-1.6,1.6-2.9C2054.1,19.3,2054.2,18.9,2054.2,18.7L2054.2,18.7z"/>
		<path class="st0" d="M2120.2,4.1c3.9,2.1,6.8,5,8.9,8.7c2,3.8,3.1,8.1,3.1,13c0,2-0.2,4.3-0.6,6.8c-0.9,5-2.7,9.4-5.4,13.2
			s-6.2,6.8-10.5,9s-9.1,3.2-14.5,3.2s-10.1-1-14-3.1c-3.9-2-6.8-4.9-8.9-8.7s-3-8-3-13c0-2.6,0.2-4.9,0.6-7.1
			c0.9-5,2.7-9.4,5.5-13.2s6.3-6.8,10.6-9s9-2.9,14.4-2.9S2116.3,2,2120.2,4.1L2120.2,4.1z M2097,20.2c-2.1,2.1-3.5,4.9-4.2,8.5
			c-0.2,1-0.3,2.2-0.3,3.4c0,3,0.8,5.4,2.5,7.2s4.1,2.6,7.4,2.6s6-1,8.1-3.2c2.2-2.1,3.6-4.9,4.1-8.4c0.2-1.1,0.3-2.2,0.3-3.5
			c0-3.1-0.8-5.5-2.5-7.2s-4.1-2.6-7.3-2.6S2099.1,18.2,2097,20.2z"/>
		<path class="st0" d="M2196.3,1.9l-26.8,38.8l-2.9,16.9h-17.5l2.9-16.9l-13.1-38.8h20l5.4,19.7l12.3-19.7
			C2176.6,1.9,2196.3,1.9,2196.3,1.9z"/>
		<path class="st0" d="M2293.8,1.9l-22.5,55.7h-21.7l-0.9-31.6l-11.9,31.6H2215l-3-55.7h18.8l-1.1,35.1l13.7-35.1h19l1.3,35.1
			L2275,1.9H2293.8L2293.8,1.9z"/>
		<path class="st0" d="M2351.6,1.9l-9.8,55.7h-17.5l3.8-21.7h-16.6l-3.8,21.7h-17.5l9.8-55.7h17.5l-3.5,20h16.6l3.5-20
			C2334.1,1.9,2351.6,1.9,2351.6,1.9z"/>
		<path class="st0" d="M2397.5,4.1c3.9,2.1,6.8,5,8.9,8.7c2,3.8,3.1,8.1,3.1,13c0,2-0.2,4.3-0.6,6.8c-0.9,5-2.7,9.4-5.4,13.2
			s-6.2,6.8-10.5,9s-9.1,3.2-14.5,3.2s-10.1-1-14-3.1c-3.9-2-6.8-4.9-8.9-8.7s-3-8-3-13c0-2.6,0.2-4.9,0.6-7.1
			c0.9-5,2.7-9.4,5.5-13.2s6.3-6.8,10.6-9s9.1-3.2,14.6-3.2S2393.6,2,2397.5,4.1L2397.5,4.1z M2374.3,20.2c-2.1,2.1-3.5,4.9-4.2,8.5
			c-0.2,1-0.3,2.2-0.3,3.4c0,3,0.8,5.4,2.5,7.2s4.1,2.6,7.4,2.6s6-1,8.1-3.2c2.2-2.1,3.6-4.9,4.1-8.4c0.2-1.1,0.3-2.2,0.3-3.5
			c0-3.1-0.8-5.5-2.5-7.2s-4.1-2.6-7.3-2.6S2376.4,18.2,2374.3,20.2z"/>
		<path class="st0" d="M2474.7,43.9c-3.1,4.2-7,7.6-11.8,10s-10.1,3.7-15.9,3.7h-23.2l9.8-55.7h23.2c5.1,0,9.5,0.9,13.2,2.8
			s6.5,4.5,8.4,7.8s2.9,7.2,2.9,11.5c0,1.7-0.2,3.6-0.5,5.6C2479.8,34.9,2477.8,39.7,2474.7,43.9L2474.7,43.9z M2458,38.8
			c2.7-2.2,4.4-5.2,5.1-9.2c0.2-1.4,0.3-2.4,0.3-3c0-3-1-5.4-2.9-7s-4.6-2.4-8-2.4h-4.2l-4.4,24.9h4.2C2452,42,2455.3,41,2458,38.8
			L2458,38.8z"/>
		<path class="st0" d="M2506.9,15.8l-1.2,6.9h17.3l-2.4,13.1h-17.3l-1.3,7.9h19.7l-2.4,13.9h-37.1l9.8-55.7h37.1l-2.4,13.8
			L2506.9,15.8L2506.9,15.8z"/>
		<path class="st0" d="M2567.9,51c-2,2.2-4.6,4-7.8,5.3s-6.8,1.9-10.9,1.9c-6.9,0-12.2-1.6-16-4.8s-5.8-7.7-5.8-13.6h18.6
			c-0.3,3.2,0.8,4.8,3.5,4.8c1,0,1.8-0.3,2.5-0.9c0.7-0.6,1-1.4,1-2.5c0-1.3-0.6-2.3-1.9-3.2s-3.2-1.8-5.9-3
			c-2.9-1.2-5.4-2.4-7.4-3.6c-2-1.2-3.7-2.8-5.1-4.9c-1.4-2.1-2.1-4.6-2.1-7.8c0-1.1,0.1-2.4,0.4-4c0.8-4.4,3.2-7.8,7.4-10.2
			c4.1-2.4,9-3.6,14.6-3.6c7.2,0,12.5,1.6,16,4.7s5.4,7.6,5.5,13.3h-18.8c0.3-2.9-0.7-4.4-2.8-4.4c-0.8,0-1.6,0.3-2.2,0.8
			c-0.6,0.6-0.9,1.4-0.9,2.4c0,1.1,0.6,2.1,1.8,2.9s3.1,1.7,5.6,2.7c3,1.2,5.5,2.4,7.4,3.5c2,1.1,3.7,2.7,5.1,4.8
			c1.4,2.1,2.2,4.7,2.2,7.8c0,1.1-0.1,2.4-0.4,4C2571.1,46.3,2569.9,48.7,2567.9,51z"/>
		<path class="st0" d="M2601.9,1.9l-9.8,55.7h-17.5l9.8-55.7C2584.5,1.9,2601.9,1.9,2601.9,1.9z"/>
		<path class="st0" d="M2648.6,3.9c3.4,1.7,5.9,4,7.6,7c1.7,3,2.6,6.3,2.8,10.1h-18.4c-0.5-1.1-1.3-2-2.4-2.6
			c-1.1-0.6-2.6-0.9-4.4-0.9c-3.4,0-6.1,1.1-8.4,3.3c-2.2,2.2-3.7,5.1-4.4,8.9c-0.3,1.5-0.4,2.7-0.4,3.8c0,3.1,0.9,5.4,2.6,6.9
			s4.4,2.3,8,2.3c4,0,7.6-1.6,10.6-4.9H2628l2.2-12.3h28.4l-3.1,17.5c-6.2,10.1-15.8,15.1-28.8,15.1c-5,0-9.3-0.9-12.9-2.8
			c-3.6-1.9-6.3-4.5-8.2-8s-2.8-7.4-2.8-12c0-2.2,0.2-4.2,0.6-6.3c0.9-5.4,2.9-10.1,5.9-14.3s6.9-7.4,11.6-9.8s9.9-3.5,15.6-3.5
			C2641.2,1.4,2645.3,2.2,2648.6,3.9L2648.6,3.9z"/>
		<path class="st0" d="M2712.6,57.6h-17.5l-13.6-28l-4.9,28h-17.5l9.8-55.7h17.5l13.5,28.5l4.9-28.5h17.5L2712.6,57.6L2712.6,57.6z"
			/>
		<path class="st0" d="M2762.5,51c-2,2.2-4.6,4-7.8,5.3s-6.8,1.9-10.9,1.9c-6.9,0-12.2-1.6-16-4.8s-5.8-7.7-5.8-13.6h18.6
			c-0.3,3.2,0.8,4.8,3.5,4.8c1,0,1.8-0.3,2.5-0.9c0.7-0.6,1-1.4,1-2.5c0-1.3-0.6-2.3-1.9-3.2s-3.2-1.8-5.9-3
			c-2.9-1.2-5.4-2.4-7.4-3.6c-2-1.2-3.7-2.8-5.1-4.9c-1.4-2.1-2.1-4.6-2.1-7.8c0-1.1,0.1-2.4,0.4-4c0.8-4.4,3.2-7.8,7.4-10.2
			c4.1-2.4,9-3.6,14.6-3.6c7.2,0,12.5,1.6,16,4.7s5.4,7.6,5.5,13.3h-18.8c0.3-2.9-0.7-4.4-2.8-4.4c-0.8,0-1.6,0.3-2.2,0.8
			c-0.6,0.6-0.9,1.4-0.9,2.4c0,1.1,0.6,2.1,1.8,2.9s3.1,1.7,5.6,2.7c3,1.2,5.5,2.4,7.4,3.5c2,1.1,3.7,2.7,5.1,4.8
			c1.4,2.1,2.2,4.7,2.2,7.8c0,1.1-0.1,2.4-0.4,4C2765.6,46.3,2764.4,48.7,2762.5,51z"/>
	</g>
	<g>
		<path class="st0" d="M2833.7,3.9l-1.7,9.8h-13.1c-1,0-1.8,0.7-2,1.7l-7,40.2h-13.4l6.9-39.5c0.1-0.6-0.1-1.2-0.4-1.6
			s-0.9-0.7-1.5-0.7h-12.2L2791,4L2833.7,3.9 M2836.1,2h-46.9l-2.4,13.8h14.6l-7.3,41.8h17.5l7.3-41.8h14.8L2836.1,2L2836.1,2
			L2836.1,2z"/>
		<path class="st0" d="M2889.9,3.9l-9.1,51.7h-13.4l3.4-19.4c0.1-0.6-0.1-1.2-0.4-1.6s-0.9-0.7-1.5-0.7h-16.6c-1,0-1.8,0.7-2,1.7
			l-3.5,20h-13.4l9.1-51.7h13.4l-3.1,17.7c-0.1,0.6,0.1,1.2,0.4,1.6s0.9,0.7,1.5,0.7h16.6c1,0,1.8-0.7,2-1.6l3.2-18.4L2889.9,3.9
			 M2892.3,1.9h-17.5l-3.5,20h-16.6l3.5-20h-17.5l-9.8,55.7h17.5l3.8-21.7h16.6l-3.8,21.7h17.5L2892.3,1.9L2892.3,1.9z"/>
		<path class="st0" d="M2934.9,3.9l-1.7,9.8h-18c-1,0-1.8,0.7-2,1.7l-1.2,6.9c-0.1,0.6,0.1,1.2,0.4,1.6c0.4,0.5,0.9,0.7,1.5,0.7
			h14.9l-1.6,9.1h-15.6c-1,0-1.8,0.7-2,1.7l-1.3,7.9c-0.1,0.6,0.1,1.2,0.4,1.6s0.9,0.7,1.5,0.7h17.3l-1.7,9.9h-33.1l9.1-51.7
			L2934.9,3.9 M2937.3,1.9h-37.1l-9.8,55.7h37.1l2.4-13.9h-19.7l1.3-7.9h17.3l2.4-13.1H2914l1.2-6.9h19.7L2937.3,1.9L2937.3,1.9
			L2937.3,1.9z"/>
		<path class="st0" d="M2985.6,3.9c4.6,0,8.2,0.9,10.7,2.5c2.2,1.6,3.3,3.8,3.3,6.9c0,0.4-0.1,1.1-0.3,2.6c-0.5,2.9-1.7,5.2-3.5,7.2
			c-1.9,2-4,3.2-6.6,3.9c-0.9,0.2-1.5,1-1.5,1.9s0.6,1.7,1.5,1.9c2.3,0.6,4,1.6,5.2,3.2s1.8,3.4,1.8,5.6c0,0.7-0.1,1.5-0.2,2.2
			c-0.8,4.4-2.8,7.7-6,10c-3.3,2.4-7.8,3.6-13.4,3.6h-26.8l9.1-51.7L2985.6,3.9 M2970.9,25.6h6.8c2,0,3.6-0.5,4.8-1.3
			c1.3-0.9,2.1-2.3,2.4-4.2c0.1-0.7,0.2-1.1,0.2-1.5c0-1.1-0.4-4.9-6.1-4.9h-6.8c-1,0-1.8,0.7-2,1.7l-1.3,7.9
			c-0.1,0.6,0.1,1.2,0.4,1.6S2970.3,25.6,2970.9,25.6 M2967.4,45.6h7.9c2.1,0,3.7-0.4,4.9-1.3c1.3-0.9,2.1-2.3,2.4-4.2
			c0.1-0.4,0.1-0.8,0.1-1.4c0-1.2-0.4-5-6-5h-7.9c-1,0-1.8,0.7-2,1.7l-1.4,7.9c-0.1,0.6,0.1,1.2,0.4,1.6
			C2966.2,45.3,2966.8,45.6,2967.4,45.6 M2985.6,1.9h-28.4l-9.8,55.7h29.2c6,0,10.9-1.3,14.6-4c3.7-2.7,5.9-6.4,6.8-11.3
			c0.2-0.9,0.2-1.8,0.2-2.6c0-2.6-0.7-4.8-2.2-6.8s-3.6-3.2-6.3-3.9c2.9-0.7,5.4-2.2,7.6-4.4s3.4-5,4-8.2c0.2-1.4,0.3-2.4,0.3-3
			c0-3.8-1.4-6.6-4.2-8.6C2994.7,2.9,2990.7,1.9,2985.6,1.9L2985.6,1.9L2985.6,1.9z M2970.9,23.6l1.3-7.9h6.8c2.7,0,4.1,1,4.1,2.9
			c0,0.2-0.1,0.6-0.2,1.1c-0.2,1.3-0.8,2.3-1.6,2.9c-0.9,0.6-2.1,0.9-3.7,0.9h-6.7V23.6z M2967.4,43.6l1.4-7.9h7.9c2.7,0,4,1,4,3
			c0,0.4,0,0.8-0.1,1c-0.2,1.4-0.8,2.3-1.6,3c-0.9,0.6-2.1,0.9-3.7,0.9H2967.4L2967.4,43.6z"/>
		<path class="st0" d="M3035.3,3c4.9,0,9.2,1,12.8,2.9c3.5,1.9,6.2,4.5,8.1,7.9c1.9,3.4,2.8,7.5,2.8,12.1c0,1.9-0.2,4.1-0.6,6.5
			c-0.8,4.7-2.6,8.9-5.1,12.5s-5.8,6.4-9.8,8.4s-8.6,3-13.6,3s-9.5-1-13.1-2.8c-3.5-1.8-6.2-4.5-8-7.8c-1.9-3.4-2.8-7.5-2.8-12
			c0-2.4,0.2-4.7,0.6-6.7c0.8-4.7,2.6-8.8,5.1-12.4c2.6-3.5,5.9-6.3,9.9-8.3C3025.7,4,3030.3,3,3035.3,3 M3019.8,28.4
			c-0.2,1.2-0.4,2.4-0.4,3.8c0,3.6,1,6.4,3,8.5s5,3.2,8.8,3.2s7-1.2,9.5-3.7c2.5-2.4,4.1-5.6,4.7-9.5c0.2-1.2,0.4-2.5,0.4-3.8
			c0-3.6-1-6.5-3-8.6s-5-3.2-8.7-3.2s-7,1.2-9.6,3.7C3022.1,21.2,3020.5,24.4,3019.8,28.4 M3035.3,1c-5.4,0-10.2,1.1-14.6,3.2
			s-7.8,5.1-10.6,9c-2.8,3.8-4.6,8.2-5.5,13.2c-0.4,2.1-0.6,4.5-0.6,7.1c0,4.9,1,9.2,3,13s5,6.6,8.9,8.7c3.9,2,8.5,3.1,14,3.1
			s10.2-1.1,14.5-3.2c4.3-2.2,7.8-5.2,10.5-9s4.5-8.3,5.4-13.2c0.4-2.5,0.6-4.8,0.6-6.8c0-4.9-1-9.3-3.1-13c-2-3.8-5-6.7-8.9-8.7
			C3045.2,2.1,3040.6,1,3035.3,1L3035.3,1L3035.3,1z M3031.2,41.9c-3.2,0-5.7-0.9-7.4-2.6c-1.6-1.7-2.5-4.1-2.5-7.2
			c0-1.2,0.1-2.3,0.3-3.4c0.6-3.6,2-6.5,4.2-8.5s4.9-3.1,8.2-3.1s5.6,0.9,7.3,2.6c1.6,1.7,2.5,4.1,2.5,7.2c0,1.2-0.1,2.4-0.3,3.5
			c-0.6,3.5-1.9,6.3-4.1,8.4C3037.2,40.9,3034.5,41.9,3031.2,41.9L3031.2,41.9z"/>
		<path class="st0" d="M3121.4,3.9l-24.6,35.6c-0.2,0.2-0.3,0.5-0.3,0.8l-2.6,15.2h-13.4l2.5-14.6c0.1-0.3,0-0.7-0.1-1l-12.2-36.1
			h15.7l5,18.3c0.2,0.8,0.9,1.3,1.6,1.5c0.1,0,0.2,0,0.3,0c0.7,0,1.3-0.4,1.7-0.9l11.8-18.8L3121.4,3.9 M3125.2,1.9h-19.7
			l-12.4,19.7l-5.4-19.7h-20l13.1,38.8l-2.9,16.9h17.5l2.9-16.9L3125.2,1.9L3125.2,1.9z"/>
		<path class="st0" d="M3219.8,3.9l-20.9,51.7h-18.4l-0.9-29.7c0-1-0.7-1.8-1.7-1.9c-0.1,0-0.2,0-0.3,0c-0.8,0-1.6,0.5-1.9,1.3
			l-11.5,30.3h-18.4L3143,3.9h14.6l-1,33c0,1,0.6,1.8,1.6,2c0.1,0,0.3,0,0.4,0c0.8,0,1.6-0.5,1.9-1.3l13.2-33.8h15.7l1.3,33.2
			c0,1,0.8,1.8,1.7,1.9c0.1,0,0.2,0,0.3,0c0.9,0,1.6-0.5,1.9-1.4L3205.4,4L3219.8,3.9 M3222.7,2h-18.8l-11.2,35l-1.4-35h-19
			l-13.7,35l1.1-35.1h-18.8l3,55.7h21.7l11.9-31.6l0.9,31.6h21.7L3222.7,2L3222.7,2L3222.7,2z"/>
		<path class="st0" d="M3278.1,3.9l-9.1,51.7h-13.4l3.4-19.4c0.1-0.6-0.1-1.2-0.4-1.6s-0.9-0.7-1.5-0.7h-16.6c-1,0-1.8,0.7-2,1.7
			l-3.5,20h-13.4l9.1-51.7h13.4l-3.1,17.7c-0.1,0.6,0.1,1.2,0.4,1.6s0.9,0.7,1.5,0.7h16.6c1,0,1.8-0.7,2-1.6l3.2-18.4L3278.1,3.9
			 M3280.5,1.9H3263l-3.5,20h-16.6l3.5-20H3229l-9.8,55.7h17.5l3.8-21.7h16.6l-3.8,21.7h17.5L3280.5,1.9L3280.5,1.9z"/>
		<path class="st0" d="M3312.7,3c4.9,0,9.2,1,12.8,2.9c3.5,1.9,6.2,4.5,8.1,7.9c1.9,3.4,2.8,7.5,2.8,12.1c0,1.9-0.2,4.1-0.6,6.5
			c-0.8,4.7-2.6,8.9-5.1,12.5s-5.8,6.4-9.8,8.4s-8.6,3-13.6,3s-9.5-1-13.1-2.8c-3.5-1.8-6.2-4.5-8-7.8c-1.9-3.4-2.8-7.5-2.8-12
			c0-2.4,0.2-4.7,0.6-6.7c0.8-4.7,2.6-8.8,5.1-12.4c2.6-3.5,5.9-6.3,9.9-8.3C3303,4,3307.6,3,3312.7,3 M3297.1,28.4
			c-0.2,1.2-0.4,2.4-0.4,3.8c0,3.6,1,6.4,3,8.5s5,3.2,8.8,3.2s7-1.2,9.5-3.7c2.5-2.4,4.1-5.6,4.7-9.5c0.2-1.2,0.4-2.5,0.4-3.8
			c0-3.6-1-6.5-3-8.6s-5-3.2-8.7-3.2s-7,1.2-9.6,3.7C3299.4,21.2,3297.8,24.4,3297.1,28.4 M3312.7,1c-5.4,0-10.2,1.1-14.6,3.2
			s-7.8,5.1-10.6,9c-2.8,3.8-4.6,8.2-5.5,13.2c-0.4,2.1-0.6,4.5-0.6,7.1c0,4.9,1,9.2,3,13s5,6.6,8.9,8.7c3.9,2,8.5,3.1,14,3.1
			s10.2-1.1,14.5-3.2c4.3-2.2,7.8-5.2,10.5-9s4.5-8.3,5.4-13.2c0.4-2.5,0.6-4.8,0.6-6.8c0-4.9-1-9.3-3.1-13c-2-3.8-5-6.7-8.9-8.7
			C3322.6,2.1,3318,1,3312.7,1L3312.7,1L3312.7,1z M3308.6,41.9c-3.2,0-5.7-0.9-7.4-2.6c-1.6-1.7-2.5-4.1-2.5-7.2
			c0-1.2,0.1-2.3,0.3-3.4c0.6-3.6,2-6.5,4.2-8.5s4.9-3.1,8.2-3.1s5.6,0.9,7.3,2.6c1.6,1.7,2.5,4.1,2.5,7.2c0,1.2-0.1,2.4-0.3,3.5
			c-0.6,3.5-1.9,6.3-4.1,8.4C3314.5,40.9,3311.8,41.9,3308.6,41.9L3308.6,41.9z"/>
		<path class="st0" d="M3385.6,3.9c4.8,0,8.9,0.9,12.3,2.6c3.3,1.7,5.9,4,7.6,7c1.8,3,2.6,6.5,2.6,10.5c0,1.6-0.1,3.4-0.4,5.2
			c-0.9,5-2.8,9.5-5.7,13.5s-6.6,7.1-11.1,9.4s-9.5,3.4-15,3.4h-20.8l9.1-51.7L3385.6,3.9 M3372.8,44h4.2c4.4,0,8.1-1.2,11.2-3.7
			c3.1-2.5,5-6,5.8-10.5c0.2-1.5,0.3-2.5,0.3-3.3c0-3.6-1.2-6.5-3.6-8.5c-2.3-1.9-5.4-2.9-9.3-2.9h-4.2c-1,0-1.8,0.7-2,1.6
			l-4.4,24.8c-0.1,0.6,0.1,1.2,0.4,1.6S3372.2,44,3372.8,44 M3385.6,2h-23.2l-9.8,55.7h23.2c5.8,0,11.1-1.2,15.9-3.7
			c4.8-2.4,8.7-5.8,11.8-10s5.1-9,6.1-14.3c0.3-2,0.5-3.9,0.5-5.6c0-4.4-1-8.2-2.9-11.5s-4.8-5.9-8.4-7.8
			C3395.2,2.9,3390.8,1.9,3385.6,2L3385.6,2L3385.6,2z M3372.8,42l4.4-24.9h4.2c3.4,0,6.1,0.8,8,2.4s2.9,4,2.9,7
			c0,0.6-0.1,1.6-0.3,3c-0.7,4-2.4,7.1-5.1,9.2c-2.7,2.2-6,3.2-9.9,3.2L3372.8,42L3372.8,42z"/>
		<path class="st0" d="M3455.6,3.9l-1.7,9.8h-18c-1,0-1.8,0.7-2,1.7l-1.2,6.9c-0.1,0.6,0.1,1.2,0.4,1.6c0.4,0.5,0.9,0.7,1.5,0.7
			h14.9l-1.6,9.1h-15.6c-1,0-1.8,0.7-2,1.7l-1.3,7.9c-0.1,0.6,0.1,1.2,0.4,1.6s0.9,0.7,1.5,0.7h17.3l-1.7,9.9h-33.1l9.1-51.7
			L3455.6,3.9 M3458,1.9h-37.1l-9.8,55.7h37.1l2.4-13.9H3431l1.3-7.9h17.3l2.4-13.1h-17.3l1.2-6.9h19.7L3458,1.9L3458,1.9L3458,1.9z
			"/>
		<path class="st0" d="M3482,3c6.6,0,11.6,1.4,14.7,4.2c2.7,2.4,4.2,5.6,4.7,9.8h-14.7c-0.1-1.2-0.6-2.2-1.3-3
			c-0.6-0.6-1.7-1.4-3.6-1.4c-1.3,0-2.6,0.5-3.5,1.4c-0.7,0.6-1.6,1.9-1.6,3.9c0,1.3,0.5,3.1,2.7,4.5c1.3,0.8,3.2,1.8,6,2.9
			c2.9,1.2,5.3,2.3,7.2,3.4c1.7,1,3.2,2.4,4.5,4.2c1.2,1.7,1.8,4,1.8,6.7c0,1-0.1,2.2-0.4,3.7c-0.4,2.4-1.4,4.5-3.2,6.5
			s-4.1,3.6-7,4.7c-2.9,1.2-6.4,1.8-10.2,1.8c-6.4,0-11.3-1.5-14.8-4.3c-2.9-2.5-4.6-5.8-5-10.1h14.5c0.1,1.3,0.6,2.4,1.3,3.2
			c1,1.1,2.4,1.6,4.1,1.6c1.5,0,2.8-0.5,3.8-1.3c0.8-0.7,1.7-1.9,1.7-4c0-1.3-0.5-3.3-2.7-4.8c-1.4-0.9-3.4-2-6.2-3.2
			s-5.2-2.3-7.1-3.4c-1.7-1-3.2-2.5-4.4-4.3c-1.2-1.7-1.8-4-1.8-6.6c0-1,0.1-2.2,0.4-3.7c0.7-3.8,2.8-6.7,6.4-8.9
			C3472.2,4.1,3476.8,3,3482,3 M3482,1c-5.6,0-10.5,1.2-14.6,3.6s-6.6,5.8-7.4,10.2c-0.3,1.6-0.4,2.9-0.4,4c0,3.1,0.7,5.7,2.1,7.8
			c1.4,2.1,3.1,3.7,5.1,4.9s4.4,2.4,7.4,3.6c2.7,1.2,4.6,2.2,5.9,3c1.2,0.8,1.9,1.9,1.9,3.2c0,1.1-0.3,1.9-1,2.5s-1.5,0.9-2.5,0.9
			c-2.6,0-3.8-1.6-3.5-4.8h-18.6c0.1,5.9,2,10.4,5.8,13.6c3.8,3.2,9.2,4.8,16,4.8c4.1,0,7.7-0.6,10.9-1.9c3.2-1.3,5.8-3,7.8-5.3
			s3.2-4.7,3.7-7.4c0.3-1.6,0.4-2.9,0.4-4c0-3.2-0.7-5.8-2.2-7.8s-3.1-3.7-5.1-4.8c-2-1.1-4.4-2.3-7.4-3.5c-2.6-1-4.4-2-5.6-2.7
			c-1.2-0.8-1.8-1.7-1.8-2.9c0-1,0.3-1.9,0.9-2.4c0.6-0.6,1.3-0.8,2.2-0.8c2.1,0,3.1,1.5,2.8,4.4h18.8c-0.2-5.7-2-10.1-5.5-13.3
			S3489.2,1,3482,1L3482,1z"/>
		<path class="st0" d="M3528.5,3.9l-9.1,51.7H3506l9.1-51.7L3528.5,3.9 M3530.9,1.9h-17.5l-9.8,55.7h17.5L3530.9,1.9L3530.9,1.9z"/>
		<path class="st0" d="M3565.4,3.4c4.4,0,8.2,0.8,11.3,2.3c3,1.5,5.2,3.6,6.8,6.2c1.2,2.1,2,4.5,2.4,7.1h-15.1
			c-0.7-1-1.6-1.7-2.7-2.3c-1.4-0.8-3.2-1.1-5.3-1.1c-3.9,0-7.2,1.3-9.8,3.8c-2.5,2.5-4.2,5.8-4.9,10c-0.3,1.6-0.4,3-0.4,4.1
			c0,3.7,1.1,6.5,3.3,8.4c2.1,1.8,5.2,2.8,9.3,2.8c4.6,0,8.7-1.8,12.1-5.5c0.5-0.6,0.7-1.4,0.4-2.2s-1-1.2-1.8-1.2h-11.5l1.5-8.3
			h24.3l-2.6,14.7c-5.9,9.3-14.7,13.8-26.9,13.8c-4.6,0-8.6-0.9-11.9-2.6c-3.3-1.7-5.7-4.1-7.4-7.2c-1.7-3.1-2.6-6.8-2.6-11
			c0-2,0.2-4,0.5-5.9c0.9-5,2.8-9.6,5.6-13.4c2.8-3.9,6.4-6.9,10.8-9.1C3555.1,4.5,3560,3.4,3565.4,3.4 M3565.4,1.4
			c-5.7,0-10.9,1.2-15.6,3.5c-4.7,2.3-8.5,5.6-11.6,9.8s-5,8.9-5.9,14.3c-0.4,2-0.6,4.1-0.6,6.3c0,4.6,0.9,8.6,2.8,12
			c1.9,3.4,4.6,6.1,8.2,8c3.6,1.9,7.9,2.8,12.9,2.8c12.9,0,22.5-5,28.8-15.1l3.1-17.5h-28.4l-2.2,12.3h13.9c-3,3.2-6.6,4.9-10.6,4.9
			c-3.6,0-6.3-0.8-8-2.3s-2.6-3.8-2.6-6.9c0-1,0.1-2.3,0.4-3.8c0.7-3.8,2.1-6.8,4.4-8.9c2.2-2.2,5-3.3,8.4-3.3
			c1.8,0,3.2,0.3,4.4,0.9s2,1.5,2.4,2.6h18.4c-0.2-3.8-1.1-7.1-2.8-10.1s-4.2-5.3-7.6-7S3570.2,1.4,3565.4,1.4L3565.4,1.4
			L3565.4,1.4z"/>
		<path class="st0" d="M3648.9,3.9l-9.1,51.7h-14.5l-13.1-26.9c-0.3-0.7-1-1.1-1.8-1.1c-0.1,0-0.2,0-0.3,0c-0.9,0.1-1.5,0.8-1.7,1.6
			l-4.6,26.3h-13.4l9.1-51.7h14.5l13,27.3c0.3,0.7,1,1.1,1.8,1.1c0.1,0,0.2,0,0.3,0c0.9-0.1,1.6-0.8,1.7-1.6l4.7-26.8L3648.9,3.9
			 M3651.2,1.9h-17.5l-4.9,28.5l-13.5-28.5h-17.5l-9.8,55.7h17.5l4.9-28l13.6,28h17.5L3651.2,1.9L3651.2,1.9L3651.2,1.9z"/>
		<path class="st0" d="M3676.5,3c6.6,0,11.6,1.4,14.7,4.2c2.7,2.4,4.2,5.6,4.7,9.8h-14.7c-0.1-1.2-0.6-2.2-1.3-3
			c-0.6-0.6-1.7-1.4-3.6-1.4c-1.3,0-2.6,0.5-3.5,1.4c-0.7,0.6-1.6,1.9-1.6,3.9c0,1.3,0.5,3.1,2.7,4.5c1.3,0.8,3.2,1.8,6,2.9
			c2.9,1.2,5.3,2.3,7.2,3.4c1.7,1,3.2,2.4,4.5,4.2c1.2,1.7,1.8,4,1.8,6.7c0,1-0.1,2.2-0.4,3.7c-0.4,2.4-1.4,4.5-3.2,6.5
			s-4.1,3.6-7,4.7c-2.9,1.2-6.4,1.8-10.2,1.8c-6.4,0-11.3-1.5-14.8-4.3c-2.9-2.5-4.6-5.8-5-10.1h14.5c0.1,1.3,0.6,2.4,1.3,3.2
			c1,1.1,2.4,1.6,4.1,1.6c1.5,0,2.8-0.5,3.8-1.3c0.8-0.7,1.7-1.9,1.7-4c0-1.3-0.5-3.3-2.7-4.8c-1.4-0.9-3.4-2-6.2-3.2
			s-5.2-2.3-7.1-3.4c-1.7-1-3.2-2.5-4.4-4.3c-1.2-1.7-1.8-4-1.8-6.6c0-1,0.1-2.2,0.4-3.7c0.7-3.8,2.8-6.7,6.4-8.9
			C3666.7,4.1,3671.3,3,3676.5,3 M3676.5,1c-5.6,0-10.5,1.2-14.6,3.6s-6.6,5.8-7.4,10.2c-0.3,1.6-0.4,2.9-0.4,4
			c0,3.1,0.7,5.7,2.1,7.8c1.4,2.1,3.1,3.7,5.1,4.9s4.4,2.4,7.4,3.6c2.7,1.2,4.6,2.2,5.9,3c1.2,0.8,1.9,1.9,1.9,3.2
			c0,1.1-0.3,1.9-1,2.5s-1.5,0.9-2.5,0.9c-2.6,0-3.8-1.6-3.5-4.8h-18.6c0.1,5.9,2,10.4,5.8,13.6c3.8,3.2,9.2,4.8,16,4.8
			c4.1,0,7.7-0.6,10.9-1.9c3.2-1.3,5.8-3,7.8-5.3s3.2-4.7,3.7-7.4c0.3-1.6,0.4-2.9,0.4-4c0-3.2-0.7-5.8-2.2-7.8s-3.1-3.7-5.1-4.8
			c-2-1.1-4.4-2.3-7.4-3.5c-2.6-1-4.4-2-5.6-2.7c-1.2-0.8-1.8-1.7-1.8-2.9c0-1,0.3-1.9,0.9-2.4c0.6-0.6,1.3-0.8,2.2-0.8
			c2.1,0,3.1,1.5,2.8,4.4h18.8c-0.2-5.7-2-10.1-5.5-13.3S3683.7,1,3676.5,1L3676.5,1z"/>
	</g>
</g>
</svg>
