<?xml version="1.0" encoding="utf-8"?>
<!-- Generator: Adobe Illustrator 26.3.1, SVG Export Plug-In . SVG Version: 6.00 Build 0)  -->
<svg version="1.1" id="Layer_2_00000092450137695428183450000002400346071365161867_"
	 xmlns="http://www.w3.org/2000/svg" xmlns:xlink="http://www.w3.org/1999/xlink" x="0px" y="0px" viewBox="0 0 3713.2 59.2"
	 style="enable-background:new 0 0 3713.2 59.2;" xml:space="preserve">
<style type="text/css">
	.st0{fill:#FACB32;}
</style>
<g id="Layer_1-2">
	<g>
		<path class="st0" d="M2835.7,1.9l-2.4,13.8h-14.8l-7.3,41.8h-17.5l7.3-41.8h-14.6l2.4-13.8H2835.7z"/>
		<path class="st0" d="M2891.9,1.9l-9.8,55.7h-17.4l3.8-21.7h-16.6l-3.8,21.7h-17.4l9.7-55.7h17.5l-3.5,20h16.6l3.5-20L2891.9,1.9
			L2891.9,1.9z"/>
		<path class="st0" d="M2914.8,15.8l-1.2,6.9h17.3l-2.4,13.1h-17.3l-1.3,7.9h19.7l-2.4,13.9h-37.1l9.8-55.7h37.1l-2.6,13.9H2914.8
			L2914.8,15.8z"/>
		<path class="st0" d="M2997,24.6c-2.1,2.2-4.6,3.7-7.6,4.4c2.7,0.7,4.8,2,6.3,3.9s2.2,4.2,2.2,6.8c0,0.8-0.1,1.7-0.2,2.6
			c-0.9,4.9-3.2,8.6-6.8,11.3c-3.7,2.7-8.5,4-14.6,4h-29.2l9.8-55.7h28.4c5.1,0,9,1,11.8,2.9c2.8,1.9,4.2,4.8,4.2,8.6
			c0,0.6-0.1,1.6-0.3,3C3000.4,19.7,2999.1,22.4,2997,24.6L2997,24.6z M2980.4,38.7c0-2-1.3-3-4-3h-8l-1.4,7.9h7.9
			c1.6,0,2.9-0.3,3.7-0.9c0.9-0.6,1.4-1.6,1.6-3C2980.3,39.5,2980.4,39.2,2980.4,38.7L2980.4,38.7z M2982.7,18.7
			c0-1.9-1.4-2.9-4.1-2.9h-6.8l-1.3,7.9h6.8c1.6,0,2.8-0.3,3.7-0.9s1.4-1.6,1.6-2.9C2982.7,19.3,2982.7,18.9,2982.7,18.7
			L2982.7,18.7z"/>
		<path class="st0" d="M3048.7,4.1c3.9,2.1,6.8,5,8.9,8.7c2,3.8,3.1,8.1,3.1,13c0,2-0.2,4.3-0.6,6.8c-0.9,5-2.7,9.4-5.4,13.2
			s-6.2,6.8-10.5,9s-9.1,3.2-14.5,3.2s-10.1-1-14-3.1c-3.9-2-6.8-4.9-8.9-8.7c-2.1-3.8-3-8-3-13c0-2.6,0.2-4.9,0.6-7.1
			c0.9-5,2.7-9.4,5.5-13.2c2.8-3.8,6.3-6.8,10.6-9s9-2.9,14.4-2.9C3040.3,1,3044.8,2,3048.7,4.1L3048.7,4.1z M3025.5,20.2
			c-2.1,2.1-3.5,4.9-4.2,8.5c-0.2,1-0.3,2.2-0.3,3.4c0,3,0.8,5.4,2.5,7.2s4.1,2.6,7.4,2.6c3.3,0,6-1,8.1-3.2
			c2.2-2.1,3.5-4.9,4.1-8.4c0.2-1.1,0.3-2.2,0.3-3.5c0-3.1-0.8-5.5-2.5-7.2c-1.6-1.7-4.1-2.6-7.3-2.6
			C3030.4,17,3027.7,18.2,3025.5,20.2L3025.5,20.2z"/>
		<path class="st0" d="M3124.8,1.9L3098,40.7l-2.9,16.9h-17.5l2.9-16.9l-13.1-38.8h20l5.4,19.7l12.3-19.7L3124.8,1.9L3124.8,1.9z"/>
		<path class="st0" d="M3222.3,1.9l-22.5,55.7h-21.7l-0.9-31.6l-12,31.6h-21.7l-3-55.7h18.8l-1.1,35.1l13.7-35.1h19l1.3,35.1
			l11.2-35.1H3222.3z"/>
		<path class="st0" d="M3280.1,1.9l-9.7,55.7h-17.5l3.8-21.7h-16.6l-3.8,21.7h-17.5l9.7-55.7h17.5l-3.5,20h16.6l3.5-20L3280.1,1.9
			L3280.1,1.9z"/>
		<path class="st0" d="M3326,4.1c3.9,2.1,6.8,5,8.9,8.7c2,3.8,3.1,8.1,3.1,13c0,2-0.2,4.3-0.6,6.8c-0.9,5-2.7,9.4-5.4,13.2
			s-6.2,6.8-10.5,9s-9.1,3.2-14.5,3.2c-5.4,0-10.1-1-14-3.1c-3.9-2-6.8-4.9-8.9-8.7c-2-3.7-3-8-3-13c0-2.6,0.2-4.9,0.6-7.1
			c0.9-5,2.7-9.4,5.5-13.2s6.3-6.8,10.6-9s9.1-2.9,14.5-2.9C3317.7,1,3322.2,2,3326,4.1L3326,4.1z M3302.8,20.2
			c-2.2,2.1-3.5,4.9-4.2,8.5c-0.2,1-0.3,2.2-0.3,3.4c0,3,0.8,5.4,2.5,7.2s4.1,2.6,7.3,2.6c3.2,0,6-1,8.1-3.2
			c2.2-2.1,3.5-4.9,4.1-8.4c0.2-1.1,0.3-2.2,0.3-3.5c0-3.1-0.8-5.5-2.5-7.2c-1.7-1.7-4.1-2.6-7.3-2.6
			C3307.6,17,3305,18.2,3302.8,20.2z"/>
		<path class="st0" d="M3403.2,43.9c-3.1,4.2-7,7.6-11.8,10c-4.8,2.4-10.1,3.7-15.9,3.7h-23.2L3362,2h23.2c5.1,0,9.5,0.9,13.2,2.8
			c3.7,1.9,6.5,4.5,8.4,7.8c1.9,3.3,2.9,7.2,2.9,11.5c0,1.7-0.2,3.6-0.5,5.6C3408.4,34.9,3406.3,39.7,3403.2,43.9L3403.2,43.9z
			 M3386.5,38.8c2.7-2.2,4.4-5.2,5.1-9.2c0.2-1.4,0.3-2.4,0.3-3c0-3-1-5.4-2.9-7c-1.9-1.6-4.6-2.4-8-2.4h-4.2l-4.4,24.8h4.2
			C3380.5,42,3383.8,41,3386.5,38.8z"/>
		<path class="st0" d="M3435.5,15.8l-1.2,6.9h17.3l-2.4,13.1h-17.3l-1.3,7.9h19.7l-2.4,13.9h-37.1l9.8-55.7h37.1l-2.4,13.8
			L3435.5,15.8L3435.5,15.8z"/>
		<path class="st0" d="M3496.5,51c-2,2.2-4.5,4-7.8,5.3s-6.8,1.9-10.9,1.9c-6.9,0-12.2-1.6-16-4.8c-3.8-3.2-5.8-7.7-5.8-13.6h18.6
			c-0.3,3.2,0.8,4.8,3.5,4.8c1,0,1.8-0.3,2.5-0.9c0.7-0.6,1-1.4,1-2.5c0-1.3-0.6-2.3-1.8-3.2c-1.2-0.9-3.2-1.8-5.9-3
			c-2.9-1.2-5.4-2.4-7.3-3.6c-2-1.2-3.7-2.8-5.1-4.9c-1.4-2.1-2.1-4.6-2.1-7.8c0-1.1,0.1-2.4,0.4-4c0.8-4.4,3.2-7.8,7.3-10.2
			c4.1-2.4,9-3.6,14.6-3.6c7.2,0,12.5,1.6,16,4.7c3.5,3.2,5.3,7.6,5.5,13.3h-18.8c0.3-2.9-0.7-4.4-2.8-4.4c-0.8,0-1.6,0.3-2.2,0.8
			c-0.6,0.6-0.9,1.4-0.9,2.4c0,1.1,0.6,2.1,1.8,2.9c1.2,0.8,3,1.7,5.6,2.7c3,1.2,5.5,2.4,7.4,3.5c2,1.1,3.7,2.7,5.1,4.8
			s2.2,4.7,2.2,7.8c0,1.1-0.1,2.4-0.4,4C3499.7,46.3,3498.4,48.7,3496.5,51L3496.5,51z"/>
		<path class="st0" d="M3530.5,1.9l-9.8,55.7h-17.5l9.8-55.7C3513,1.9,3530.5,1.9,3530.5,1.9z"/>
		<path class="st0" d="M3577.2,3.9c3.3,1.7,5.9,4,7.6,7s2.6,6.3,2.8,10.1h-18.4c-0.5-1.1-1.3-2-2.4-2.6c-1.2-0.6-2.6-0.9-4.4-0.9
			c-3.4,0-6.2,1.1-8.4,3.3c-2.2,2.2-3.7,5.1-4.4,8.9c-0.3,1.5-0.4,2.7-0.4,3.8c0,3.1,0.9,5.4,2.6,6.9s4.4,2.3,8,2.3
			c4,0,7.6-1.6,10.6-4.9h-13.9l2.2-12.3h28.4L3584,43c-6.2,10-15.8,15-28.8,15c-5,0-9.3-0.9-12.9-2.8c-3.6-1.9-6.3-4.5-8.2-8
			c-1.9-3.4-2.8-7.4-2.8-12c0-2.2,0.2-4.2,0.5-6.3c0.9-5.4,2.9-10.1,5.9-14.3s6.9-7.4,11.6-9.8s9.9-3.5,15.6-3.5
			C3569.8,1.4,3573.8,2.2,3577.2,3.9z"/>
		<path class="st0" d="M3641.1,57.6h-17.5l-13.6-28l-4.9,28h-17.5l9.8-55.7h17.5l13.5,28.5l5-28.5h17.5L3641.1,57.6L3641.1,57.6z"/>
		<path class="st0" d="M3691,51c-2,2.2-4.5,4-7.8,5.3s-6.8,1.9-10.9,1.9c-6.9,0-12.2-1.6-16-4.8c-3.8-3.2-5.8-7.7-5.8-13.6h18.6
			c-0.3,3.2,0.8,4.8,3.5,4.8c1,0,1.8-0.3,2.5-0.9c0.7-0.6,1-1.4,1-2.5c0-1.3-0.6-2.3-1.8-3.2c-1.2-0.9-3.2-1.8-5.9-3
			c-2.9-1.2-5.4-2.4-7.3-3.6c-2-1.2-3.7-2.8-5.1-4.9c-1.4-2.1-2.1-4.6-2.1-7.8c0-1.1,0.1-2.4,0.4-4c0.8-4.4,3.2-7.8,7.3-10.2
			c4.1-2.4,9-3.6,14.6-3.6c7.2,0,12.5,1.6,16,4.7c3.5,3.2,5.3,7.6,5.5,13.3h-18.8c0.3-2.9-0.7-4.4-2.8-4.4c-0.8,0-1.6,0.3-2.2,0.8
			c-0.6,0.6-0.9,1.4-0.9,2.4c0,1.1,0.6,2.1,1.8,2.9c1.2,0.8,3,1.7,5.6,2.7c3,1.2,5.5,2.4,7.4,3.5c2,1.1,3.7,2.7,5.1,4.8
			s2.2,4.7,2.2,7.8c0,1.1-0.1,2.4-0.4,4C3694.2,46.3,3693,48.7,3691,51L3691,51z"/>
	</g>
	<g>
		<path class="st0" d="M46.9,3.9l-1.7,9.8H32.1c-1,0-1.8,0.7-2,1.7l-7,40.2H9.7l6.9-39.5c0.1-0.6-0.1-1.2-0.4-1.6s-0.9-0.7-1.5-0.7
			H2.5L4.1,4L46.9,3.9 M49.3,2H2.4L0,15.8h14.6L7.3,57.6h17.5l7.3-41.8h14.8L49.3,2L49.3,2L49.3,2z"/>
		<path class="st0" d="M103.2,3.9l-9,51.7H80.8l3.4-19.4c0.1-0.6-0.1-1.2-0.4-1.6s-0.9-0.7-1.5-0.7H65.7c-1,0-1.8,0.7-2,1.7l-3.5,20
			H46.8l9-51.7h13.3L66,21.6c-0.1,0.6,0.1,1.2,0.4,1.6s0.9,0.7,1.5,0.7h16.6c1,0,1.8-0.7,2-1.6l3.2-18.4L103.2,3.9 M105.6,1.9H88.1
			l-3.5,20H68l3.5-20H54l-9.8,55.7h17.5l3.8-21.7h16.6l-3.8,21.7h17.5L105.6,1.9L105.6,1.9z"/>
		<path class="st0" d="M148.2,3.9l-1.7,9.8h-18c-1,0-1.8,0.7-2,1.7l-1.2,6.9c-0.1,0.6,0.1,1.2,0.4,1.6s0.9,0.7,1.5,0.7h14.9
			l-1.6,9.1h-15.6c-1,0-1.8,0.7-2,1.7l-1.3,7.9c-0.1,0.6,0.1,1.2,0.4,1.6c0.4,0.5,0.9,0.7,1.5,0.7h17.3l-1.7,9.9h-33l9.1-51.7
			L148.2,3.9 M150.5,1.9h-37.1l-9.8,55.7h37.1l2.4-13.9h-19.7l1.3-7.9H142l2.4-13.1h-17.3l1.2-6.9H148L150.5,1.9L150.5,1.9
			L150.5,1.9z"/>
		<path class="st0" d="M198.9,3.9c4.7,0,8.2,0.9,10.7,2.5c2.2,1.6,3.3,3.8,3.3,6.9c0,0.4-0.1,1.1-0.3,2.6c-0.5,2.9-1.7,5.2-3.5,7.2
			s-4,3.2-6.6,3.9c-0.9,0.2-1.5,1-1.5,1.9s0.6,1.7,1.5,1.9c2.3,0.6,4,1.6,5.2,3.2s1.8,3.4,1.8,5.6c0,0.7-0.1,1.5-0.2,2.2
			c-0.8,4.4-2.8,7.7-6,10c-3.3,2.4-7.8,3.6-13.4,3.6h-26.8l9.1-51.7L198.9,3.9 M184.2,25.6h6.8c2,0,3.6-0.5,4.8-1.3
			c1.3-0.9,2.1-2.3,2.4-4.2c0.1-0.7,0.2-1.1,0.2-1.5c0-1.1-0.4-4.9-6.1-4.9h-6.8c-1,0-1.8,0.7-2,1.7l-1.3,7.9
			c-0.1,0.6,0.1,1.2,0.4,1.6S183.6,25.6,184.2,25.6 M180.6,45.6h7.9c2.1,0,3.7-0.4,4.9-1.3c1.3-0.9,2.1-2.3,2.4-4.2
			c0.1-0.4,0.1-0.8,0.1-1.4c0-1.2-0.4-5-6-5H182c-1,0-1.8,0.7-2,1.7l-1.4,7.9c-0.1,0.6,0.1,1.2,0.4,1.6
			C179.5,45.3,180,45.6,180.6,45.6 M198.9,1.9h-28.4l-9.8,55.7h29.2c6,0,10.9-1.3,14.6-4s5.9-6.4,6.8-11.3c0.2-0.9,0.2-1.8,0.2-2.6
			c0-2.6-0.7-4.8-2.2-6.8s-3.6-3.2-6.3-3.9c2.9-0.7,5.4-2.2,7.6-4.4c2.1-2.2,3.4-5,4-8.2c0.2-1.4,0.3-2.4,0.3-3
			c0-3.8-1.4-6.6-4.2-8.6C207.9,2.9,204,1.9,198.9,1.9L198.9,1.9L198.9,1.9z M184.2,23.6l1.3-7.9h6.8c2.7,0,4.1,1,4.1,2.9
			c0,0.2-0.1,0.6-0.2,1.1c-0.2,1.3-0.8,2.3-1.6,2.9s-2.1,0.9-3.7,0.9h-6.7L184.2,23.6L184.2,23.6z M180.6,43.6l1.4-7.9h7.9
			c2.7,0,4,1,4,3c0,0.4,0,0.8-0.1,1c-0.2,1.4-0.8,2.3-1.6,3c-0.9,0.6-2.1,0.9-3.7,0.9H180.6L180.6,43.6z"/>
		<path class="st0" d="M248.6,3c4.9,0,9.2,1,12.8,2.9c3.5,1.9,6.2,4.5,8.1,7.9s2.8,7.5,2.8,12.1c0,1.9-0.2,4.1-0.6,6.5
			c-0.8,4.7-2.6,8.9-5.1,12.5s-5.8,6.4-9.8,8.4s-8.6,3-13.6,3s-9.5-1-13.1-2.8c-3.5-1.8-6.2-4.5-8-7.8c-1.8-3.4-2.8-7.5-2.8-12
			c0-2.4,0.2-4.7,0.6-6.7c0.8-4.7,2.6-8.8,5.1-12.4c2.6-3.5,5.9-6.3,9.8-8.3C238.9,4,243.5,3,248.6,3 M233,28.4
			c-0.2,1.2-0.3,2.4-0.3,3.8c0,3.6,1,6.4,3,8.5s5,3.2,8.8,3.2s7-1.2,9.5-3.7c2.5-2.4,4.1-5.6,4.7-9.5c0.2-1.2,0.3-2.5,0.3-3.8
			c0-3.6-1-6.5-3-8.6s-5-3.2-8.7-3.2s-7,1.2-9.6,3.7C235.3,21.2,233.7,24.4,233,28.4 M248.6,1c-5.4,0-10.2,1.1-14.6,3.2
			s-7.8,5.1-10.6,9c-2.8,3.8-4.6,8.2-5.5,13.2c-0.4,2.1-0.6,4.5-0.6,7.1c0,4.9,1,9.2,3,13s5,6.6,8.8,8.7c3.9,2,8.5,3.1,14,3.1
			s10.2-1.1,14.5-3.2c4.3-2.2,7.8-5.2,10.5-9s4.5-8.3,5.4-13.2c0.4-2.5,0.6-4.8,0.6-6.8c0-4.9-1-9.3-3.1-13c-2-3.8-5-6.7-8.9-8.7
			S253.9,1,248.6,1L248.6,1L248.6,1z M244.5,41.9c-3.2,0-5.7-0.9-7.3-2.6s-2.5-4.1-2.5-7.2c0-1.2,0.1-2.3,0.3-3.4
			c0.6-3.6,2-6.5,4.2-8.5s4.9-3.1,8.2-3.1s5.6,0.9,7.3,2.6c1.7,1.7,2.5,4.1,2.5,7.2c0,1.2-0.1,2.4-0.3,3.5c-0.6,3.5-1.9,6.3-4.1,8.4
			C250.5,40.9,247.7,41.9,244.5,41.9L244.5,41.9L244.5,41.9z"/>
		<path class="st0" d="M334.6,3.9L310,39.5c-0.2,0.2-0.3,0.5-0.3,0.8l-2.6,15.2h-13.4l2.5-14.6c0.1-0.3,0-0.7-0.1-1L283.9,3.8h15.7
			l5,18.3c0.2,0.8,0.8,1.3,1.6,1.5c0.1,0,0.2,0,0.3,0c0.7,0,1.3-0.4,1.7-0.9L320,3.9L334.6,3.9 M338.5,1.9h-19.7l-12.3,19.7
			l-5.4-19.7h-20l13.1,38.8l-2.9,16.9h17.5l2.9-16.9L338.5,1.9L338.5,1.9z"/>
		<path class="st0" d="M433,3.9l-20.9,51.7h-18.4l-0.9-29.7c0-1-0.7-1.8-1.7-1.9c-0.1,0-0.2,0-0.3,0c-0.8,0-1.6,0.5-1.9,1.3
			l-11.5,30.3h-18.3l-2.8-51.7h14.6l-1,33c0,1,0.6,1.8,1.6,2c0.1,0,0.3,0,0.4,0c0.8,0,1.6-0.5,1.9-1.3L387,3.8h15.7L404,37
			c0,1,0.8,1.8,1.7,1.9c0.1,0,0.2,0,0.3,0c0.9,0,1.6-0.5,1.9-1.4L418.6,4L433,3.9 M435.9,2h-18.8l-11.2,35l-1.3-35h-19l-13.7,35
			L373,1.9h-18.8l3,55.7h21.7L390.8,26l0.9,31.6h21.7L435.9,2L435.9,2L435.9,2z"/>
		<path class="st0" d="M491.4,3.9l-9.1,51.7h-13.4l3.4-19.4c0.1-0.6-0.1-1.2-0.4-1.6c-0.4-0.5-0.9-0.7-1.5-0.7h-16.6
			c-1,0-1.8,0.7-2,1.7l-3.5,20h-13.4L444,3.9h13.4l-3.1,17.7c-0.1,0.6,0.1,1.2,0.4,1.6s0.9,0.7,1.5,0.7h16.6c1,0,1.8-0.7,2-1.6
			L478,3.9L491.4,3.9 M493.8,1.9h-17.5l-3.5,20h-16.6l3.5-20h-17.5l-9.8,55.7h17.5l3.8-21.7h16.6l-3.8,21.7H484L493.8,1.9L493.8,1.9
			z"/>
		<path class="st0" d="M525.9,3c4.9,0,9.2,1,12.8,2.9c3.5,1.9,6.2,4.5,8.1,7.9s2.8,7.5,2.8,12.1c0,1.9-0.2,4.1-0.6,6.5
			c-0.8,4.7-2.6,8.9-5.1,12.5s-5.8,6.4-9.8,8.4s-8.6,3-13.6,3s-9.5-1-13.1-2.8c-3.5-1.8-6.2-4.5-8-7.8c-1.8-3.4-2.8-7.5-2.8-12
			c0-2.4,0.2-4.7,0.6-6.7c0.8-4.7,2.6-8.8,5.1-12.4c2.6-3.5,5.9-6.3,9.8-8.3C516.3,4,520.8,3,525.9,3 M510.3,28.4
			c-0.2,1.2-0.3,2.4-0.3,3.8c0,3.6,1,6.4,3,8.5s5,3.2,8.8,3.2s7-1.2,9.5-3.7c2.5-2.4,4.1-5.6,4.7-9.5c0.2-1.2,0.3-2.5,0.3-3.8
			c0-3.6-1-6.5-3-8.6s-5-3.2-8.7-3.2s-7,1.2-9.6,3.7C512.6,21.2,511.1,24.4,510.3,28.4 M525.9,1c-5.4,0-10.2,1.1-14.6,3.2
			s-7.8,5.1-10.6,9c-2.8,3.8-4.6,8.2-5.5,13.2c-0.4,2.1-0.6,4.5-0.6,7.1c0,4.9,1,9.2,3,13s5,6.6,8.8,8.7c3.9,2,8.5,3.1,14,3.1
			s10.2-1.1,14.5-3.2c4.3-2.2,7.8-5.2,10.5-9s4.5-8.3,5.4-13.2c0.4-2.5,0.6-4.8,0.6-6.8c0-4.9-1-9.3-3.1-13c-2-3.8-5-6.7-8.9-8.7
			S531.2,1,525.9,1L525.9,1L525.9,1z M521.8,41.9c-3.2,0-5.7-0.9-7.3-2.6s-2.5-4.1-2.5-7.2c0-1.2,0.1-2.3,0.3-3.4
			c0.6-3.6,2-6.5,4.2-8.5s4.9-3.1,8.2-3.1s5.6,0.9,7.3,2.6c1.7,1.7,2.5,4.1,2.5,7.2c0,1.2-0.1,2.4-0.3,3.5c-0.6,3.5-1.9,6.3-4.1,8.4
			C527.8,40.9,525.1,41.9,521.8,41.9L521.8,41.9L521.8,41.9z"/>
		<path class="st0" d="M598.9,3.9c4.8,0,8.9,0.9,12.3,2.6c3.3,1.7,5.9,4,7.6,7c1.8,3,2.6,6.5,2.6,10.5c0,1.6-0.2,3.4-0.4,5.2
			c-0.9,5-2.8,9.5-5.7,13.5c-2.9,4-6.6,7.1-11.1,9.4s-9.5,3.4-15,3.4h-20.8l9.1-51.7L598.9,3.9 M586.1,44h4.2
			c4.4,0,8.1-1.2,11.2-3.7s5-6,5.8-10.5c0.2-1.5,0.3-2.6,0.3-3.3c0-3.6-1.2-6.5-3.6-8.5c-2.3-1.9-5.4-2.9-9.3-2.9h-4.2
			c-1,0-1.8,0.7-2,1.6l-4.4,24.8c-0.1,0.6,0.1,1.2,0.4,1.6S585.5,44,586.1,44 M598.9,2h-23.2l-9.8,55.7h23.2
			c5.8,0,11.1-1.2,15.9-3.7s8.7-5.8,11.8-10s5.1-9,6.1-14.3c0.3-2,0.5-3.9,0.5-5.6c0-4.4-1-8.2-2.9-11.5s-4.7-5.9-8.4-7.8
			S604,1.9,598.9,2L598.9,2L598.9,2z M586.1,42l4.4-24.9h4.2c3.4,0,6.1,0.8,8,2.4s2.9,4,2.9,7c0,0.6-0.1,1.6-0.3,3
			c-0.7,4-2.4,7.1-5.1,9.2c-2.7,2.2-6,3.2-9.9,3.2L586.1,42L586.1,42z"/>
		<path class="st0" d="M668.8,3.9l-1.7,9.8h-18c-1,0-1.8,0.7-2,1.7l-1.2,6.9c-0.1,0.6,0.1,1.2,0.4,1.6s0.9,0.7,1.5,0.7h14.9
			l-1.6,9.1h-15.6c-1,0-1.8,0.7-2,1.7l-1.3,7.9c-0.1,0.6,0.1,1.2,0.4,1.6c0.4,0.5,0.9,0.7,1.5,0.7h17.3l-1.7,9.9h-33.1l9.1-51.7
			L668.8,3.9 M671.2,1.9h-37.1l-9.8,55.7h37.1l2.4-13.9h-19.7l1.3-7.9h17.3l2.4-13.1h-17.3l1.2-6.9h19.7L671.2,1.9L671.2,1.9
			L671.2,1.9z"/>
		<path class="st0" d="M695.2,3c6.6,0,11.6,1.4,14.7,4.2c2.7,2.4,4.2,5.6,4.7,9.8h-14.7c-0.2-1.2-0.6-2.2-1.3-3
			c-0.6-0.6-1.7-1.4-3.6-1.4c-1.3,0-2.6,0.5-3.5,1.4c-0.7,0.6-1.6,1.9-1.6,3.9c0,1.3,0.5,3.1,2.7,4.5c1.3,0.8,3.2,1.8,6,2.9
			c2.9,1.2,5.3,2.3,7.2,3.4c1.7,1,3.2,2.4,4.5,4.2c1.2,1.7,1.8,4,1.8,6.7c0,1-0.1,2.2-0.4,3.7c-0.4,2.4-1.4,4.5-3.2,6.5
			c-1.8,2-4.1,3.6-7,4.7c-2.9,1.2-6.4,1.8-10.2,1.8c-6.4,0-11.3-1.5-14.8-4.3c-2.9-2.5-4.6-5.8-5-10.1H686c0.2,1.3,0.6,2.4,1.3,3.2
			c1,1.1,2.4,1.6,4.1,1.6c1.5,0,2.8-0.5,3.8-1.3c0.8-0.7,1.7-1.9,1.7-4c0-1.3-0.5-3.3-2.7-4.8c-1.3-0.9-3.4-2-6.2-3.2
			c-2.8-1.2-5.2-2.3-7.1-3.4c-1.7-1-3.2-2.5-4.4-4.3c-1.2-1.7-1.8-4-1.8-6.6c0-1,0.1-2.2,0.4-3.7c0.7-3.8,2.8-6.7,6.4-8.9
			C685.4,4.1,690,3,695.2,3 M695.2,1c-5.6,0-10.5,1.2-14.6,3.6s-6.6,5.8-7.3,10.2c-0.3,1.6-0.4,2.9-0.4,4c0,3.1,0.7,5.7,2.1,7.8
			s3.1,3.7,5.1,4.9s4.4,2.4,7.3,3.6c2.7,1.2,4.6,2.2,5.9,3s1.8,1.9,1.8,3.2c0,1.1-0.3,1.9-1,2.5s-1.5,0.9-2.5,0.9
			c-2.6,0-3.8-1.6-3.5-4.8h-18.6c0.1,5.9,2,10.4,5.8,13.6c3.8,3.2,9.2,4.8,16,4.8c4.1,0,7.7-0.6,10.9-1.9c3.2-1.3,5.8-3,7.8-5.3
			s3.2-4.7,3.7-7.4c0.3-1.6,0.4-2.9,0.4-4c0-3.2-0.7-5.8-2.2-7.8c-1.4-2.1-3.2-3.7-5.1-4.8c-2-1.1-4.4-2.3-7.4-3.5
			c-2.6-1-4.4-2-5.6-2.7c-1.2-0.8-1.8-1.7-1.8-2.9c0-1,0.3-1.9,0.9-2.4c0.6-0.6,1.3-0.8,2.2-0.8c2.2,0,3.1,1.5,2.8,4.4h18.8
			c-0.2-5.7-2-10.1-5.5-13.3S702.4,1,695.2,1L695.2,1L695.2,1z"/>
		<path class="st0" d="M741.7,3.9l-9.1,51.7h-13.4l9.1-51.7L741.7,3.9 M744.1,1.9h-17.5l-9.8,55.7h17.5L744.1,1.9L744.1,1.9z"/>
		<path class="st0" d="M778.6,3.4c4.4,0,8.2,0.8,11.3,2.3c3,1.5,5.2,3.5,6.8,6.2c1.2,2.1,2,4.5,2.3,7.1h-15.1
			c-0.7-1-1.6-1.7-2.7-2.3c-1.4-0.8-3.2-1.1-5.3-1.1c-3.9,0-7.2,1.3-9.8,3.8c-2.5,2.5-4.2,5.8-4.9,10c-0.3,1.6-0.4,3-0.4,4.1
			c0,3.7,1.1,6.5,3.3,8.4c2.1,1.8,5.2,2.8,9.3,2.8c4.6,0,8.7-1.8,12.1-5.5c0.5-0.6,0.7-1.4,0.4-2.2s-1-1.2-1.8-1.2h-11.5l1.5-8.3
			h24.3l-2.6,14.7c-5.9,9.3-14.7,13.8-26.9,13.8c-4.6,0-8.6-0.9-11.9-2.6c-3.3-1.7-5.7-4.1-7.4-7.2c-1.7-3.1-2.6-6.8-2.6-11
			c0-2,0.2-4,0.5-5.9c0.9-5,2.8-9.6,5.6-13.4c2.8-3.9,6.4-6.9,10.8-9.1C768.3,4.5,773.2,3.4,778.6,3.4 M778.6,1.4
			c-5.7,0-10.9,1.2-15.6,3.5s-8.5,5.6-11.6,9.8c-3,4.2-5,8.9-5.9,14.3c-0.4,2-0.6,4.1-0.6,6.3c0,4.6,0.9,8.6,2.8,12
			c1.9,3.4,4.6,6.1,8.2,8s7.9,2.8,12.9,2.8c12.9,0,22.5-5,28.8-15.1l3.1-17.5h-28.4l-2.2,12.3H784c-3,3.2-6.6,4.9-10.6,4.9
			c-3.6,0-6.3-0.8-8-2.3s-2.6-3.8-2.6-6.9c0-1,0.1-2.3,0.4-3.8c0.7-3.8,2.1-6.8,4.4-8.9c2.2-2.2,5-3.3,8.4-3.3
			c1.8,0,3.2,0.3,4.4,0.9s2,1.5,2.4,2.6h18.4c-0.2-3.8-1.1-7.1-2.8-10.1c-1.7-3-4.2-5.3-7.6-7C787.5,2.2,783.4,1.4,778.6,1.4
			L778.6,1.4z"/>
		<path class="st0" d="M862.1,3.9L853,55.6h-14.5l-13.1-26.9c-0.3-0.7-1-1.1-1.8-1.1c-0.1,0-0.2,0-0.3,0c-0.9,0.1-1.5,0.8-1.7,1.6
			L817,55.5h-13.4l9.1-51.7h14.5l13,27.3c0.3,0.7,1,1.1,1.8,1.1c0.1,0,0.2,0,0.3,0c0.9-0.1,1.6-0.8,1.7-1.6l4.7-26.8L862.1,3.9
			 M864.5,1.9H847l-4.9,28.5L828.6,1.9h-17.5l-9.8,55.7h17.5l4.9-28l13.6,28h17.5L864.5,1.9L864.5,1.9L864.5,1.9z"/>
		<path class="st0" d="M889.7,3c6.6,0,11.6,1.4,14.7,4.2c2.7,2.4,4.2,5.6,4.7,9.8h-14.7c-0.2-1.2-0.6-2.2-1.3-3
			c-0.6-0.6-1.7-1.4-3.6-1.4c-1.3,0-2.6,0.5-3.5,1.4c-0.7,0.6-1.6,1.9-1.6,3.9c0,1.3,0.5,3.1,2.7,4.5c1.3,0.8,3.2,1.8,6,2.9
			c2.9,1.2,5.3,2.3,7.2,3.4c1.7,1,3.2,2.4,4.5,4.2c1.2,1.7,1.8,4,1.8,6.7c0,1-0.1,2.2-0.4,3.7c-0.4,2.4-1.4,4.5-3.2,6.5
			c-1.8,2-4.1,3.6-7,4.7c-2.9,1.2-6.4,1.8-10.2,1.8c-6.4,0-11.3-1.5-14.8-4.3c-2.9-2.5-4.6-5.8-5-10.1h14.5c0.2,1.3,0.6,2.4,1.3,3.2
			c1,1.1,2.4,1.6,4.1,1.6c1.5,0,2.8-0.5,3.8-1.3c0.8-0.7,1.7-1.9,1.7-4c0-1.3-0.5-3.3-2.7-4.8c-1.3-0.9-3.4-2-6.2-3.2
			c-2.8-1.2-5.2-2.3-7.1-3.4c-1.7-1-3.2-2.5-4.4-4.3c-1.2-1.7-1.8-4-1.8-6.6c0-1,0.1-2.2,0.4-3.7c0.7-3.8,2.8-6.7,6.4-8.9
			C880,4.1,884.5,3,889.7,3 M889.7,1c-5.6,0-10.5,1.2-14.6,3.6s-6.6,5.8-7.3,10.2c-0.3,1.6-0.4,2.9-0.4,4c0,3.1,0.7,5.7,2.1,7.8
			s3.1,3.7,5.1,4.9s4.4,2.4,7.3,3.6c2.7,1.2,4.6,2.2,5.9,3s1.8,1.9,1.8,3.2c0,1.1-0.3,1.9-1,2.5s-1.5,0.9-2.5,0.9
			c-2.6,0-3.8-1.6-3.5-4.8h-18.5c0.1,5.9,2,10.4,5.8,13.6c3.8,3.2,9.2,4.8,16,4.8c4.1,0,7.7-0.6,10.9-1.9c3.2-1.3,5.8-3,7.8-5.3
			s3.2-4.7,3.7-7.4c0.3-1.6,0.4-2.9,0.4-4c0-3.2-0.7-5.8-2.2-7.8c-1.4-2.1-3.2-3.7-5.1-4.8c-2-1.1-4.4-2.3-7.4-3.5
			c-2.6-1-4.4-2-5.6-2.7c-1.2-0.8-1.8-1.7-1.8-2.9c0-1,0.3-1.9,0.9-2.4c0.6-0.6,1.3-0.8,2.2-0.8c2.2,0,3.1,1.5,2.8,4.4h18.8
			c-0.2-5.7-2-10.1-5.5-13.3S896.9,1,889.7,1L889.7,1L889.7,1z"/>
	</g>
	<g>
		<path class="st0" d="M978.3,1.9l-2.4,13.8h-14.8l-7.3,41.8h-17.5l7.3-41.8H929l2.4-13.8L978.3,1.9L978.3,1.9z"/>
		<path class="st0" d="M1034.5,1.9l-9.8,55.7h-17.5l3.8-21.7h-16.6l-3.8,21.7h-17.5l9.8-55.7h17.5l-3.5,20h16.6l3.5-20
			C1017,1.9,1034.5,1.9,1034.5,1.9z"/>
		<path class="st0" d="M1057.4,15.8l-1.2,6.9h17.3l-2.4,13.1h-17.3l-1.3,7.9h19.7l-2.4,13.9h-37.1l9.8-55.7h37.1l-2.4,13.8
			L1057.4,15.8L1057.4,15.8z"/>
		<path class="st0" d="M1139.5,24.6c-2.1,2.2-4.6,3.7-7.6,4.4c2.7,0.7,4.8,2,6.3,3.9s2.2,4.2,2.2,6.8c0,0.8-0.1,1.7-0.2,2.6
			c-0.9,4.9-3.2,8.6-6.8,11.3c-3.7,2.7-8.5,4-14.6,4h-29.2l9.8-55.7h28.4c5.1,0,9,1,11.8,2.9s4.2,4.8,4.2,8.6c0,0.6-0.1,1.6-0.3,3
			C1143,19.7,1141.6,22.4,1139.5,24.6L1139.5,24.6z M1122.9,38.7c0-2-1.3-3-4-3h-7.9l-1.4,7.9h7.9c1.6,0,2.9-0.3,3.7-0.9
			c0.9-0.6,1.4-1.6,1.6-3C1122.9,39.5,1122.9,39.2,1122.9,38.7L1122.9,38.7z M1125.3,18.7c0-1.9-1.4-2.9-4.1-2.9h-6.8l-1.3,7.9h6.8
			c1.6,0,2.8-0.3,3.7-0.9s1.4-1.6,1.6-2.9C1125.2,19.3,1125.3,18.9,1125.3,18.7L1125.3,18.7z"/>
		<path class="st0" d="M1191.3,4.1c3.9,2.1,6.8,5,8.9,8.7c2,3.8,3.1,8.1,3.1,13c0,2-0.2,4.3-0.6,6.8c-0.9,5-2.7,9.4-5.4,13.2
			s-6.2,6.8-10.5,9s-9.1,3.2-14.5,3.2s-10.1-1-14-3.1c-3.9-2-6.8-4.9-8.9-8.7s-3-8-3-13c0-2.6,0.2-4.9,0.6-7.1
			c0.9-5,2.7-9.4,5.5-13.2s6.3-6.8,10.6-9s9-2.9,14.4-2.9S1187.4,2,1191.3,4.1L1191.3,4.1z M1168.1,20.2c-2.1,2.1-3.5,4.9-4.2,8.5
			c-0.2,1-0.3,2.2-0.3,3.4c0,3,0.8,5.4,2.5,7.2s4.1,2.6,7.4,2.6s6-1,8.1-3.2c2.2-2.1,3.6-4.9,4.1-8.4c0.2-1.1,0.3-2.2,0.3-3.5
			c0-3.1-0.8-5.5-2.5-7.2s-4.1-2.6-7.3-2.6S1170.2,18.2,1168.1,20.2z"/>
		<path class="st0" d="M1267.4,1.9l-26.8,38.8l-2.9,16.9h-17.5l2.9-16.9L1210,1.9h20l5.4,19.7l12.3-19.7
			C1247.7,1.9,1267.4,1.9,1267.4,1.9z"/>
		<path class="st0" d="M1364.9,1.9l-22.5,55.7h-21.7l-0.9-31.6l-11.9,31.6h-21.8l-3-55.7h18.8l-1.1,35.1l13.7-35.1h19l1.3,35.1
			l11.3-35.1H1364.9L1364.9,1.9z"/>
		<path class="st0" d="M1422.7,1.9l-9.8,55.7h-17.5l3.8-21.7h-16.6l-3.8,21.7h-17.5l9.8-55.7h17.5l-3.5,20h16.6l3.5-20
			C1405.2,1.9,1422.7,1.9,1422.7,1.9z"/>
		<path class="st0" d="M1468.6,4.1c3.9,2.1,6.8,5,8.9,8.7c2,3.8,3.1,8.1,3.1,13c0,2-0.2,4.3-0.6,6.8c-0.9,5-2.7,9.4-5.4,13.2
			s-6.2,6.8-10.5,9s-9.1,3.2-14.5,3.2s-10.1-1-14-3.1c-3.9-2-6.8-4.9-8.9-8.7s-3-8-3-13c0-2.6,0.2-4.9,0.6-7.1
			c0.9-5,2.7-9.4,5.5-13.2s6.3-6.8,10.6-9s9.1-3.2,14.6-3.2S1464.7,2,1468.6,4.1L1468.6,4.1z M1445.4,20.2c-2.1,2.1-3.5,4.9-4.2,8.5
			c-0.2,1-0.3,2.2-0.3,3.4c0,3,0.8,5.4,2.5,7.2s4.1,2.6,7.4,2.6s6-1,8.1-3.2c2.2-2.1,3.6-4.9,4.1-8.4c0.2-1.1,0.3-2.2,0.3-3.5
			c0-3.1-0.8-5.5-2.5-7.2s-4.1-2.6-7.3-2.6S1447.5,18.2,1445.4,20.2z"/>
		<path class="st0" d="M1545.8,43.9c-3.1,4.2-7,7.6-11.8,10s-10.1,3.7-15.9,3.7h-23.2l9.8-55.7h23.2c5.1,0,9.5,0.9,13.2,2.8
			s6.5,4.5,8.4,7.8s2.9,7.2,2.9,11.5c0,1.7-0.2,3.6-0.5,5.6C1550.9,34.9,1548.9,39.7,1545.8,43.9L1545.8,43.9z M1529.1,38.8
			c2.7-2.2,4.4-5.2,5.1-9.2c0.2-1.4,0.3-2.4,0.3-3c0-3-1-5.4-2.9-7s-4.6-2.4-8-2.4h-4.2l-4.4,24.9h4.2
			C1523.1,42,1526.4,41,1529.1,38.8L1529.1,38.8z"/>
		<path class="st0" d="M1578,15.8l-1.2,6.9h17.3l-2.4,13.1h-17.3l-1.3,7.9h19.7l-2.4,13.9h-37.1l9.8-55.7h37.1l-2.4,13.8L1578,15.8
			L1578,15.8z"/>
		<path class="st0" d="M1639,51c-2,2.2-4.6,4-7.8,5.3s-6.8,1.9-10.9,1.9c-6.9,0-12.2-1.6-16-4.8s-5.8-7.7-5.8-13.6h18.6
			c-0.3,3.2,0.8,4.8,3.5,4.8c1,0,1.8-0.3,2.5-0.9c0.7-0.6,1-1.4,1-2.5c0-1.3-0.6-2.3-1.9-3.2s-3.2-1.8-5.9-3
			c-2.9-1.2-5.4-2.4-7.4-3.6c-2-1.2-3.7-2.8-5.1-4.9c-1.4-2.1-2.1-4.6-2.1-7.8c0-1.1,0.1-2.4,0.4-4c0.8-4.4,3.2-7.8,7.4-10.2
			c4.1-2.4,9-3.6,14.6-3.6c7.2,0,12.5,1.6,16,4.7s5.4,7.6,5.5,13.3h-18.8c0.3-2.9-0.7-4.4-2.8-4.4c-0.8,0-1.6,0.3-2.2,0.8
			c-0.6,0.6-0.9,1.4-0.9,2.4c0,1.1,0.6,2.1,1.8,2.9s3.1,1.7,5.6,2.7c3,1.2,5.5,2.4,7.4,3.5c2,1.1,3.7,2.7,5.1,4.8
			c1.4,2.1,2.2,4.7,2.2,7.8c0,1.1-0.1,2.4-0.4,4C1642.2,46.3,1641,48.7,1639,51z"/>
		<path class="st0" d="M1673,1.9l-9.8,55.7h-17.5l9.8-55.7C1655.6,1.9,1673,1.9,1673,1.9z"/>
		<path class="st0" d="M1719.7,3.9c3.4,1.7,5.9,4,7.6,7c1.7,3,2.6,6.3,2.8,10.1h-18.4c-0.5-1.1-1.3-2-2.4-2.6
			c-1.1-0.6-2.6-0.9-4.4-0.9c-3.4,0-6.1,1.1-8.4,3.3c-2.2,2.2-3.7,5.1-4.4,8.9c-0.3,1.5-0.4,2.7-0.4,3.8c0,3.1,0.9,5.4,2.6,6.9
			s4.4,2.3,8,2.3c4,0,7.6-1.6,10.6-4.9h-13.8l2.2-12.3h28.4l-3.1,17.5c-6.2,10.1-15.8,15.1-28.8,15.1c-5,0-9.3-0.9-12.9-2.8
			c-3.6-1.9-6.3-4.5-8.2-8s-2.8-7.4-2.8-12c0-2.2,0.2-4.2,0.6-6.3c0.9-5.4,2.9-10.1,5.9-14.3s6.9-7.4,11.6-9.8s9.9-3.5,15.6-3.5
			C1712.3,1.4,1716.4,2.2,1719.7,3.9L1719.7,3.9z"/>
		<path class="st0" d="M1783.7,57.6h-17.5l-13.6-28l-4.9,28h-17.5l9.8-55.7h17.5l13.5,28.5l4.9-28.5h17.5L1783.7,57.6L1783.7,57.6z"
			/>
		<path class="st0" d="M1833.6,51c-2,2.2-4.6,4-7.8,5.3s-6.8,1.9-10.9,1.9c-6.9,0-12.2-1.6-16-4.8s-5.8-7.7-5.8-13.6h18.6
			c-0.3,3.2,0.8,4.8,3.5,4.8c1,0,1.8-0.3,2.5-0.9c0.7-0.6,1-1.4,1-2.5c0-1.3-0.6-2.3-1.9-3.2s-3.2-1.8-5.9-3
			c-2.9-1.2-5.4-2.4-7.4-3.6c-2-1.2-3.7-2.8-5.1-4.9c-1.4-2.1-2.1-4.6-2.1-7.8c0-1.1,0.1-2.4,0.4-4c0.8-4.4,3.2-7.8,7.4-10.2
			c4.1-2.4,9-3.6,14.6-3.6c7.2,0,12.5,1.6,16,4.7s5.4,7.6,5.5,13.3h-18.8c0.3-2.9-0.7-4.4-2.8-4.4c-0.8,0-1.6,0.3-2.2,0.8
			c-0.6,0.6-0.9,1.4-0.9,2.4c0,1.1,0.6,2.1,1.8,2.9s3.1,1.7,5.6,2.7c3,1.2,5.5,2.4,7.4,3.5c2,1.1,3.7,2.7,5.1,4.8
			c1.4,2.1,2.2,4.7,2.2,7.8c0,1.1-0.1,2.4-0.4,4C1836.7,46.3,1835.5,48.7,1833.6,51z"/>
	</g>
	<g>
		<path class="st0" d="M1904.8,3.9l-1.7,9.8H1890c-1,0-1.8,0.7-2,1.7l-7,40.2h-13.4l6.9-39.5c0.1-0.6-0.1-1.2-0.4-1.6
			s-0.9-0.7-1.5-0.7h-12.2l1.7-9.8L1904.8,3.9 M1907.2,2h-46.9l-2.4,13.8h14.6l-7.3,41.8h17.5l7.3-41.8h14.8L1907.2,2L1907.2,2
			L1907.2,2z"/>
		<path class="st0" d="M1961,3.9l-9.1,51.7h-13.4l3.4-19.4c0.1-0.6-0.1-1.2-0.4-1.6s-0.9-0.7-1.5-0.7h-16.6c-1,0-1.8,0.7-2,1.7
			l-3.5,20h-13.4l9.1-51.7h13.4l-3.1,17.7c-0.1,0.6,0.1,1.2,0.4,1.6s0.9,0.7,1.5,0.7h16.6c1,0,1.8-0.7,2-1.6l3.2-18.4L1961,3.9
			 M1963.4,1.9h-17.5l-3.5,20h-16.6l3.5-20h-17.5l-9.8,55.7h17.5l3.8-21.7h16.6l-3.8,21.7h17.5L1963.4,1.9L1963.4,1.9z"/>
		<path class="st0" d="M2006,3.9l-1.7,9.8h-18c-1,0-1.8,0.7-2,1.7l-1.2,6.9c-0.1,0.6,0.1,1.2,0.4,1.6c0.4,0.5,0.9,0.7,1.5,0.7h14.9
			l-1.6,9.1h-15.6c-1,0-1.8,0.7-2,1.7l-1.3,7.9c-0.1,0.6,0.1,1.2,0.4,1.6s0.9,0.7,1.5,0.7h17.3l-1.7,9.9h-33.1l9.1-51.7L2006,3.9
			 M2008.4,1.9h-37.1l-9.8,55.7h37.1l2.4-13.9h-19.7l1.3-7.9h17.3l2.4-13.1h-17.2l1.2-6.9h19.7L2008.4,1.9L2008.4,1.9L2008.4,1.9z"
			/>
		<path class="st0" d="M2056.7,3.9c4.6,0,8.2,0.9,10.7,2.5c2.2,1.6,3.3,3.8,3.3,6.9c0,0.4-0.1,1.1-0.3,2.6c-0.5,2.9-1.7,5.2-3.5,7.2
			c-1.9,2-4,3.2-6.6,3.9c-0.9,0.2-1.5,1-1.5,1.9s0.6,1.7,1.5,1.9c2.3,0.6,4,1.6,5.2,3.2s1.8,3.4,1.8,5.6c0,0.7-0.1,1.5-0.2,2.2
			c-0.8,4.4-2.8,7.7-6,10c-3.3,2.4-7.8,3.6-13.4,3.6h-26.8l9.1-51.7L2056.7,3.9 M2042,25.6h6.8c2,0,3.6-0.5,4.8-1.3
			c1.3-0.9,2.1-2.3,2.4-4.2c0.1-0.7,0.2-1.1,0.2-1.5c0-1.1-0.4-4.9-6.1-4.9h-6.8c-1,0-1.8,0.7-2,1.7l-1.3,7.9
			c-0.1,0.6,0.1,1.2,0.4,1.6S2041.4,25.6,2042,25.6 M2038.5,45.6h7.9c2.1,0,3.7-0.4,4.9-1.3c1.3-0.9,2.1-2.3,2.4-4.2
			c0.1-0.4,0.1-0.8,0.1-1.4c0-1.2-0.4-5-6-5h-7.9c-1,0-1.8,0.7-2,1.7l-1.4,7.9c-0.1,0.6,0.1,1.2,0.4,1.6
			C2037.3,45.3,2037.9,45.6,2038.5,45.6 M2056.7,1.9h-28.4l-9.8,55.7h29.2c6,0,10.9-1.3,14.6-4c3.7-2.7,5.9-6.4,6.8-11.3
			c0.2-0.9,0.2-1.8,0.2-2.6c0-2.6-0.7-4.8-2.2-6.8s-3.6-3.2-6.3-3.9c2.9-0.7,5.4-2.2,7.6-4.4s3.4-5,4-8.2c0.2-1.4,0.3-2.4,0.3-3
			c0-3.8-1.4-6.6-4.2-8.6C2065.8,2.9,2061.8,1.9,2056.7,1.9L2056.7,1.9L2056.7,1.9z M2042,23.6l1.3-7.9h6.8c2.7,0,4.1,1,4.1,2.9
			c0,0.2-0.1,0.6-0.2,1.1c-0.2,1.3-0.8,2.3-1.6,2.9c-0.9,0.6-2.1,0.9-3.7,0.9h-6.7L2042,23.6L2042,23.6z M2038.5,43.6l1.4-7.9h7.9
			c2.7,0,4,1,4,3c0,0.4,0,0.8-0.1,1c-0.2,1.4-0.8,2.3-1.6,3c-0.9,0.6-2.1,0.9-3.7,0.9H2038.5L2038.5,43.6z"/>
		<path class="st0" d="M2106.4,3c4.9,0,9.2,1,12.8,2.9c3.5,1.9,6.2,4.5,8.1,7.9c1.9,3.4,2.8,7.5,2.8,12.1c0,1.9-0.2,4.1-0.6,6.5
			c-0.8,4.7-2.6,8.9-5.1,12.5s-5.8,6.4-9.8,8.4s-8.6,3-13.6,3s-9.5-1-13.1-2.8c-3.5-1.8-6.2-4.5-8-7.8c-1.9-3.4-2.8-7.5-2.8-12
			c0-2.4,0.2-4.7,0.6-6.7c0.8-4.7,2.6-8.8,5.1-12.4c2.6-3.5,5.9-6.3,9.9-8.3C2096.8,4,2101.4,3,2106.4,3 M2090.9,28.4
			c-0.2,1.2-0.4,2.4-0.4,3.8c0,3.6,1,6.4,3,8.5s5,3.2,8.8,3.2s7-1.2,9.5-3.7c2.5-2.4,4.1-5.6,4.7-9.5c0.2-1.2,0.4-2.5,0.4-3.8
			c0-3.6-1-6.5-3-8.6s-5-3.2-8.7-3.2s-7,1.2-9.6,3.7C2093.2,21.2,2091.6,24.4,2090.9,28.4 M2106.4,1c-5.4,0-10.2,1.1-14.6,3.2
			s-7.8,5.1-10.6,9c-2.8,3.8-4.6,8.2-5.5,13.2c-0.4,2.1-0.6,4.5-0.6,7.1c0,4.9,1,9.2,3,13s5,6.6,8.9,8.7c3.9,2,8.5,3.1,14,3.1
			s10.2-1.1,14.5-3.2c4.3-2.2,7.8-5.2,10.5-9s4.5-8.3,5.4-13.2c0.4-2.5,0.6-4.8,0.6-6.8c0-4.9-1-9.3-3.1-13c-2-3.8-5-6.7-8.9-8.7
			C2116.3,2.1,2111.7,1,2106.4,1L2106.4,1L2106.4,1z M2102.3,41.9c-3.2,0-5.7-0.9-7.4-2.6c-1.6-1.7-2.5-4.1-2.5-7.2
			c0-1.2,0.1-2.3,0.3-3.4c0.6-3.6,2-6.5,4.2-8.5s4.9-3.1,8.2-3.1s5.6,0.9,7.3,2.6c1.6,1.7,2.5,4.1,2.5,7.2c0,1.2-0.1,2.4-0.3,3.5
			c-0.6,3.5-1.9,6.3-4.1,8.4C2108.3,40.9,2105.6,41.9,2102.3,41.9L2102.3,41.9z"/>
		<path class="st0" d="M2192.5,3.9l-24.6,35.6c-0.2,0.2-0.3,0.5-0.3,0.8l-2.6,15.2h-13.4l2.5-14.6c0.1-0.3,0-0.7-0.1-1l-12.2-36.1
			h15.7l5,18.3c0.2,0.8,0.9,1.3,1.6,1.5c0.1,0,0.2,0,0.3,0c0.7,0,1.3-0.4,1.7-0.9l11.8-18.8L2192.5,3.9 M2196.3,1.9h-19.7
			l-12.4,19.7l-5.4-19.7h-20l13.1,38.8l-2.9,16.9h17.5l2.9-16.9L2196.3,1.9L2196.3,1.9z"/>
		<path class="st0" d="M2290.9,3.9L2270,55.6h-18.4l-0.9-29.7c0-1-0.7-1.8-1.7-1.9c-0.1,0-0.2,0-0.3,0c-0.8,0-1.6,0.5-1.9,1.3
			l-11.5,30.3h-18.4l-2.8-51.7h14.6l-1,33c0,1,0.6,1.8,1.6,2c0.1,0,0.3,0,0.4,0c0.8,0,1.6-0.5,1.9-1.3l13.2-33.8h15.7l1.3,33.2
			c0,1,0.8,1.8,1.7,1.9c0.1,0,0.2,0,0.3,0c0.9,0,1.6-0.5,1.9-1.4L2276.5,4L2290.9,3.9 M2293.8,2H2275l-11.2,35l-1.4-35h-19l-13.7,35
			l1.1-35.1H2212l3,55.7h21.7l11.9-31.6l0.9,31.6h21.7L2293.8,2L2293.8,2L2293.8,2z"/>
		<path class="st0" d="M2349.2,3.9l-9.1,51.7h-13.4l3.4-19.4c0.1-0.6-0.1-1.2-0.4-1.6s-0.9-0.7-1.5-0.7h-16.6c-1,0-1.8,0.7-2,1.7
			l-3.5,20h-13.4l9.1-51.7h13.4l-3.1,17.7c-0.1,0.6,0.1,1.2,0.4,1.6s0.9,0.7,1.5,0.7h16.6c1,0,1.8-0.7,2-1.6l3.2-18.4L2349.2,3.9
			 M2351.6,1.9h-17.5l-3.5,20H2314l3.5-20h-17.4l-9.8,55.7h17.5l3.8-21.7h16.6l-3.8,21.7h17.5L2351.6,1.9L2351.6,1.9z"/>
		<path class="st0" d="M2383.8,3c4.9,0,9.2,1,12.8,2.9c3.5,1.9,6.2,4.5,8.1,7.9c1.9,3.4,2.8,7.5,2.8,12.1c0,1.9-0.2,4.1-0.6,6.5
			c-0.8,4.7-2.6,8.9-5.1,12.5s-5.8,6.4-9.8,8.4s-8.6,3-13.6,3s-9.5-1-13.1-2.8c-3.5-1.8-6.2-4.5-8-7.8c-1.9-3.4-2.8-7.5-2.8-12
			c0-2.4,0.2-4.7,0.6-6.7c0.8-4.7,2.6-8.8,5.1-12.4c2.6-3.5,5.9-6.3,9.9-8.3C2374.1,4,2378.7,3,2383.8,3 M2368.2,28.4
			c-0.2,1.2-0.4,2.4-0.4,3.8c0,3.6,1,6.4,3,8.5s5,3.2,8.8,3.2s7-1.2,9.5-3.7c2.5-2.4,4.1-5.6,4.7-9.5c0.2-1.2,0.4-2.5,0.4-3.8
			c0-3.6-1-6.5-3-8.6s-5-3.2-8.7-3.2s-7,1.2-9.6,3.7C2370.5,21.2,2368.9,24.4,2368.2,28.4 M2383.8,1c-5.4,0-10.2,1.1-14.6,3.2
			s-7.8,5.1-10.6,9c-2.8,3.8-4.6,8.2-5.5,13.2c-0.4,2.1-0.6,4.5-0.6,7.1c0,4.9,1,9.2,3,13s5,6.6,8.9,8.7c3.9,2,8.5,3.1,14,3.1
			s10.2-1.1,14.5-3.2c4.3-2.2,7.8-5.2,10.5-9s4.5-8.3,5.4-13.2c0.4-2.5,0.6-4.8,0.6-6.8c0-4.9-1-9.3-3.1-13c-2-3.8-5-6.7-8.9-8.7
			C2393.7,2.1,2389.1,1,2383.8,1L2383.8,1L2383.8,1z M2379.7,41.9c-3.2,0-5.7-0.9-7.4-2.6c-1.6-1.7-2.5-4.1-2.5-7.2
			c0-1.2,0.1-2.3,0.3-3.4c0.6-3.6,2-6.5,4.2-8.5s4.9-3.1,8.2-3.1s5.6,0.9,7.3,2.6c1.6,1.7,2.5,4.1,2.5,7.2c0,1.2-0.1,2.4-0.3,3.5
			c-0.6,3.5-1.9,6.3-4.1,8.4C2385.6,40.9,2382.9,41.9,2379.7,41.9L2379.7,41.9z"/>
		<path class="st0" d="M2456.7,3.9c4.8,0,8.9,0.9,12.3,2.6c3.3,1.7,5.9,4,7.6,7c1.8,3,2.6,6.5,2.6,10.5c0,1.6-0.1,3.4-0.4,5.2
			c-0.9,5-2.8,9.5-5.7,13.5s-6.6,7.1-11.1,9.4s-9.5,3.4-15,3.4h-20.8l9.1-51.7L2456.7,3.9 M2443.9,44h4.2c4.4,0,8.1-1.2,11.2-3.7
			c3.1-2.5,5-6,5.8-10.5c0.2-1.5,0.3-2.5,0.3-3.3c0-3.6-1.2-6.5-3.6-8.5c-2.3-1.9-5.4-2.9-9.3-2.9h-4.2c-1,0-1.8,0.7-2,1.6
			l-4.4,24.8c-0.1,0.6,0.1,1.2,0.4,1.6S2443.3,44,2443.9,44 M2456.7,2h-23.2l-9.8,55.7h23.2c5.8,0,11.1-1.2,15.9-3.7
			c4.8-2.4,8.7-5.8,11.8-10s5.1-9,6.1-14.3c0.3-2,0.5-3.9,0.5-5.6c0-4.4-1-8.2-2.9-11.5s-4.8-5.9-8.4-7.8
			C2466.3,2.9,2461.9,1.9,2456.7,2L2456.7,2L2456.7,2z M2443.9,42l4.4-24.9h4.2c3.4,0,6.1,0.8,8,2.4s2.9,4,2.9,7
			c0,0.6-0.1,1.6-0.3,3c-0.7,4-2.4,7.1-5.1,9.2c-2.7,2.2-6,3.2-9.9,3.2L2443.9,42L2443.9,42z"/>
		<path class="st0" d="M2526.7,3.9l-1.7,9.8h-18c-1,0-1.8,0.7-2,1.7l-1.2,6.9c-0.1,0.6,0.1,1.2,0.4,1.6c0.4,0.5,0.9,0.7,1.5,0.7
			h14.9l-1.6,9.1h-15.6c-1,0-1.8,0.7-2,1.7l-1.3,7.9c-0.1,0.6,0.1,1.2,0.4,1.6s0.9,0.7,1.5,0.7h17.3l-1.7,9.9h-33.1l9.1-51.7
			L2526.7,3.9 M2529.1,1.9H2492l-9.8,55.7h37.1l2.4-13.9h-19.6l1.3-7.9h17.3l2.4-13.1h-17.3l1.2-6.9h19.7L2529.1,1.9L2529.1,1.9
			L2529.1,1.9z"/>
		<path class="st0" d="M2553.1,3c6.6,0,11.6,1.4,14.7,4.2c2.7,2.4,4.2,5.6,4.7,9.8h-14.7c-0.1-1.2-0.6-2.2-1.3-3
			c-0.6-0.6-1.7-1.4-3.6-1.4c-1.3,0-2.6,0.5-3.5,1.4c-0.7,0.6-1.6,1.9-1.6,3.9c0,1.3,0.5,3.1,2.7,4.5c1.3,0.8,3.2,1.8,6,2.9
			c2.9,1.2,5.3,2.3,7.2,3.4c1.7,1,3.2,2.4,4.5,4.2c1.2,1.7,1.8,4,1.8,6.7c0,1-0.1,2.2-0.4,3.7c-0.4,2.4-1.4,4.5-3.2,6.5
			s-4.1,3.6-7,4.7c-2.9,1.2-6.4,1.8-10.2,1.8c-6.4,0-11.3-1.5-14.8-4.3c-2.9-2.5-4.6-5.8-5-10.1h14.5c0.1,1.3,0.6,2.4,1.3,3.2
			c1,1.1,2.4,1.6,4.1,1.6c1.5,0,2.8-0.5,3.8-1.3c0.8-0.7,1.7-1.9,1.7-4c0-1.3-0.5-3.3-2.7-4.8c-1.4-0.9-3.4-2-6.2-3.2
			s-5.2-2.3-7.1-3.4c-1.7-1-3.2-2.5-4.4-4.3c-1.2-1.7-1.8-4-1.8-6.6c0-1,0.1-2.2,0.4-3.7c0.7-3.8,2.8-6.7,6.4-8.9
			C2543.3,4.1,2547.9,3,2553.1,3 M2553.1,1c-5.6,0-10.5,1.2-14.6,3.6s-6.6,5.8-7.4,10.2c-0.3,1.6-0.4,2.9-0.4,4
			c0,3.1,0.7,5.7,2.1,7.8c1.4,2.1,3.1,3.7,5.1,4.9s4.4,2.4,7.4,3.6c2.7,1.2,4.6,2.2,5.9,3c1.2,0.8,1.9,1.9,1.9,3.2
			c0,1.1-0.3,1.9-1,2.5s-1.5,0.9-2.5,0.9c-2.6,0-3.8-1.6-3.5-4.8h-18.6c0.1,5.9,2,10.4,5.8,13.6c3.8,3.2,9.2,4.8,16,4.8
			c4.1,0,7.7-0.6,10.9-1.9c3.2-1.3,5.8-3,7.8-5.3s3.2-4.7,3.7-7.4c0.3-1.6,0.4-2.9,0.4-4c0-3.2-0.7-5.8-2.2-7.8s-3.1-3.7-5.1-4.8
			c-2-1.1-4.4-2.3-7.4-3.5c-2.6-1-4.4-2-5.6-2.7c-1.2-0.8-1.8-1.7-1.8-2.9c0-1,0.3-1.9,0.9-2.4c0.6-0.6,1.3-0.8,2.2-0.8
			c2.1,0,3.1,1.5,2.8,4.4h18.8c-0.2-5.7-2-10.1-5.5-13.3S2560.3,1,2553.1,1L2553.1,1z"/>
		<path class="st0" d="M2599.6,3.9l-9.1,51.7h-13.4l9.1-51.7L2599.6,3.9 M2602,1.9h-17.5l-9.8,55.7h17.5L2602,1.9L2602,1.9z"/>
		<path class="st0" d="M2636.5,3.4c4.4,0,8.2,0.8,11.3,2.3c3,1.5,5.2,3.6,6.8,6.2c1.2,2.1,2,4.5,2.4,7.1h-15.1
			c-0.7-1-1.6-1.7-2.7-2.3c-1.4-0.8-3.2-1.1-5.3-1.1c-3.9,0-7.2,1.3-9.8,3.8c-2.5,2.5-4.2,5.8-4.9,10c-0.3,1.6-0.4,3-0.4,4.1
			c0,3.7,1.1,6.5,3.3,8.4c2.1,1.8,5.2,2.8,9.3,2.8c4.6,0,8.7-1.8,12.1-5.5c0.5-0.6,0.7-1.4,0.4-2.2s-1-1.2-1.8-1.2h-11.5l1.5-8.3
			h24.3l-2.6,14.7c-5.9,9.3-14.7,13.8-26.9,13.8c-4.6,0-8.6-0.9-11.9-2.6c-3.3-1.7-5.7-4.1-7.4-7.2c-1.7-3.1-2.6-6.8-2.6-11
			c0-2,0.2-4,0.5-5.9c0.9-5,2.8-9.6,5.6-13.4c2.8-3.9,6.4-6.9,10.8-9.1C2626.2,4.5,2631.1,3.4,2636.5,3.4 M2636.5,1.4
			c-5.7,0-10.9,1.2-15.6,3.5c-4.7,2.3-8.5,5.6-11.6,9.8s-5,8.9-5.9,14.3c-0.4,2-0.6,4.1-0.6,6.3c0,4.6,0.9,8.6,2.8,12
			c1.9,3.4,4.6,6.1,8.2,8c3.6,1.9,7.9,2.8,12.9,2.8c12.9,0,22.5-5,28.8-15.1l3.1-17.5h-28.4l-2.2,12.3h13.9c-3,3.2-6.6,4.9-10.6,4.9
			c-3.6,0-6.3-0.8-8-2.3s-2.6-3.8-2.6-6.9c0-1,0.1-2.3,0.4-3.8c0.7-3.8,2.1-6.8,4.4-8.9c2.2-2.2,5-3.3,8.4-3.3
			c1.8,0,3.2,0.3,4.4,0.9s2,1.5,2.4,2.6h18.4c-0.2-3.8-1.1-7.1-2.8-10.1s-4.2-5.3-7.6-7S2641.3,1.4,2636.5,1.4L2636.5,1.4
			L2636.5,1.4z"/>
		<path class="st0" d="M2720,3.9l-9.1,51.7h-14.5l-13.1-26.9c-0.3-0.7-1-1.1-1.8-1.1c-0.1,0-0.2,0-0.3,0c-0.9,0.1-1.5,0.8-1.7,1.6
			l-4.6,26.3h-13.4l9.1-51.7h14.5l13,27.3c0.3,0.7,1,1.1,1.8,1.1c0.1,0,0.2,0,0.3,0c0.9-0.1,1.6-0.8,1.7-1.6l4.7-26.8L2720,3.9
			 M2722.3,1.9h-17.5l-4.9,28.5l-13.5-28.5h-17.5l-9.8,55.7h17.5l4.9-28l13.6,28h17.5L2722.3,1.9L2722.3,1.9L2722.3,1.9z"/>
		<path class="st0" d="M2747.6,3c6.6,0,11.6,1.4,14.7,4.2c2.7,2.4,4.2,5.6,4.7,9.8h-14.7c-0.1-1.2-0.6-2.2-1.3-3
			c-0.6-0.6-1.7-1.4-3.6-1.4c-1.3,0-2.6,0.5-3.5,1.4c-0.7,0.6-1.6,1.9-1.6,3.9c0,1.3,0.5,3.1,2.7,4.5c1.3,0.8,3.2,1.8,6,2.9
			c2.9,1.2,5.3,2.3,7.2,3.4c1.7,1,3.2,2.4,4.5,4.2c1.2,1.7,1.8,4,1.8,6.7c0,1-0.1,2.2-0.4,3.7c-0.4,2.4-1.4,4.5-3.2,6.5
			s-4.1,3.6-7,4.7c-2.9,1.2-6.4,1.8-10.2,1.8c-6.4,0-11.3-1.5-14.8-4.3c-2.9-2.5-4.6-5.8-5-10.1h14.5c0.1,1.3,0.6,2.4,1.3,3.2
			c1,1.1,2.4,1.6,4.1,1.6c1.5,0,2.8-0.5,3.8-1.3c0.8-0.7,1.7-1.9,1.7-4c0-1.3-0.5-3.3-2.7-4.8c-1.4-0.9-3.4-2-6.2-3.2
			s-5.2-2.3-7.1-3.4c-1.7-1-3.2-2.5-4.4-4.3c-1.2-1.7-1.8-4-1.8-6.6c0-1,0.1-2.2,0.4-3.7c0.7-3.8,2.8-6.7,6.4-8.9
			C2737.8,4.1,2742.4,3,2747.6,3 M2747.6,1c-5.6,0-10.5,1.2-14.6,3.6s-6.6,5.8-7.4,10.2c-0.3,1.6-0.4,2.9-0.4,4
			c0,3.1,0.7,5.7,2.1,7.8c1.4,2.1,3.1,3.7,5.1,4.9s4.4,2.4,7.4,3.6c2.7,1.2,4.6,2.2,5.9,3c1.2,0.8,1.9,1.9,1.9,3.2
			c0,1.1-0.3,1.9-1,2.5s-1.5,0.9-2.5,0.9c-2.6,0-3.8-1.6-3.5-4.8H2722c0.1,5.9,2,10.4,5.8,13.6c3.8,3.2,9.2,4.8,16,4.8
			c4.1,0,7.7-0.6,10.9-1.9c3.2-1.3,5.8-3,7.8-5.3s3.2-4.7,3.7-7.4c0.3-1.6,0.4-2.9,0.4-4c0-3.2-0.7-5.8-2.2-7.8s-3.1-3.7-5.1-4.8
			c-2-1.1-4.4-2.3-7.4-3.5c-2.6-1-4.4-2-5.6-2.7c-1.2-0.8-1.8-1.7-1.8-2.9c0-1,0.3-1.9,0.9-2.4c0.6-0.6,1.3-0.8,2.2-0.8
			c2.1,0,3.1,1.5,2.8,4.4h18.8c-0.2-5.7-2-10.1-5.5-13.3S2754.8,1,2747.6,1L2747.6,1z"/>
	</g>
</g>
</svg>
